SplineFontDB: 3.0
FontName: KleiBldIta
FullName: Klei Bold Italic
FamilyName: Klei
Weight: ExtBold
Copyright: Copyright (c) 2015-2018 Joseph Steck, Rocketroom, LLC. All rights reserved.
UComments: "For my beloved Alisa +ACIA-Clay+ACIA Steck+AAoA-2015-2-14: Created with FontForge (http://fontforge.org)"
Version: 001.000
ItalicAngle: 0
UnderlinePosition: -100
UnderlineWidth: 50
Ascent: 768
Descent: 232
InvalidEm: 0
LayerCount: 2
Layer: 0 0 "Back" 1
Layer: 1 0 "Fore" 0
PreferredKerning: 4
XUID: [1021 610 -1734517455 9502657]
FSType: 0
OS2Version: 3
OS2_WeightWidthSlopeOnly: 0
OS2_UseTypoMetrics: 1
CreationTime: 1424325067
ModificationTime: 1536805883
PfmFamily: 17
TTFWeight: 400
TTFWidth: 5
LineGap: 90
VLineGap: 0
Panose: 2 0 5 3 0 0 0 0 0 0
OS2TypoAscent: 0
OS2TypoAOffset: 1
OS2TypoDescent: 0
OS2TypoDOffset: 1
OS2TypoLinegap: 90
OS2WinAscent: 0
OS2WinAOffset: 1
OS2WinDescent: 0
OS2WinDOffset: 1
HheadAscent: 0
HheadAOffset: 1
HheadDescent: 0
HheadDOffset: 1
OS2Vendor: 'PfEd'
OS2CodePages: 20000001.00000000
OS2UnicodeRanges: 00000005.00000000.00000000.00000000
Lookup: 4 0 1 "'liga' Standard Ligatures in Latin lookup 0" { "'liga' ffl"  "'liga' ffi"  "'liga' fi"  "'liga' ff"  "'liga' fl"  } ['liga' ('DFLT' <'dflt' > 'latn' <'dflt' > ) ]

StartChar: s
Encoding: 115 115 0
GlifName: s
Width: 533
VWidth: 0
Flags: W
HStem: -11.2754 44.3506<159.229 273.419> 471.125 40.875<334.802 415.031>
VStem: 39.1152 107.741<47.558 122.824> 117.686 189.573<347.299 428.717> 302.292 188.195<75.1304 176.529>
LayerCount: 2
Fore
SplineSet
146.856445312 82 m 0xe8
 146.856445312 49.513671875 188.857421875 33.0751953125 213.836914062 33.0751953125 c 0
 256.237304688 33.0751953125 302.291992188 59.3037109375 302.291992188 117.981445312 c 0xe8
 302.291992188 159.352539062 259.114257812 208.862304688 224.416992188 237.578125 c 0
 194.16015625 262.506835938 117.685546875 315.3203125 117.685546875 374.374023438 c 0
 117.685546875 459.349609375 254.455078125 512 377.71484375 512 c 0
 462.534179688 512 515 476.629882812 515 455 c 0
 515 430.409179688 492.553710938 384.974609375 471.71484375 384.974609375 c 0
 420.556640625 384.974609375 430.926757812 471.125 384.615234375 471.125 c 0
 335.180664062 471.125 307.258789062 429.341796875 307.258789062 398.158203125 c 0xd0
 307.258789062 356.53125 353.481445312 320.8515625 382.448242188 296.221679688 c 1
 418.306640625 263.22265625 490.487304688 215.916992188 490.487304688 149.68359375 c 0
 490.487304688 15.3046875 335.241210938 -11.275390625 201.2265625 -11.275390625 c 0
 94.0244140625 -11.275390625 39.115234375 45.5205078125 39.115234375 87.8251953125 c 0
 39.115234375 118.083984375 72.2958984375 153.974609375 112.615234375 153.974609375 c 0
 137.879882812 153.974609375 157.4296875 131.028320312 157.4296875 114 c 0
 157.4296875 101.2109375 146.856445312 88.95703125 146.856445312 82 c 0xe8
EndSplineSet
EndChar

StartChar: W
Encoding: 87 87 1
GlifName: W_
Width: 1070
VWidth: 0
Flags: W
HStem: -9 21G<220.847 238.188> 696 34<27.774 51.9205 259.017 307.9 372.866 395.672 574.055 623.9 677.866 703.644 821.057 846.9 936.866 965.663 1077.07 1106.9>
LayerCount: 2
Fore
SplineSet
260.176757812 6.3125 m 1
 260.043945312 6.1171875 l 0
 254.25 -2.404296875 246.53125 -9 229.84375 -9 c 0
 211.850585938 -9 202.869140625 -3.3681640625 200.389648438 12.798828125 c 0
 186.523546908 103.209742192 76.2431640625 597.651367188 64.1015625 657.193359375 c 0
 60.0126953125 677.243164062 58.3759765625 688.376953125 52.0830078125 692.291015625 c 0
 48.6337890625 694.436523438 44.037109375 696 35.9658203125 696 c 0
 26.900390625 696 l 1
 26.900390625 696 26.1005859375 698.6875 26.1005859375 702.434570312 c 0
 26.1005859375 705.340820312 26.58203125 710.884765625 28.2919921875 714.3046875 c 0
 32.2919921875 722.3046875 38.8662109375 730 38.5 730 c 1
 109.348632812 730 250.197265625 730 321.045898438 730 c 1
 321 730 323.239257812 726.947265625 323.239257812 724.005859375 c 0
 323.239257812 720.961914062 322.85546875 715.963867188 321.291992188 712.3046875 c 0
 317.935546875 704.447265625 307.900390625 696 307.900390625 696 c 1
 303.3828125 696 l 0
 272.720703125 696 252.942382812 685.311523438 252.942382812 655.772460938 c 0
 252.942382812 655.146484375 254.013671875 644.336914062 254.317382812 641.958007812 c 1
 338 268 l 1
 450.7109375 413.478515625 l 1
 431.154296875 534.602539062 410.09765625 605.438476562 401 659 c 1
 396 683 391.158203125 696 373.540039062 696 c 0
 361.395507812 696 l 1
 360.900390625 696 360.100585938 698.6875 360.100585938 702.434570312 c 0
 360.100585938 705.340820312 360.58203125 710.884765625 362.291992188 714.3046875 c 0
 366.291992188 722.3046875 372.866210938 730 372.866210938 730 c 1
 636.338867188 730 l 1
 637 730 639.239257812 726.947265625 639.239257812 724.005859375 c 0
 639.239257812 720.961914062 638.85546875 715.963867188 637.291992188 712.3046875 c 0
 633.935546875 704.447265625 623.900390625 696 623.900390625 696 c 1
 618.67578125 696 l 2
 586 696 566.004882812 680.303710938 566.004882812 657.64453125 c 0
 566.004882812 657.546875 566.439453125 653.250976562 566.625976562 652.116210938 c 0
 596.21484375 519.51171875 l 1
 690.39453125 640.796875 l 1
 699.995117188 654.915039062 704.515625 662.959960938 704.515625 674.104492188 c 0
 704.515625 683.26953125 694.62109375 696 675.934570312 696 c 0
 665.900390625 696 l 1
 665.900390625 696 665.100585938 698.6875 665.100585938 702.434570312 c 0
 665.100585938 705.340820312 665.58203125 710.884765625 667.291992188 714.3046875 c 0
 671.291992188 722.3046875 677.866210938 730 677.866210938 730 c 1
 859.834960938 730 l 1
 860 730 862.239257812 726.947265625 862.239257812 724.005859375 c 0
 862.239257812 720.961914062 861.85546875 715.963867188 860.291992188 712.3046875 c 0
 856.935546875 704.447265625 846.900390625 696 846.900390625 696 c 1
 841.611328125 696 l 0
 833.984375 696 826.97265625 695.091796875 820.765625 692.180664062 c 0
 803.594726562 684.127929688 797.104492188 671.76171875 785.465820312 653.162109375 c 1
 622.469726562 427.961914062 l 1
 661 223 l 1
 950.747070312 638.606445312 l 0
 960.831054688 655.052734375 966.801757812 662.471679688 966.801757812 673.83984375 c 0
 966.801757812 682.794921875 956.004882812 696 934.34765625 696 c 0
 924.900390625 696 l 1
 924.900390625 696 924.100585938 698.6875 924.100585938 702.434570312 c 0
 924.100585938 705.340820312 924.58203125 710.884765625 926.291992188 714.3046875 c 0
 930.291992188 722.3046875 936.866210938 730 936.866210938 730 c 1
 1120 730 l 1
 1120 730 1122.23925781 726.947265625 1122.23925781 724.005859375 c 0
 1122.23925781 720.961914062 1121.85546875 715.963867188 1120.29199219 712.3046875 c 0
 1116.93554688 704.447265625 1106.90039062 696 1106.90039062 696 c 1
 1100.96582031 696 l 0
 1093.58203125 696 1084.16796875 694.500976562 1076.71582031 692.27734375 c 0
 1061.71972656 687.803710938 1053.21679688 667.92578125 1042.98730469 651.130859375 c 0
 907.7265625 429.046875 733.58984375 234.6328125 595.057617188 10.4306640625 c 0
 590.04296875 2.314453125 582.81640625 -10 564.63671875 -10 c 0
 548.17578125 -10 539.571289062 1.71875 536.379882812 15.0712890625 c 1
 533.587890625 20.5009765625 501.135742188 133.450195312 473 297 c 1
 260.176757812 6.3125 l 1
EndSplineSet
EndChar

StartChar: A
Encoding: 65 65 2
GlifName: A_
Width: 769
VWidth: 0
Flags: W
HStem: 0 34<10.9004 38.7693 159.997 169.9 437.9 465.929 696.995 710.9> 295 55<325.787 444.17> 715.977 20G<561.109 582.797>
LayerCount: 2
Fore
SplineSet
726.880859375 34 m 1
 726.880859375 34 727.239257812 31.947265625 727.239257812 29.005859375 c 0
 727.239257812 25.9619140625 725.85546875 19.9638671875 724.291992188 16.3046875 c 0
 720.935546875 8.447265625 710.900390625 0 710.900390625 0 c 1
 423.900390625 0 l 1
 423.900390625 0 423.100585938 2.6875 423.100585938 6.4345703125 c 0
 423.100585938 9.3408203125 423.58203125 14.884765625 425.291992188 18.3046875 c 0
 429.291992188 26.3046875 437.900390625 34 437.900390625 34 c 1
 443.434570312 34 l 0
 450.663085938 34 458.946289062 34.970703125 466.2734375 35.8623046875 c 0
 479.890625 38.8349609375 486.201171875 47.1748046875 490.567382812 62.74609375 c 1
 491.487304688 68.162109375 491.848632812 76.2099609375 491.848632812 80.505859375 c 0
 491.848632812 82.1943359375 491.733398438 84.150390625 491.498046875 85.9833984375 c 2
 454.559570312 291.723632812 l 1
 453.979492188 294.012695312 453.782226562 294.598632812 453.651367188 295 c 1
 295.282226562 295 l 0
 293.385742188 295 293.37109375 294.721679688 289.81640625 290.15625 c 1
 161.36328125 90.1044921875 l 1
 150.751953125 74.0078125 145.59765625 67.2099609375 145.59765625 55.8046875 c 0
 145.59765625 49.11328125 150.046875 42.087890625 159.786132812 36.85546875 c 0
 164.258789062 34.453125 170.413085938 34 177.434570312 34 c 0
 185.880859375 34 l 1
 185.880859375 34 186.239257812 31.947265625 186.239257812 29.005859375 c 0
 186.239257812 25.9619140625 184.85546875 19.9638671875 183.291992188 16.3046875 c 0
 179.935546875 8.447265625 169.900390625 0 169.900390625 0 c 1
 -3.099609375 0 l 1
 -3.099609375 0 -3.8994140625 2.6875 -3.8994140625 6.4345703125 c 0
 -3.8994140625 9.3408203125 -3.41796875 14.884765625 -1.7080078125 18.3046875 c 0
 2.2919921875 26.3046875 10.900390625 34 10.900390625 34 c 1
 17.4345703125 34 l 0
 23.458984375 34 32.8369140625 34.376953125 39.0634765625 36.845703125 c 0
 54.4765625 42.95703125 65.486328125 62.3251953125 76.5087890625 79.025390625 c 1
 480.138671875 709.145507812 l 1
 481.166992188 709.920898438 l 0
 495.959960938 721.076171875 548.70703125 718.951171875 561.109375 728.50390625 c 0
 579.620117188 735.9765625 l 1
 687.334960938 57.9150390625 l 2
 689.260742188 48.470703125 691.198242188 41.9775390625 696.798828125 37.83984375 c 0
 700.876953125 34.826171875 712.006835938 34 718.434570312 34 c 0
 726.880859375 34 l 1
421 497 m 1
 325.787109375 350 l 1
 443.434570312 350 l 0
 443.731445312 350 444 350.032226562 444.178710938 350.048828125 c 1
 443.8828125 352.365234375 443.5078125 354.98828125 443.5078125 354.98828125 c 1
 421 497 l 1
EndSplineSet
EndChar

StartChar: O
Encoding: 79 79 3
GlifName: O_
Width: 825
VWidth: 0
Flags: W
HStem: -11 62<307.247 447.996> 681 53<415.97 576.496>
VStem: 38.1074 203.946<133.748 403.581> 638.391 182.783<330.913 581.378>
LayerCount: 2
Fore
SplineSet
38.107421875 241.868164062 m 4
 38.107421875 544.681640625 225.052734375 734 521.8984375 734 c 4
 692.143554688 734 821.173828125 643.686523438 821.173828125 473.903320312 c 4
 821.173828125 180.783203125 592.1875 -11 342.473632812 -11 c 4
 217.598632812 -11 38.107421875 37.09375 38.107421875 241.868164062 c 4
501.275390625 681 m 4
 296.873046875 681 242.053710938 363.399414062 242.053710938 244.334960938 c 4
 242.053710938 82.1669921875 323.831054688 51 377.94140625 51 c 4
 478.057617188 51 638.390625 190.41796875 638.390625 494.999023438 c 4
 638.390625 604.614257812 600.006835938 681 501.275390625 681 c 4
EndSplineSet
EndChar

StartChar: V
Encoding: 86 86 4
GlifName: V_
Width: 691
VWidth: 0
Flags: W
HStem: 696 34<104.866 122.29 322.181 373.9 625.5 653.632 749.98 792.9>
LayerCount: 2
Fore
SplineSet
806.930664062 730 m 5
 806.930664062 730 808.239257812 726.947265625 808.239257812 724.005859375 c 4
 808.239257812 720.961914062 807.85546875 715.963867188 806.291992188 712.3046875 c 4
 802.935546875 704.447265625 792.900390625 696 792.900390625 696 c 5
 787.965820312 696 l 4
 753.727539062 696 749.828125 677.766601562 732.861328125 652.927734375 c 5
 592.375976562 432.3828125 457.959960938 220.885742188 318.827148438 5.345703125 c 4
 315.751953125 0.486328125 304.290039062 -10 289.25 -10 c 4
 274.989257812 -10 263.793945312 0.23046875 262.811523438 7.6865234375 c 5
 260.780273438 20.2099609375 160.0234375 470.333984375 135.047851562 640.813476562 c 5
 134.067382812 646.583007812 133.041992188 655.588867188 132.043945312 660.478515625 c 4
 128.940429688 675.685546875 128.592773438 685.348632812 122.528320312 690.184570312 c 4
 117.479492188 694.2109375 109.623046875 696 102.965820312 696 c 4
 92.900390625 696 l 5
 92.900390625 696 92.1005859375 698.6875 92.1005859375 702.434570312 c 4
 92.1005859375 705.340820312 92.58203125 710.884765625 94.2919921875 714.3046875 c 4
 98.2919921875 722.3046875 104.866210938 730 104.866210938 730 c 5
 387 730 l 5
 387 730 389.239257812 726.947265625 389.239257812 724.005859375 c 4
 389.239257812 720.961914062 388.85546875 715.963867188 387.291992188 712.3046875 c 4
 383.935546875 704.447265625 373.900390625 696 373.900390625 696 c 5
 370.23046875 696 l 4
 363.124023438 696 350.9921875 694.498046875 344.01171875 692.1796875 c 4
 327.702148438 686.762695312 316.754882812 679.48828125 316.754882812 661.13671875 c 4
 316.754882812 658.383789062 317.986328125 647.352539062 318.495117188 644.024414062 c 4
 387 273 l 5
 639.634765625 641.723632812 l 5
 650.754882812 658.455078125 653.801757812 665.115234375 653.801757812 676.947265625 c 4
 653.801757812 687.555664062 644.587890625 696 622.918945312 696 c 4
 612.900390625 696 l 5
 612.900390625 696 612.100585938 698.6875 612.100585938 702.434570312 c 4
 612.100585938 705.340820312 612.58203125 710.884765625 614.291992188 714.3046875 c 4
 618.291992188 722.3046875 625.5 730 625.5 730 c 5
 806.930664062 730 l 5
EndSplineSet
EndChar

StartChar: H
Encoding: 72 72 5
GlifName: H_
Width: 878
VWidth: 0
Flags: W
HStem: 0 34<23.9004 50.0515 280.06 294.431 472.9 501.058 729.138 743.9> 368 61<352.919 597.987> 696 34<187.9 220.31 435.966 465.9 640.9 660.115 887.914 915.9>
LayerCount: 2
Fore
SplineSet
459 0 m 1
 458.900390625 0 458.100585938 2.6875 458.100585938 6.4345703125 c 0
 458.100585938 9.3408203125 458.58203125 14.884765625 460.291992188 18.3046875 c 0
 464.291992188 26.3046875 472.900390625 34 472.900390625 34 c 1
 477.965820312 34 l 0
 486.0625 34 495 35 501.357421875 36.77734375 c 0
 518.555664062 41.5859375 527.80859375 60.1201171875 530.143554688 70.03515625 c 0
 598 365 l 1
 597.737304688 365.359375 596.669921875 366 595.881835938 366 c 1
 543.236328125 366.000976562 536.372070312 368 474.254882812 368 c 3
 413.084960938 368 390.119140625 366.041992188 341.904296875 366.020507812 c 1
 340.721679688 365.491210938 339.075195312 363.076171875 338.6796875 362.095703125 c 1
 330.918945312 325.678710938 322.958007812 298.200195312 314.485351562 262.6875 c 1
 296.805664062 192.198242188 287.7265625 148.318359375 270.827148438 78.146484375 c 1
 269.55859375 72.884765625 267.594726562 61.107421875 267.594726562 59.8720703125 c 0
 267.594726562 49.974609375 269.205078125 41.439453125 279.776367188 36.7275390625 c 0
 285.8125 34.037109375 292.8515625 34 300.965820312 34 c 0
 309.880859375 34 l 1
 309.880859375 34 310.239257812 31.947265625 310.239257812 29.005859375 c 0
 310.239257812 25.9619140625 308.85546875 17.9638671875 307.291992188 14.3046875 c 0
 303.935546875 6.447265625 294.430664062 0 294.430664062 0 c 1
 10 0 l 1
 10 0 9.1005859375 2.6875 9.1005859375 6.4345703125 c 0
 9.1005859375 9.3408203125 9.58203125 14.884765625 11.2919921875 18.3046875 c 0
 15.2919921875 26.3046875 23.900390625 34 23.900390625 34 c 1
 27.9658203125 34 l 0
 36.0859375 34 43.072265625 34.9921875 50.39453125 36.78515625 c 1
 66.7919921875 40.1669921875 77.697265625 60.6220703125 80.154296875 71.05078125 c 1
 109.181640625 187.724609375 133.1484375 289.174804688 160.140625 405.70703125 c 0
 181.150390625 495.865234375 199.10546875 569.76171875 218.126953125 659.9765625 c 1
 218.594726562 661.961914062 220.784179688 672.602539062 220.784179688 674.31640625 c 0
 220.784179688 681.697265625 218.201171875 686.779296875 209.245117188 691.250976562 c 0
 203.73046875 694.004882812 195.850585938 696 186.965820312 696 c 0
 175.900390625 696 l 1
 175.900390625 696 174.100585938 700.6875 174.100585938 704.434570312 c 0
 174.100585938 707.340820312 174.58203125 710.884765625 176.291992188 714.3046875 c 0
 180.291992188 722.3046875 187.900390625 730 187.900390625 730 c 1
 479.077148438 730 l 1
 479.077148438 730 480.239257812 727.947265625 480.239257812 725.005859375 c 0
 480.239257812 721.961914062 479.85546875 716.963867188 478.291992188 713.3046875 c 0
 474.935546875 705.447265625 465.900390625 697 465.900390625 697 c 1
 459.965820312 697 l 0
 452.471679688 697 444.733398438 696.301757812 435.536132812 694.247070312 c 0
 421 691 411.28515625 674.4765625 407.797851562 660.15625 c 1
 394.755859375 605.3671875 383.809570312 561.075195312 370.770507812 506.297851562 c 1
 363.870117188 479.375976562 358.625976562 455.116210938 352.918945312 430.950195312 c 1
 402.642578125 430.905273438 423.396484375 429 484.724609375 429 c 0
 547.819335938 429 553.6796875 429.998046875 606.403320312 431 c 1
 612.083007812 431 612.583007812 432.756835938 613.069335938 433.876953125 c 1
 668.130859375 663.099609375 l 1
 668.556640625 665.040039062 669.784179688 672.029296875 669.784179688 673.750976562 c 3
 669.784179688 681.1953125 667.828125 685.579101562 660.362304688 691.231445312 c 0
 655.13671875 695.1875 647 696 637.965820312 696 c 2
 628.900390625 696 l 1
 628.900390625 696 627.100585938 700.6875 627.100585938 704.434570312 c 0
 627.100585938 707.340820312 627.58203125 710.884765625 629.291992188 714.3046875 c 0
 633.291992188 722.3046875 640.900390625 730 640.900390625 730 c 1
 928.930664062 730 l 1
 928.930664062 730 930.239257812 727.947265625 930.239257812 725.005859375 c 0
 930.239257812 721.961914062 929.85546875 715.963867188 928.291992188 712.3046875 c 0
 924.935546875 704.447265625 915.900390625 696 915.900390625 696 c 1
 910.965820312 696 l 0
 902.868164062 696 894.810546875 695.99609375 887.57421875 694.223632812 c 1
 871.610351562 690.749023438 860.95703125 671.787109375 857.723632812 660.701171875 c 1
 833.818359375 568.98828125 815.771484375 490.736328125 793.78515625 398.716796875 c 1
 766.7890625 283.149414062 745.80078125 186.615234375 719.793945312 71 c 1
 719.4375 69.4873046875 718.287109375 63.154296875 718.287109375 61.8251953125 c 0
 718.287109375 54.8662109375 720.552734375 41.0458984375 728.776367188 37.7265625 c 0
 736.510742188 34.6044921875 742.8515625 34 750.965820312 34 c 0
 759.880859375 34 l 1
 759.880859375 34 760.239257812 31.947265625 760.239257812 29.005859375 c 0
 760.239257812 25.9619140625 758.85546875 17.9638671875 757.291992188 14.3046875 c 0
 753.935546875 6.447265625 743.900390625 0 743.900390625 0 c 1
 459 0 l 1
EndSplineSet
EndChar

StartChar: m
Encoding: 109 109 6
GlifName: m
Width: 975
VWidth: 0
Flags: W
HStem: -10.4502 56.3506<784.394 906.213> 0 21G<13.8799 191.767 353.512 523.289> 453.941 58.5781<95.6607 183.504> 461.7 50.75<342.328 461.369 667.827 758.084>
VStem: 702.557 169.382<46.6302 160.929> 770.255 165.643<262.921 427.25>
LayerCount: 2
Fore
SplineSet
702.556640625 50.7080078125 m 0x98
 702.556640625 69.943359375 710.868164062 107.87109375 721.196289062 148.327148438 c 2
 764 327 l 1
 768.206054688 344.541992188 770.254882812 360.53125 770.254882812 374.548828125 c 0
 770.254882812 421.834960938 764.013671875 461.700195312 723.825195312 461.700195312 c 3
 697.998046875 461.700195312 657.670898438 440.16796875 613.229492188 393.08203125 c 1
 612.409179688 388.553710938 610.998046875 383.71875 609.368164062 376.830078125 c 0
 518.463867188 0 l 1
 353.51171875 0 l 1
 435 347 l 1
 437.686523438 358.3046875 438.978515625 369.2421875 438.978515625 379.282226562 c 0
 438.978515625 431.387695312 419.228515625 461.700195312 386.142578125 461.700195312 c 4x54
 345.837890625 461.700195312 321.013671875 427.275390625 279 386 c 1
 187 0 l 1
 13.8798828125 0 l 1
 102.083984375 376.403320312 l 0
 108.298828125 401.606445312 117.590820312 437.322265625 117.590820312 442.50390625 c 0
 117.590820312 450.768554688 110.516601562 453.94140625 99.791015625 453.94140625 c 0
 85.017578125 453.94140625 67.8271484375 438.96484375 52.75 422.224609375 c 1
 41.2890625 446.997070312 l 1
 58.7333984375 479.260742188 124.489257812 512.51953125 195.466796875 512.51953125 c 0x64
 249.422851562 512.51953125 296.41796875 489.666015625 296.41796875 473.075195312 c 0
 296.41796875 465.346679688 295 458.678710938 294 449 c 1
 340.110351562 495.5 366.896484375 512.450195312 424.19140625 512.450195312 c 0
 497.770507812 512.450195312 573.600585938 494.07421875 592.099609375 439.70703125 c 1
 644.212890625 497.655273438 688.930664062 506.522460938 747.0859375 506.522460938 c 0
 842.758789062 506.522460938 935.897460938 449.623046875 935.897460938 357.8125 c 0x14
 935.897460938 344.931640625 934.200195312 331.108398438 930.557617188 316.189453125 c 1
 886.504882812 137.19921875 l 1
 881.275390625 114.8671875 871.938476562 73.92578125 871.938476562 63.572265625 c 0
 871.938476562 54.0869140625 880.422851562 45.900390625 889.786132812 45.900390625 c 0
 901.952148438 45.900390625 920.5546875 50.0390625 942.235351562 66.5498046875 c 1
 954.810546875 51.802734375 l 17
 933.29296875 16.552734375 873.709960938 -10.4501953125 813.94140625 -10.4501953125 c 0
 754.846679688 -10.4501953125 702.556640625 14.5810546875 702.556640625 50.7080078125 c 0x98
EndSplineSet
EndChar

StartChar: w
Encoding: 119 119 7
GlifName: w
Width: 815
VWidth: 0
Flags: W
HStem: 425.261 86.3398<651.426 721.179> 454.3 57.7002<69.7218 201.139>
VStem: 90.5693 154.339<229.734 454.296> 346.043 127.962<342.151 423.067> 496.311 60.3525<341.711 423.174> 721.84 72.5967<334.066 425.031>
LayerCount: 2
Fore
SplineSet
256.868164062 306.2578125 m 0x7c
 267.793945312 190.140625 282.016601562 174.337890625 291.825195312 144.983398438 c 1
 311.890625 170.624023438 324 178 359.532226562 227.291015625 c 1
 354.110351562 275.994140625 346.04296875 337.982421875 346.04296875 385.696289062 c 0
 346.04296875 425.077148438 352.078125 451.6875 364.653320312 460.61328125 c 0
 372.631835938 466.276367188 463.776367188 468.229492188 474.241210938 468.229492188 c 0
 520.895507812 468.229492188 556.663085938 424.685546875 556.663085938 381.561523438 c 0
 556.663085938 339.330078125 523.7421875 284.463867188 505 254 c 1
 516.208984375 179.092773438 527.705078125 160.487304688 536.892578125 134.918945312 c 1
 575.655273438 185.846679688 721.83984375 317.673828125 721.83984375 398.047851562 c 0
 721.83984375 414.588867188 713.486328125 425.260742188 704.313476562 425.260742188 c 0
 695.748046875 425.260742188 683.385742188 411.651367188 669.493164062 411.651367188 c 0
 642.41015625 411.651367188 625.1875 443.977539062 625.1875 465.243164062 c 0
 625.1875 495.981445312 653.34375 511.600585938 685.84375 511.600585938 c 0xbc
 709.865234375 511.600585938 741.04296875 503.353515625 757.759765625 486.928710938 c 0
 778.298828125 466.748046875 794.436523438 438.274414062 794.436523438 410.448242188 c 0
 794.436523438 374.573242188 781.947265625 337.010742188 764.14453125 305.5546875 c 0
 710.248046875 210.328125 597.732421875 129.124023438 510.543945312 7.0107421875 c 0
 505.06640625 -0.6611328125 489.159179688 -11.5498046875 476.23046875 -11.5498046875 c 0
 461.934570312 -11.5498046875 447.565429688 -3.228515625 442.540039062 7.3955078125 c 0
 420.755859375 53.4482421875 401.877929688 89.7275390625 386.153320312 158.866210938 c 1
 347.313476562 102.942382812 302.84765625 66.5654296875 253.012695312 3.87109375 c 0
 247.436523438 -3.1435546875 234.185546875 -11.5498046875 220.796875 -11.5498046875 c 0
 208.024414062 -11.5498046875 198.114257812 -2.3154296875 194.37890625 3.86328125 c 0
 160.977539062 59.1123046875 117.876953125 101.759765625 98.2265625 275.177734375 c 0
 91.189453125 337.283203125 90.5693359375 373.572265625 90.5693359375 399.288085938 c 0
 90.5693359375 419.676757812 91.6875 438.608398438 91.6875 442.797851562 c 0
 91.6875 449.243164062 82.953125 454.299804688 76.9375 454.299804688 c 0
 58.9951171875 454.299804688 39.4619140625 445.248046875 20.01171875 429.29296875 c 1
 8.0908203125 442.97265625 l 1
 27.9287109375 478.3359375 98.5859375 512 173.6875 512 c 0
 228.590820312 512 244.700195312 484.3828125 244.908203125 471.047851562 c 0
 245.296875 446.005859375 248.486328125 395.334960938 256.868164062 306.2578125 c 0x7c
496.310546875 387.76953125 m 3
 496.310546875 399.860351562 490.740234375 416.520507812 478.421875 424.116210938 c 1
 474.786132812 403.390625 474.004882812 398.94921875 474.004882812 381.580078125 c 0
 474.004882812 369.791992188 476.225585938 352.895507812 478.263671875 341.080078125 c 1
 492.67578125 357.428710938 496.310546875 370.16796875 496.310546875 387.76953125 c 3
EndSplineSet
EndChar

StartChar: x
Encoding: 120 120 8
GlifName: x
Width: 707
VWidth: 0
Flags: W
HStem: -8.75977 44.7637<121.635 177.637> -6 55<444.318 607.543> 449.648 62.7451<536.393 622.926> 459.9 52.0996<166.035 307.791>
LayerCount: 2
Fore
SplineSet
140.634765625 36.00390625 m 0x80
 154.397460938 36.00390625 183.306640625 60.0966796875 200.264648438 80.658203125 c 0
 229.516601562 116.127929688 254.512695312 151.26953125 302.564453125 246.892578125 c 1
 283.55078125 333.177734375 243.9921875 405.122070312 228.858398438 430.759765625 c 0
 214.7890625 454.59375 198.27734375 459.900390625 183.209960938 459.900390625 c 0
 163.686523438 459.900390625 139.765625 445.51953125 126.405273438 429.8125 c 1
 115.857421875 442.932617188 l 1
 134.854492188 480.577148438 189.666992188 512 257.177734375 512 c 0x90
 358.403320312 512 396.93359375 434.140625 415 367 c 1
 462.056640625 437.248046875 479.313476562 449.986328125 498.581054688 467.44921875 c 0
 522.69140625 489.30078125 565.212890625 512.393554688 606.217773438 512.393554688 c 0
 639.633789062 512.393554688 680.994140625 496.678710938 680.994140625 460.8984375 c 0
 680.994140625 442.456054688 663.7578125 414.123046875 633.573242188 414.123046875 c 0
 617.954101562 414.123046875 608.321289062 424.534179688 599.940429688 435.215820312 c 0
 592.776367188 444.353515625 587.862304688 449.6484375 581.115234375 449.6484375 c 0
 563.012695312 449.6484375 549.844726562 441.92578125 537.036132812 428.994140625 c 0
 495.40234375 386.963867188 487.536132812 364.311523438 440.290039062 285.279296875 c 1
 440.436523438 283.221679688 441.151367188 279.678710938 441.884765625 277.846679688 c 0
 464.735351562 220.801757812 473.989257812 155.688476562 503.536132812 102.279296875 c 0
 517.28515625 77.4267578125 525.947265625 49 571.020507812 49 c 0
 592.895507812 49 626.233398438 56.3486328125 644.700195312 76.640625 c 1
 657.630859375 64.1171875 l 1
 640.25390625 27.373046875 588.076171875 -6 515.000976562 -6 c 0x60
 373.634765625 -6 359.307617188 87.9580078125 338.884765625 159.897460938 c 1
 307.072265625 106.766601562 289.602539062 85.6943359375 262.135742188 56.330078125 c 0
 228.86328125 20.759765625 195.817382812 -8.759765625 127.872070312 -8.759765625 c 0
 73.53515625 -8.759765625 35.08984375 10.9453125 35.08984375 41.7568359375 c 0
 35.08984375 69.177734375 53.359375 93.0625 81.3525390625 93.0625 c 0
 128.984375 93.0625 111.931640625 36.00390625 140.634765625 36.00390625 c 0x80
EndSplineSet
EndChar

StartChar: X
Encoding: 88 88 9
GlifName: X_
Width: 692
VWidth: 0
Flags: W
HStem: 0 30<-68.1338 -22.9338 99.0952 127.9 359.866 406.135 611.379 638.431> 696 34<96.8662 129.006 333.043 389 578.866 604.875 718.927 767.9>
LayerCount: 2
Fore
SplineSet
638.430664062 0 m 1
 348 0 l 1
 347.900390625 0 347.100585938 2.6875 347.100585938 6.4345703125 c 0
 347.100585938 9.3408203125 347.58203125 12.884765625 349.291992188 16.3046875 c 0
 353.291992188 24.3046875 359.866210938 30 359.866210938 30 c 1
 385.965820312 30 l 2
 402.004969991 30 407.041314837 40.2152289015 407.041314837 52.9646431193 c 0
 407.041314837 63.1882459187 403.802822056 75.0413917901 400.40234375 84.5634765625 c 1
 319 276 l 1
 130.104492188 86.24609375 l 1
 115.18359375 68.330078125 104.505859375 55.8193359375 101.73828125 50.2294921875 c 0
 99.9580078125 46.6337890625 99.08984375 43.5390625 99.08984375 40.923828125 c 0
 99.08984375 33.30078125 106.4609375 29.75 120.090820312 29.75 c 0
 123.114257812 29.75 126.669921875 30 130.965820312 30 c 0
 141 30 l 1
 141 30 143.239257812 26.947265625 143.239257812 24.005859375 c 0
 143.239257812 20.9619140625 142.85546875 17.9638671875 141.291992188 14.3046875 c 0
 137.935546875 6.447265625 127.900390625 0 127.900390625 0 c 1
 -80.099609375 0 l 1
 -80.099609375 0 -80.8994140625 2.6875 -80.8994140625 6.4345703125 c 0
 -80.8994140625 9.3408203125 -80.41796875 12.884765625 -78.7080078125 16.3046875 c 0
 -74.7080078125 24.3046875 -68.1337890625 30 -68.1337890625 30 c 1
 -63.0341796875 30 l 0
 -27.984375 30 -19.927734375 49.2880859375 2.806640625 73.0419921875 c 1
 272.020507812 355.6015625 l 1
 221.084960938 485.736328125 157.767578125 616.694335938 132 673 c 1
 125.05859375 689.317382812 117.875976562 696 91.9658203125 696 c 0
 84.900390625 696 l 1
 84.900390625 696 84.1005859375 698.6875 84.1005859375 702.434570312 c 0
 84.1005859375 705.340820312 84.58203125 710.884765625 86.2919921875 714.3046875 c 0
 90.2919921875 722.3046875 96.8662109375 730 96.8662109375 730 c 1
 389 730 l 1
 389 730 391.239257812 726.947265625 391.239257812 724.005859375 c 0
 391.239257812 720.961914062 390.85546875 713.963867188 389.291992188 710.3046875 c 0
 385.935546875 702.447265625 375.900390625 696 376.430664062 696 c 1
 370.965820312 696 l 0
 343.594726562 696 328.76953125 683.362304688 328.76953125 662.754882812 c 0
 328.76953125 658.033203125 332.49609375 649.0859375 335.47265625 641.580078125 c 0
 411 480 l 1
 578.775390625 638.697265625 l 1
 597.625 659.641601562 605.275390625 665.681640625 605.275390625 676.924804688 c 0
 605.275390625 682.442382812 596.810546875 696 577.965820312 696 c 0
 566.900390625 696 l 1
 566.900390625 696 566.100585938 698.6875 566.100585938 702.434570312 c 0
 566.100585938 705.340820312 566.58203125 710.884765625 568.291992188 714.3046875 c 0
 572.291992188 722.3046875 578.866210938 730 578.866210938 730 c 1
 781 730 l 1
 781 730 783.239257812 726.947265625 783.239257812 724.005859375 c 0
 783.239257812 720.961914062 782.85546875 713.963867188 781.291992188 710.3046875 c 0
 777.935546875 702.447265625 767.900390625 696 767.900390625 696 c 1
 762.965820312 696 l 0
 727.87890625 696 715.911132812 675.72265625 694.1171875 652.951171875 c 1
 448.81640625 401.758789062 l 1
 454.682617188 387.073242188 l 1
 517.962890625 250.971679688 577.530273438 117.8359375 604.397460938 58.37890625 c 1
 611.915039062 40.70703125 618.719726562 30 642.965820312 30 c 0
 651 30 l 1
 651 30 653.239257812 26.947265625 653.239257812 24.005859375 c 0
 653.239257812 20.9619140625 652.85546875 17.9638671875 651.291992188 14.3046875 c 0
 647.935546875 6.447265625 637.900390625 0 638.430664062 0 c 1
EndSplineSet
EndChar

StartChar: d
Encoding: 100 100 10
GlifName: d
Width: 713
VWidth: 0
Flags: W
HStem: -9.9502 54.4424<198.851 341.585> 471.85 40.0508<344.108 430.319> 754.15 20G<706.493 712.23>
VStem: 40.2793 193.045<91.9196 310.383> 518.119 200.942<670.564 764.516>
LayerCount: 2
Fore
SplineSet
582.465820312 59.580078125 m 1
 582.465820312 22.5595703125 l 1
 550.0703125 7.904296875 514.669921875 -6.7998046875 467.18359375 -6.7998046875 c 0
 426.263671875 -6.7998046875 361.293945312 10.69921875 361.293945312 23.2353515625 c 0
 361.293945312 23.2353515625 312.040039062 -9.9501953125 264.22265625 -9.9501953125 c 0
 133.479492188 -9.9501953125 40.279296875 61.587890625 40.279296875 181.98828125 c 4
 40.279296875 403.969726562 168.479492188 511.900390625 361.388671875 511.900390625 c 0
 390.370117188 511.900390625 436.46484375 503.635742188 467.209960938 475.251953125 c 1
 513.817382812 671.631835938 l 1
 515.422851562 678.053710938 518.119140625 686.342773438 518.119140625 693.811523438 c 0
 518.119140625 700.366210938 517.750976562 708.141601562 514.094726562 711.638671875 c 0
 508.751953125 716.75 498.622070312 719.100585938 491.801757812 719.100585938 c 0
 483.584960938 719.100585938 l 1
 488.959960938 744.471679688 l 1
 526.499023438 753.922851562 664.609375 762.803710938 701.677734375 772.725585938 c 0
 702.420898438 772.958007812 704.760742188 774.150390625 708.224609375 774.150390625 c 0
 716.236328125 774.150390625 719.061523438 766.616210938 719.061523438 762.415039062 c 0
 719.061523438 757.73828125 717.610351562 752.530273438 716.129882812 746.608398438 c 1
 556.791015625 69.6435546875 l 1
 552.71875 52.4677734375 l 1
 582.465820312 59.580078125 l 1
379.24609375 96.4931640625 m 1
 443.456054688 366.92578125 l 1
 444.786132812 373.833984375 447.8515625 388.569335938 447.8515625 394.44921875 c 0
 447.8515625 434.294921875 428.875976562 471.849609375 392.083007812 471.849609375 c 0
 313.595703125 471.849609375 233.32421875 319.231445312 233.32421875 180.076171875 c 0
 233.32421875 124.22265625 264.622070312 44.4921875 304.875 44.4921875 c 0
 358.434570312 44.4921875 372.446289062 80.2890625 379.24609375 96.4931640625 c 1
EndSplineSet
EndChar

StartChar: f
Encoding: 102 102 11
GlifName: f
Width: 582
VWidth: 0
Flags: W
HStem: -179.2 42.1504<-103.124 -21.9784> 433.063 68.9268<112.4 138.121 335.772 426.181> 728.775 40.0498<429.04 502.218>
LayerCount: 2
Fore
SplineSet
444.006835938 484.899414062 m 0
 444.006835938 477.924804688 432.595703125 444.948242188 430 440 c 2
 426.180664062 433.063476562 l 1
 421.467773438 433.063476562 l 0
 415.899414062 433.063476562 362.713867188 436.797851562 324.05859375 437.155273438 c 1
 222.749023438 16.6806640625 l 0
 192.549804688 -113.77734375 98.6875 -179.200195312 -67.4501953125 -179.200195312 c 0
 -116.66015625 -179.200195312 -188.852539062 -162.87109375 -215.645507812 -113.751953125 c 1
 -215.645507812 -113.751953125 -219.012695312 -98.9775390625 -219.012695312 -96.6181640625 c 0
 -219.012695312 -77.9560546875 -179.559570312 -47.849609375 -154.75 -47.849609375 c 0
 -92.630859375 -47.849609375 -130.512695312 -137.049804688 -69.884765625 -137.049804688 c 0
 -18.6220703125 -137.049804688 21.232421875 -78.98046875 43.0302734375 24.125 c 0
 138.12109375 436.807617188 l 1
 114.453125 436.04296875 105.258789062 432.942382812 105.165039062 432.927734375 c 0
 92.34375 430.916015625 l 1
 112.400390625 497.560546875 l 1
 151.881835938 497.560546875 l 1
 153.66796875 504.46875 156.553710938 515.831054688 159.557617188 528.693359375 c 0
 161.815429688 538.568359375 165.029296875 548.916992188 167.194335938 557.333007812 c 1
 214.3515625 718.221679688 328.688476562 768.825195312 487.41796875 768.825195312 c 0
 546.096679688 768.825195312 596.1328125 753.033203125 621.194335938 700.774414062 c 1
 624.298828125 695.022460938 625.107421875 690.452148438 625.107421875 687.188476562 c 0
 625.107421875 663.235351562 583.673828125 635.125 568.517578125 635.125 c 0
 507.875976562 635.125 517.879882812 728.775390625 477.854492188 728.775390625 c 0
 425.973632812 728.775390625 375.920898438 666.279296875 347.078125 547.616210938 c 0
 335.772460938 501.990234375 l 1
 413.66015625 501.990234375 l 0
 430.134765625 501.990234375 444.006835938 497.936523438 444.006835938 484.899414062 c 0
EndSplineSet
EndChar

StartChar: j
Encoding: 106 106 12
GlifName: j
Width: 413
VWidth: 0
Flags: W
HStem: -175.7 63.2998<-64.8652 42.358> 458.3 53.25<183.785 352.494> 562.271 177.629<275.828 357.772>
VStem: 203.666 187.978<365.175 484.778> 230.993 172.381<606.802 695.399>
LayerCount: 2
Fore
SplineSet
335.599609375 739.900390625 m 0xe8
 376.10546875 739.900390625 403.374023438 708.2578125 403.374023438 668.791992188 c 0
 403.374023438 608.259765625 348.161132812 562.271484375 298.849609375 562.271484375 c 0
 257.350585938 562.271484375 230.993164062 593.625976562 230.993164062 632.698242188 c 0
 230.993164062 693.381835938 284.380859375 739.900390625 335.599609375 739.900390625 c 0xe8
391.643554688 472.362304688 m 0xf0
 391.643554688 446.08984375 377.29296875 393.94140625 367.68359375 354.377929688 c 2
 301.643554688 82.474609375 l 1
 298.444335938 67.880859375 294.15234375 53.54296875 290.841796875 39.3583984375 c 1
 277.131835938 -14.115234375 265.881835938 -49.7177734375 213.51171875 -92.5576171875 c 1
 179.090820312 -120.572265625 110.50390625 -175.700195312 -54.3896484375 -175.700195312 c 0
 -75.3408203125 -175.700195312 -128.213867188 -161.28515625 -148.975585938 -152.54296875 c 1
 -156.737304688 -149.217773438 -160.037109375 -142.54296875 -160.037109375 -136.325195312 c 0
 -160.037109375 -102.088867188 -105.375 -74.2001953125 -80.5400390625 -74.2001953125 c 0
 -47.6435546875 -74.2001953125 -31.6337890625 -112.400390625 -7.71875 -112.400390625 c 0
 -0.5625 -112.400390625 9.7548828125 -109.668945312 20.2548828125 -104.739257812 c 0
 77.98828125 -78.30859375 88.5908203125 -41.158203125 105.420898438 25.6162109375 c 0
 187.505859375 366.48046875 l 1
 193.06640625 389.90234375 203.424804688 431.954101562 203.666015625 443.087890625 c 1
 203.666015625 449.8671875 200.568359375 458.299804688 192.661132812 458.299804688 c 0
 174.909179688 458.299804688 158.69140625 451.166015625 136.072265625 431.73828125 c 0
 122.7890625 448.142578125 l 1
 143.73046875 482.966796875 260.213867188 511.549804688 333.810546875 511.549804688 c 0
 371.176757812 511.549804688 391.643554688 500.650390625 391.643554688 472.362304688 c 0xf0
EndSplineSet
EndChar

StartChar: g
Encoding: 103 103 13
GlifName: g
Width: 652
VWidth: 0
Flags: W
HStem: -271.65 50.4248<156.347 302.512> 428.302 80.1982<560.111 641.612> 462.901 48.749<325.892 407.392>
VStem: -30.1611 173.891<-206.526 -119.01> 95.8613 171.186<181.093 356.605> 369.43 165.656<-134.359 -27.5288> 419.82 157.513<246.812 428.937>
LayerCount: 2
Fore
SplineSet
218.772460938 -221.225585938 m 0x94
 295.952148438 -221.225585938 369.4296875 -169.97265625 369.4296875 -112.052734375 c 0
 369.4296875 -78.1904296875 313.764648438 -57.193359375 266.248046875 -50.384765625 c 1
 204.884765625 -72.8955078125 143.729492188 -107.348632812 143.729492188 -162.654296875 c 0
 143.729492188 -201.528320312 171.374023438 -221.225585938 218.772460938 -221.225585938 c 0x94
267.046875 258.103515625 m 0xaa
 267.046875 200.170898438 279.596679688 151.499023438 308.333984375 151.499023438 c 0
 384.205078125 151.499023438 419.8203125 273.234375 419.8203125 376.709960938 c 0
 419.8203125 431.474609375 407.3671875 462.901367188 371.606445312 462.901367188 c 0
 307.674804688 462.901367188 267.046875 353.793945312 267.046875 258.103515625 c 0xaa
535.0859375 -60.328125 m 0xc4
 535.0859375 -202.841796875 340.58203125 -271.650390625 193.595703125 -271.650390625 c 0
 58.1591796875 -271.650390625 -30.1611328125 -254.416992188 -30.1611328125 -180.487304688 c 0xd4
 -30.1611328125 -83.6943359375 92.9130859375 -52.6943359375 168.798828125 -30.70703125 c 1
 149.252929688 -28.45703125 132.80078125 -25.57421875 119.583984375 -22.2392578125 c 1
 95.3486328125 -16.71484375 73.0400390625 1.615234375 73.0400390625 24.7060546875 c 0
 73.0400390625 69.1845703125 186.724609375 93.3681640625 232.357421875 106.224609375 c 1
 179.580078125 121.1640625 95.861328125 164.924804688 95.861328125 246.74609375 c 0
 95.861328125 409.139648438 219.228515625 511.650390625 386.318359375 511.650390625 c 0xa8
 448.141601562 511.650390625 504.791992188 502.150390625 529.829101562 477.864257812 c 1
 563.046875 498.013671875 598.625 508.5 635.3359375 508.5 c 0
 647.0078125 508.5 656.375 495.3359375 656.375 486.184570312 c 0
 656.375 438.044921875 602.049804688 428.301757812 572.971679688 428.301757812 c 0
 569.96484375 428.301757812 562.294921875 428.705078125 560 429 c 1
 569 411 577.333007812 386.02734375 577.333007812 361.354492188 c 0xca
 577.333007812 136.680664062 399.971679688 110.384765625 281.947265625 57.4541015625 c 0
 275.673828125 54.640625 260.786132812 49.09375 260.786132812 45.591796875 c 0
 260.786132812 41.376953125 274.837890625 36.904296875 283.77734375 34.6337890625 c 0
 287.948242188 33.5751953125 310.171875 31.0947265625 323.795898438 29.884765625 c 0
 349.811523438 27.5751953125 362.251953125 27.44140625 391.889648438 25.673828125 c 0
 474.228515625 20.763671875 535.0859375 5.2705078125 535.0859375 -60.328125 c 0xc4
EndSplineSet
EndChar

StartChar: q
Encoding: 113 113 14
GlifName: q
Width: 658
VWidth: 0
Flags: W
HStem: -9.59961 56.1807<235.139 323.58> 465.15 47.0996<312.597 404.207>
VStem: 25.793 180.333<76.6171 296.002>
LayerCount: 2
Fore
SplineSet
614.458984375 521.326171875 m 2
 618.373046875 523.267578125 622.487304688 526 627.032226562 526 c 0
 630.48046875 526 636.983398438 523.669921875 636.983398438 514.6171875 c 0
 636.983398438 509.821289062 635.251953125 502.91796875 633.883789062 497.447265625 c 2
 461.0546875 -232 l 1
 275.153320312 -232 l 1
 340 22 l 1
 306 0 285.228515625 -9.599609375 243.658203125 -9.599609375 c 4
 111.62890625 -9.599609375 25.79296875 40.91796875 25.79296875 173.159179688 c 0
 25.79296875 371.392578125 174.176757812 512.25 377.953125 512.25 c 4
 412.466796875 512.25 438.630859375 499.359375 471.678710938 470.342773438 c 1
 614.458984375 521.326171875 l 2
206.125976562 187.749023438 m 0
 206.125976562 110.984375 223.291015625 46.5810546875 273.440429688 46.5810546875 c 4
 307.525390625 46.5810546875 331.581054688 59.9248046875 358.26953125 82.7998046875 c 1
 430.524414062 397.78515625 l 1
 430.61328125 398.044921875 l 1
 430.921875 399.025390625 l 1
 430.833984375 399.220703125 l 2
 413.135742188 437.451171875 395.251953125 465.150390625 363.74609375 465.150390625 c 0
 282.799804688 465.150390625 206.125976562 304.223632812 206.125976562 187.749023438 c 0
EndSplineSet
EndChar

StartChar: p
Encoding: 112 112 15
GlifName: p
Width: 675
VWidth: 0
Flags: W
HStem: -12.0254 53.4775<268.555 363.946> 453.925 58.0498<112.036 234.687 373.48 519.354>
VStem: 475.883 181.891<203.428 421.904>
LayerCount: 2
Fore
SplineSet
-17 -232 m 1
 129.438476562 373.6484375 l 2
 132.560546875 385.911132812 146.706054688 428.442382812 146.706054688 441.6328125 c 0
 146.706054688 447.958984375 138.841796875 453.924804688 130.383789062 453.924804688 c 0
 114.1796875 453.924804688 93.77734375 444.57421875 74.228515625 426.717773438 c 1
 56.30859375 445.3984375 l 1
 77.5078125 482.934570312 145.981445312 511.974609375 215.778320312 511.974609375 c 4
 253.595703125 511.974609375 330.21875 510.829101562 330.21875 475.575195312 c 0
 330.21875 473.374023438 329.70703125 467.814453125 329.056640625 461.848632812 c 1
 364.326171875 492.809570312 418.75390625 511.825195312 462.110351562 511.825195312 c 0
 576.596679688 511.825195312 657.7734375 450.614257812 657.7734375 328.23828125 c 0
 657.7734375 103.977539062 487.938476562 -12.025390625 324.728515625 -12.025390625 c 0
 291.11328125 -12.025390625 258.012695312 -1.6552734375 225.056640625 20.3095703125 c 1
 165.231445312 -232 l 1
 -17 -232 l 1
410.04296875 457.325195312 m 0
 377.236328125 457.325195312 351.5546875 436.953125 316.223632812 403.631835938 c 1
 249.09765625 123.49609375 l 1
 255.575195312 70.2783203125 271.284179688 41.4521484375 319.807617188 41.4521484375 c 0
 376.494140625 41.4521484375 475.8828125 187.298828125 475.8828125 302.120117188 c 0
 475.8828125 366.55078125 466.439453125 457.325195312 410.04296875 457.325195312 c 0
EndSplineSet
EndChar

StartChar: o
Encoding: 111 111 16
GlifName: o
Width: 624
VWidth: 0
Flags: W
HStem: -10.375 54.8438<223.381 306.798> 455.875 55.5<308.904 386.013>
VStem: 22.6758 181.651<63.9082 284.94> 405.586 178.315<209.442 436.783>
LayerCount: 2
Fore
SplineSet
583.901367188 349.989257812 m 0
 583.901367188 88.9453125 426.359375 -10.375 249.682617188 -10.375 c 0
 139.060546875 -10.375 22.67578125 9.427734375 22.67578125 149.85546875 c 0
 22.67578125 381.249023438 180.693359375 511.375 360.65625 511.375 c 0
 468.828125 511.375 583.901367188 493.053710938 583.901367188 349.989257812 c 0
353.962890625 455.875 m 4
 274.176757812 455.875 204.327148438 286.833984375 204.327148438 154.420898438 c 0
 204.327148438 89.876953125 219.659179688 44.46875 262.322265625 44.46875 c 4
 337.666992188 44.46875 405.5859375 225.846679688 405.5859375 339.739257812 c 4
 405.5859375 392.4375 391.876953125 455.875 353.962890625 455.875 c 4
EndSplineSet
EndChar

StartChar: I
Encoding: 73 73 17
GlifName: I_
Width: 447
VWidth: 0
Flags: W
HStem: 0 35<12.9004 41.0066 263.586 287.9> 696 34<184.5 201.803 423.539 444.9>
LayerCount: 2
Fore
SplineSet
302.077148438 35 m 1
 302.077148438 35 303.239257812 31.947265625 303.239257812 29.005859375 c 0
 303.239257812 25.9619140625 302.85546875 20.9638671875 301.291992188 17.3046875 c 0
 297.935546875 9.447265625 287.900390625 0 287.900390625 0 c 1
 -0.099609375 0 l 1
 -0.099609375 0 -0.8994140625 2.6875 -0.8994140625 6.4345703125 c 0
 -0.8994140625 9.3408203125 -0.41796875 14.884765625 1.2919921875 18.3046875 c 0
 5.2919921875 26.3046875 12.900390625 34 12.900390625 34 c 1
 17.9658203125 34 l 0
 26.0859375 34 33.099609375 34.8232421875 41.39453125 37.78515625 c 0
 56 43 66.529296875 56.8544921875 70.154296875 71.0498046875 c 0
 120.431640625 267.927734375 169.576171875 462.9609375 211.135742188 658.014648438 c 0
 211.54296875 659.92578125 212.78515625 666.625976562 212.78515625 668.315429688 c 0
 212.78515625 679.443359375 212 685 202.041992188 691.3046875 c 0
 196.965820312 694.518554688 190.012695312 696 181.965820312 696 c 0
 171.900390625 696 l 1
 171.900390625 696 171.100585938 698.6875 171.100585938 702.434570312 c 0
 171.100585938 705.340820312 171.58203125 710.884765625 173.291992188 714.3046875 c 0
 177.291992188 722.3046875 184.5 730 184.5 730 c 1
 458.930664062 730 l 1
 458.930664062 730 460.239257812 726.947265625 460.239257812 724.005859375 c 0
 460.239257812 720.961914062 459.85546875 715.963867188 458.291992188 712.3046875 c 0
 454.935546875 704.447265625 444.900390625 696 444.900390625 696 c 1
 438.965820312 696 l 0
 435.295898438 696 430.849609375 695.469726562 423.181640625 693.145507812 c 0
 409.432617188 688.977539062 399.33984375 670.950195312 396.771484375 660.888671875 c 0
 349.3203125 474.963867188 296.551757812 256.545898438 256 73 c 0
 254.85546875 67.818359375 253.122070312 62.033203125 253.122070312 56.36328125 c 0
 253.122070312 49.0703125 255.833007812 41.6142578125 263.31640625 38.7265625 c 0
 269.025390625 36.5244140625 277.8515625 35 285.965820312 35 c 0
 302.077148438 35 l 1
EndSplineSet
EndChar

StartChar: y
Encoding: 121 121 18
GlifName: y
Width: 606
VWidth: 0
Flags: W
HStem: 468.925 43.25<93.6938 196.296>
VStem: 464.686 112.387<418.247 500.176>
LayerCount: 2
Fore
SplineSet
150.455078125 90.76953125 m 0
 146.05078125 139.620117188 147.326171875 205.641601562 140.546875 280.928710938 c 0
 138.301757812 305.682617188 119.629882812 441.793945312 116.91015625 452.95703125 c 0
 114.696289062 462.038085938 106.271484375 468.924804688 99.51171875 468.924804688 c 0
 80.896484375 468.924804688 59.1572265625 451.962890625 45.564453125 433.91796875 c 1
 35.6455078125 442.598632812 l 1
 51.9384765625 475.231445312 104.83203125 512.174804688 177.169921875 512.174804688 c 0
 215.421875 512.174804688 283.86328125 501.551757812 286.555664062 473.2578125 c 0
 288.9140625 448.471679688 304.887695312 358.05078125 307.092773438 311.747070312 c 1
 313.396484375 244.729492188 313.141601562 210.193359375 314 175 c 1
 340.9296875 207.899414062 353.30078125 222.303710938 395.047851562 294.232421875 c 0
 444.057617188 378.674804688 458.49609375 411.224609375 459.158203125 415.416992188 c 0
 462.299804688 435.315429688 460.465820312 460.120117188 464.685546875 483.327148438 c 0
 467.834960938 500.65625 505.32421875 512.040039062 521.4765625 512.040039062 c 0
 547.504882812 512.040039062 577.072265625 488.000976562 577.072265625 471.55859375 c 0
 577.072265625 454.361328125 557.310546875 422.709960938 552.1953125 412.196289062 c 0
 532.408203125 371.52734375 535.22265625 371.68359375 477.513671875 273.341796875 c 0
 426.43359375 188.689453125 359.356445312 114.712890625 317.94921875 50.7607421875 c 0
 292.05078125 10.763671875 259.138671875 -44.2646484375 243.138671875 -64.4921875 c 1
 213.080078125 -104.444335938 83.61328125 -251.174804688 25.3388671875 -251.174804688 c 0
 -8.3154296875 -251.174804688 -33.6064453125 -239 -33.6064453125 -222.659179688 c 0
 -33.6064453125 -209.192382812 -28 -190 -16.673828125 -176.565429688 c 0
 25.8623046875 -126.110351562 48.0673828125 -153.9765625 86.0732421875 -115.803710938 c 0
 105.700195312 -96.0908203125 142.807617188 -61.265625 153 -43 c 1
 157.151367188 -32.4638671875 154.455078125 46.400390625 150.455078125 90.76953125 c 0
EndSplineSet
EndChar

StartChar: v
Encoding: 118 118 19
GlifName: v
Width: 533
VWidth: 0
Flags: W
HStem: 428.487 83.1133<331.485 397.676> 454.3 57.25<27.6123 164.901>
VStem: 50.123 174.417<216.18 454.295> 397.902 86.5342<330.078 427.991>
LayerCount: 2
Fore
SplineSet
231.786132812 300.2578125 m 0x70
 242.06640625 205.934570312 248.97265625 205.989257812 258 177 c 1
 302.905273438 225.59375 397.90234375 325.982421875 397.90234375 402.85546875 c 0
 397.90234375 417.798828125 390.705078125 428.487304688 380.765625 428.487304688 c 0
 373.171875 428.487304688 360.55078125 416.73828125 345.233398438 416.73828125 c 0
 320.881835938 416.73828125 302.990234375 443.43359375 302.990234375 462.875 c 0
 302.990234375 488.7421875 342.029296875 511.600585938 373.84375 511.600585938 c 0xb0
 405.141601562 511.600585938 440.04296875 497.352539062 455.759765625 477.926757812 c 0
 473.872070312 455.541015625 484.436523438 428.26953125 484.436523438 400.440429688 c 0
 484.436523438 364.563476562 471.947265625 336.998046875 454.14453125 305.540039062 c 0
 400.388671875 210.5546875 318.635742188 121.049804688 222.512695312 3.6826171875 c 0
 216.09765625 -4.3662109375 204.6640625 -11.5498046875 191.4921875 -11.5498046875 c 0
 179.3359375 -11.5498046875 165.243164062 0.740234375 161.310546875 6.86328125 c 0
 125.607421875 62.45703125 77.861328125 101.903320312 58.2265625 275.177734375 c 0
 51.748046875 332.358398438 50.123046875 367.061523438 50.123046875 392.931640625 c 0
 50.123046875 417.385742188 50.6875 437.232421875 50.6875 441.828125 c 0
 50.6875 448.129882812 38.7666015625 454.299804688 31.9375 454.299804688 c 0
 14.8359375 454.299804688 -1.2119140625 447.6953125 -20.98828125 429.29296875 c 1
 -30.9091796875 442.97265625 l 1
 -11.2529296875 477.78515625 52.1884765625 511.549804688 132.6875 511.549804688 c 0
 197.114257812 511.549804688 224.588867188 478.427734375 224.588867188 465 c 0
 224.588867188 456.459960938 224.540039062 447.815429688 224.540039062 438.733398438 c 0
 224.540039062 404.64453125 224.801757812 364.336914062 231.786132812 300.2578125 c 0x70
EndSplineSet
EndChar

StartChar: u
Encoding: 117 117 20
GlifName: u
Width: 621
VWidth: 0
Flags: W
HStem: -9.59961 37.5996<210.947 280.159> -7.5 21G<375.124 416.834> 453.75 58.25<84.0611 173.318>
VStem: 38.1592 163.145<40.007 192.175> 111.809 172.885<357.906 484.004>
LayerCount: 2
Fore
SplineSet
43.5322265625 142.458984375 m 1xb0
 97.2333984375 365.331054688 l 2
 102.436523438 388.559570312 111.573242188 422.71875 111.80859375 433.580078125 c 1
 111.80859375 445.328125 98.7119140625 453.75 90.052734375 453.75 c 0
 72.0771484375 453.75 53.9072265625 448.329101562 36.126953125 429.743164062 c 1
 26.2060546875 443.422851562 l 1
 46.03125 478.534179688 138.369140625 512 188.953125 512 c 0
 234.8359375 512 284.48828125 504.34375 284.693359375 468.419921875 c 1xa8
 284.693359375 441.681640625 270.084960938 393.461914062 262.029296875 353.694335938 c 1
 214.296875 156.0859375 l 6
 209.781047304 137.442792474 201.303879019 106.316389865 201.303879019 79.4165932212 c 0
 201.303879019 51.4189804279 210.487095385 28 242.877929688 28 c 4xb0
 265.264648438 28 282.458984375 41.705078125 322.6328125 68.3056640625 c 1
 427.232421875 516.799804688 l 1
 590.659179688 516.799804688 l 1
 481 37 l 1
 516.297851562 46.31640625 l 1
 518.438476562 22.341796875 l 1
 486.944335938 7.6376953125 441.28515625 -7.5 392.383789062 -7.5 c 0x70
 357.864257812 -7.5 316.8515625 13.646484375 316.8515625 26.1689453125 c 0
 316.8515625 28.837890625 317.07421875 32.4892578125 317.1953125 33.8994140625 c 1
 281.020507812 5.80859375 251.677734375 -9.599609375 214.473632812 -9.599609375 c 0
 139.653320312 -9.599609375 38.1591796875 10.7529296875 38.1591796875 100.477539062 c 0
 38.1591796875 113.303710938 39.8623046875 127.17578125 43.5322265625 142.458984375 c 1xb0
EndSplineSet
EndChar

StartChar: n
Encoding: 110 110 21
GlifName: n
Width: 638
VWidth: 0
Flags: W
HStem: -9.4502 53.3506<443.711 570.156> 0.200195 21G<11.4248 188.714> 454.86 57.6006<98.7797 234.594 344.357 466.134>
VStem: 373.859 168.926<44.639 158.886> 436.463 171.032<296.604 427.001>
LayerCount: 2
Fore
SplineSet
292.708007812 469.471679688 m 0x68
 292.708007812 463.899414062 292.439453125 457.325195312 291.045898438 449.360351562 c 1
 326.012695312 480.686523438 360.838867188 512.4609375 425.124023438 512.4609375 c 0
 507.14453125 512.4609375 607.495117188 446.782226562 607.495117188 359.705078125 c 0x68
 607.495117188 347.25390625 606.916992188 337.942382812 603.522460938 323.55859375 c 2
 559.35546875 138.19140625 l 1
 554.08984375 115.706054688 542.78515625 72.779296875 542.78515625 62.5732421875 c 0
 542.78515625 54.130859375 553.178710938 43.900390625 561.631835938 43.900390625 c 0
 576.545898438 43.900390625 596.353515625 51.00390625 615.08203125 69.5498046875 c 1
 627.784179688 54.0185546875 l 0
 607.086914062 19.2236328125 530.008789062 -9.4501953125 469.594726562 -9.4501953125 c 0
 417.827148438 -9.4501953125 373.859375 12.3251953125 373.859375 46.9853515625 c 0xb0
 373.859375 72.5009765625 382.204101562 104.310546875 391.05859375 143.717773438 c 1
 430 310 l 2
 434.28125 328.041015625 436.462890625 346.462890625 436.462890625 364.022460938 c 0
 436.462890625 418.982421875 423.314453125 454.860351562 383.048828125 454.860351562 c 0
 339.001953125 454.860351562 316.748046875 421.237304688 273 378.099609375 c 5
 184.00390625 0.2001953125 l 1
 11.4248046875 0.2001953125 l 1
 99.6865234375 371.208984375 l 0
 106.561523438 398.556640625 113.912109375 433.34765625 113.912109375 443.260742188 c 0
 113.912109375 448.657226562 105.516601562 452.75 99.1123046875 452.75 c 0
 85.0126953125 452.75 65.11328125 444.094726562 50.1875 420.060546875 c 1
 39.791015625 445.322265625 l 1
 59.7490234375 480.668945312 130.383789062 512.450195312 206.553710938 512.450195312 c 0
 262.633789062 512.450195312 292.708007812 493.318359375 292.708007812 469.471679688 c 0x68
EndSplineSet
EndChar

StartChar: b
Encoding: 98 98 22
GlifName: b
Width: 659
VWidth: 0
Flags: W
HStem: -9.9502 51.335<249.626 367.406> -3.65039 37.2734<5.94727 40.0663> 463.4 48.5<334.321 432.356> 754 20G<369.792 374.164>
VStem: 465.996 176.315<189.458 425.518>
LayerCount: 2
Fore
SplineSet
381.345703125 745.498046875 m 0x78
 317.874023438 480.833984375 l 1
 350.973632812 501.122070312 372.788085938 511.900390625 426.319335938 511.900390625 c 0
 543.860351562 511.900390625 642.311523438 480.563476562 642.311523438 329.053710938 c 0
 642.311523438 124.735351562 544.1015625 -9.9501953125 310.793945312 -9.9501953125 c 0xb8
 273.442382812 -9.9501953125 233.903320312 -0.8251953125 203.66796875 22.7724609375 c 1
 177.561523438 3.890625 73.28515625 -3.650390625 6.4267578125 -3.650390625 c 0
 -2.2001953125 -3.650390625 l 1
 5.947265625 33.623046875 l 1
 11.626953125 33.623046875 l 0
 31.5478515625 33.623046875 44.044921875 50.0703125 46.6064453125 60.9453125 c 0
 189.89453125 673.578125 l 0
 190.9765625 678.010742188 193.561523438 689.323242188 193.561523438 693.165039062 c 0
 193.561523438 701.987304688 191.418945312 708.471679688 186.81640625 711.48828125 c 0
 183.9140625 713.390625 176.693359375 714.950195312 167.850585938 714.950195312 c 0
 158.565429688 714.950195312 l 1
 164.971679688 745.25390625 l 1
 359.3671875 770.701171875 l 0
 361.318359375 771.208007812 367.185546875 774 372.3984375 774 c 0
 375.928710938 774 383.897460938 770.192382812 383.897460938 760.41015625 c 0
 383.897460938 755.986328125 382.879882812 751.799804688 381.345703125 745.498046875 c 0x78
307.970703125 422.383789062 m 1
 232.515625 107.98828125 l 2
 232.077148438 106.158203125 232.034179688 101.471679688 232.034179688 98.1865234375 c 0
 232.034179688 65.48828125 269.650390625 41.384765625 314.279296875 41.384765625 c 0
 411.420898438 41.384765625 465.99609375 204.23828125 465.99609375 328.88671875 c 0
 465.99609375 405.890625 432.751953125 463.400390625 396.051757812 463.400390625 c 0
 361.3671875 463.400390625 343.403320312 449.298828125 307.970703125 422.383789062 c 1
EndSplineSet
EndChar

StartChar: h
Encoding: 104 104 23
GlifName: h
Width: 697
VWidth: 0
Flags: W
HStem: -9.97461 57.582<456.683 589.31> -0.325195 21G<17.5801 204.39> 468.375 43.5498<347.64 457.53> 753.949 20G<366.441 369.28>
VStem: 181.637 198.965<675.818 768.104> 392.131 173.054<27.0288 153.887> 468.409 161.244<292.378 430.742>
LayerCount: 2
Fore
SplineSet
392.130859375 44.2265625 m 1xbc
 392.130859375 70.5517578125 400.697265625 100.813476562 410.387695312 140.296875 c 2
 452 315 l 2
 457.768554688 339.813476562 468.409179688 370.607421875 468.409179688 398.357421875 c 0
 468.409179688 438.559570312 459.471679688 468.375 408.75390625 468.375 c 0
 378.284179688 468.375 342.912109375 450.329101562 286.31640625 396.80078125 c 1
 200.044921875 -0.3251953125 l 1
 17.580078125 -0.3251953125 l 1
 176.915039062 675.568359375 l 1
 178.030273438 680.30078125 181.63671875 695.86328125 181.63671875 699.423828125 c 0
 181.63671875 708.061523438 179.96484375 711.384765625 174.797851562 715.438476562 c 0
 172.168945312 717.501953125 159.498046875 718.899414062 154.591796875 718.899414062 c 0
 145.525390625 718.899414062 l 1
 151.146484375 745.28125 l 1
 354.926757812 770.649414062 l 0
 357.470703125 771.307617188 365.33203125 773.94921875 367.55078125 773.94921875 c 0
 371.008789062 773.94921875 380.6015625 772.836914062 380.6015625 763.370117188 c 0
 380.6015625 759.028320312 379.639648438 754.01171875 378.033203125 747.422851562 c 0
 302 462 l 1
 344.11328125 502.416992188 392.073242188 511.924804688 444.400390625 511.924804688 c 0
 531.215820312 511.924804688 629.653320312 455.934570312 629.653320312 358.564453125 c 0x7a
 629.653320312 345.8046875 628.028320312 332.15625 624.53515625 317.424804688 c 2
 577.754882812 133.737304688 l 2
 572.5078125 111.336914062 565.184570312 73.39453125 565.184570312 63.0751953125 c 0
 565.184570312 51.7861328125 573.286132812 47.607421875 582.005859375 47.607421875 c 0
 596.61328125 47.607421875 621.567382812 56.3388671875 634.482421875 69.0244140625 c 1
 629.981445312 52.1572265625 l 0
 609.377929688 19.888671875 546.61328125 -9.974609375 482.1875 -9.974609375 c 0
 431.178710938 -9.974609375 392.399414062 9.8310546875 392.130859375 44.2265625 c 1xbc
EndSplineSet
EndChar

StartChar: t
Encoding: 116 116 24
GlifName: t
Width: 400
VWidth: 0
Flags: W
HStem: -9.875 56.9502<96.543 229.791> 451.86 42.3457<62.5062 110.986> 460.151 46.8486<297.847 351.702>
VStem: 21.6846 173.45<47.2591 161.3>
LayerCount: 2
Fore
SplineSet
21.6845703125 50.6923828125 m 0xb0
 21.6845703125 77.044921875 34.32421875 124.420898438 43.9599609375 164.037109375 c 0
 110.986328125 450.768554688 l 1
 98.24609375 451.146484375 77.19140625 450.635742188 70.017578125 451.860351562 c 0
 63.1181640625 453.038085938 62.361328125 465.041992188 62.361328125 468.23046875 c 3
 62.361328125 478.282226562 63.814453125 494.206054688 76.7998046875 494.206054688 c 0xd0
 81.46875 494.206054688 101.172851562 494.265625 120.778320312 495.001953125 c 1
 128.923828125 521.263671875 146.1953125 608.087890625 155.677734375 637.935546875 c 0
 160.188476562 652.1328125 205.059570312 655.162109375 244 655.162109375 c 0
 275.54296875 655.162109375 313.799804688 653.483398438 313.799804688 653.483398438 c 0
 321.366210938 653.483398438 327.185546875 647.461914062 327.185546875 633.654296875 c 0
 327.185546875 629.137695312 326.380859375 623.778320312 324.833007812 616.814453125 c 0
 319.025390625 593.669921875 304.783203125 534.560546875 297.846679688 505.974609375 c 1
 327.671875 506.147460938 326.438476562 507 336.549804688 507 c 0
 349.97265625 507 361.974609375 503.70703125 361.974609375 491.404296875 c 0
 361.974609375 483.935546875 359.779296875 476.813476562 356.46484375 470.53125 c 1
 351.702148438 460.151367188 l 1
 347.215820312 460.151367188 l 0
 342.900390625 460.151367188 316.41796875 461.071289062 288.3984375 461.192382812 c 1
 262.15625 354.36328125 235.8671875 247.146484375 210.704101562 140.407226562 c 0
 205.37109375 117.356445312 195.134765625 78 195.134765625 67.2548828125 c 0
 195.134765625 59.0810546875 200.828125 47.0751953125 213.982421875 47.0751953125 c 0
 235.130859375 47.0751953125 257.060546875 56.447265625 271.094726562 73.150390625 c 1
 280.431640625 58.7294921875 l 1
 258.124023438 18.6171875 206.99609375 -9.875 123.78515625 -9.875 c 0
 69.30078125 -9.875 21.6845703125 15.63671875 21.6845703125 50.6923828125 c 0xb0
EndSplineSet
EndChar

StartChar: z
Encoding: 122 122 25
GlifName: z
Width: 600
VWidth: 0
Flags: W
HStem: -9.93945 59.4814<314.365 490.658> 426.436 59.4795<207.221 406.941> 447.265 55.085<141.264 334.805>
VStem: 61.8262 86.6855<383.834 438.523> 486.185 80.0273<56.4954 114.28>
LayerCount: 2
Fore
SplineSet
61.826171875 422.905273438 m 0xb8
 61.826171875 459.565429688 120.17578125 502.349609375 219.158203125 502.349609375 c 0xb8
 295.129882812 502.349609375 314.241210938 485.915039062 380.450195312 485.915039062 c 0
 433.432617188 485.915039062 558.984375 502.540039062 578.89453125 502.540039062 c 0
 590.021484375 502.540039062 595.028320312 498.916015625 595.028320312 497 c 0
 595.028320312 485.89453125 582.36328125 475.7109375 575.512695312 467.6875 c 0
 554.013671875 442.509765625 492.419921875 334.583007812 414.279296875 244.919921875 c 0
 361.610351562 184.485351562 301.036132812 115.495117188 268.78125 76.298828125 c 1
 335.020507812 75.6201171875 354.524414062 49.5419921875 400.09375 49.5419921875 c 0
 417.473632812 49.5419921875 469.013671875 50.7626953125 492.422851562 56.12890625 c 1
 487.83984375 63.994140625 486.184570312 68.8388671875 486.184570312 76.8544921875 c 0
 486.184570312 97.390625 502.254882812 119.57421875 525.529296875 119.57421875 c 0
 548.177734375 119.57421875 566.211914062 99.9677734375 566.211914062 75.501953125 c 0
 566.211914062 2.0361328125 467.21484375 -9.939453125 388.572265625 -9.939453125 c 0
 309.640625 -9.939453125 217.916015625 11.2451171875 144.0546875 11.2451171875 c 0
 102.94140625 11.2451171875 43.060546875 -9.607421875 20.306640625 -9.607421875 c 0
 12.951171875 -9.607421875 5.7998046875 -3.9609375 5.7998046875 4.888671875 c 0
 5.7998046875 10.318359375 8.5703125 14.0966796875 10.1455078125 16.0771484375 c 0
 52.8720703125 69.7958984375 136.330078125 178.38671875 214.592773438 264.540039062 c 0
 272.681640625 328.485351562 320.255859375 388.987304688 350.62109375 428.336914062 c 1
 339.814453125 426.890625 331.720703125 426.435546875 322.4609375 426.435546875 c 0xd8
 261.556640625 426.435546875 264.771484375 447.264648438 188.233398438 447.264648438 c 0
 168.30078125 447.264648438 151.53515625 444.544921875 139.762695312 438.90625 c 1
 144.43359375 430.669921875 148.51171875 426.740234375 148.51171875 419.784179688 c 0
 148.51171875 399.830078125 130.65234375 377.481445312 103.478515625 377.481445312 c 0
 76.7373046875 377.481445312 61.826171875 405.260742188 61.826171875 422.905273438 c 0xb8
EndSplineSet
EndChar

StartChar: l
Encoding: 108 108 26
GlifName: l
Width: 326
VWidth: 0
Flags: W
HStem: -10.0137 58.7861<96.5117 235.972> 753.851 20G<351.36 355.696>
VStem: 17.3105 184.449<27.2437 156.534> 163.105 200.851<668.412 765.46>
LayerCount: 2
Fore
SplineSet
17.310546875 48.34375 m 0xe0
 17.310546875 74.0615234375 26.111328125 106.390625 35.4453125 145.969726562 c 2
 159.18359375 673.592773438 l 5
 160.474609375 679.1875 163.10546875 692.09765625 163.10546875 696.06640625 c 4
 163.10546875 704.6875 159.469726562 709.013671875 155.46875 711.489257812 c 4
 151.250976562 714.098632812 138.877929688 714.900390625 134.5 714.900390625 c 4
 125.701171875 714.900390625 l 5
 134.782226562 745.254882812 l 1
 345.849609375 772.62890625 l 0
 347.994140625 773.181640625 349.969726562 773.850585938 352.75 773.850585938 c 0
 358.641601562 773.850585938 363.956054688 768.831054688 363.956054688 762.08984375 c 0xd0
 363.956054688 758.016601562 363.03125 753.453125 361.619140625 747.419921875 c 1
 216.33984375 139.869140625 l 1
 211.141601562 117.010742188 201.759765625 75.9296875 201.759765625 65.51171875 c 0
 201.759765625 51.61328125 216.264648438 48.7724609375 227.767578125 48.7724609375 c 0
 244.176757812 48.7724609375 264.780273438 62.3916015625 279.484375 73.4208984375 c 1
 287.07421875 58.9345703125 l 1
 270.767578125 29.978515625 192.375976562 -10.013671875 120.729492188 -10.013671875 c 4
 72.2939453125 -10.013671875 17.310546875 6.1435546875 17.310546875 48.34375 c 0xe0
EndSplineSet
EndChar

StartChar: r
Encoding: 114 114 27
GlifName: r
Width: 567
VWidth: 0
Flags: W
HStem: -0.200195 21G<41.5 223.872> 401.048 100.932<380.828 493.357> 448.95 63.25<120.31 250.376>
LayerCount: 2
Fore
SplineSet
41.5 -0.2001953125 m 1xc0
 129.7421875 367.736328125 l 2
 136.060546875 394.3671875 148.96484375 426.637695312 149.20703125 435.768554688 c 1
 149.20703125 442.544921875 141.109375 448.950195312 135.451171875 448.950195312 c 0
 118.557617188 448.950195312 105.142578125 444.78125 83.9443359375 427.388671875 c 9
 66.9580078125 449.791992188 l 1
 85.232421875 482.154296875 154.231445312 512.200195312 225.205078125 512.200195312 c 0xa0
 275.546875 512.200195312 328.232421875 501.033203125 328.232421875 472.702148438 c 0
 328.232421875 462.627929688 326.504882812 452.734375 325.908203125 445.923828125 c 1
 363.504882812 473.274414062 411.508789062 501.979492188 463.901367188 501.979492188 c 0
 471.583984375 501.979492188 536.856445312 491.069335938 536.856445312 454.724609375 c 0
 536.856445312 417.756835938 482.89453125 379.805664062 460.186523438 379.805664062 c 0
 431.552734375 379.805664062 406.482421875 401.047851562 385.64453125 401.047851562 c 0
 361.633789062 401.047851562 318.419921875 373.952148438 305 354 c 1
 219.016601562 -0.2001953125 l 1
 41.5 -0.2001953125 l 1xc0
EndSplineSet
EndChar

StartChar: k
Encoding: 107 107 28
GlifName: k
Width: 579
VWidth: 0
Flags: W
HStem: -9.9248 53.3496<465.535 589.016> 0.724609 21G<0.429688 184.185> 264 82.2246<247 279.201> 450.626 71.3594<468.627 513.544> 753.85 20G<345.882 351.55>
VStem: 163.198 196.278<662.076 765.52>
LayerCount: 2
Fore
SplineSet
133.826171875 745.174804688 m 1x7c
 329.814453125 769.4453125 l 2
 333.661132812 770.65234375 343.7890625 773.849609375 347.974609375 773.849609375 c 0
 355.125 773.849609375 359.4765625 768.454101562 359.4765625 762.584960938 c 0
 359.4765625 759.196289062 358.783203125 750.747070312 357.975585938 747.43359375 c 0
 267.833984375 361.905273438 l 1
 267.3515625 359.63671875 267.116210938 357.396484375 267.116210938 355.762695312 c 0
 267.116210938 347.03125 272.065429688 346.34375 279.201171875 346.224609375 c 1
 290.754882812 349.584960938 337.768554688 389.951171875 375.35546875 424.017578125 c 0
 397.02734375 443.661132812 409.8125 454.358398438 427.278320312 469.197265625 c 0
 462.952148438 500.57421875 499.866210938 521.985351562 520.831054688 521.985351562 c 0
 557.493164062 521.985351562 586.578125 495.091796875 586.578125 469.62890625 c 0
 586.578125 444.950195312 560.700195312 422.106445312 535.63671875 422.106445312 c 0
 521.424804688 422.106445312 509.364257812 429.71484375 501.517578125 440.296875 c 0
 496.44140625 447.14453125 493.741210938 450.533203125 493.545898438 450.625976562 c 1
 492.134765625 450.625976562 482.9453125 444.26953125 470.1328125 432.747070312 c 1
 432.383789062 399.89453125 l 1
 414.748046875 383.155273438 399.319335938 373.065429688 376 350 c 1
 380.401367188 331.619140625 434.704470001 244.208660024 459.479492188 197.758789062 c 0
 486.091796875 147.864257812 518.774414062 89.8876953125 526.836914062 74.72265625 c 0
 531.627929688 65.7109375 543.201171875 43.4248046875 561.243164062 43.4248046875 c 0
 579.323242188 43.4248046875 597.458984375 50.884765625 615.0703125 67.095703125 c 1
 631.66015625 51.609375 l 1
 611.991210938 18.6572265625 563.931640625 -9.9248046875 502.748046875 -9.9248046875 c 0xbc
 428.321289062 -9.9248046875 390.46484375 8.9736328125 370.873046875 40.892578125 c 0
 361.765625 55.728515625 339.326845658 97.6848934171 295.787109375 182.928710938 c 0
 254.997070312 262.7890625 260.68359375 264 247 264 c 0
 243.102539062 264 239.366210938 263.022460938 236.87890625 261.649414062 c 1
 179.810546875 0.724609375 l 1
 0.4296875 0.724609375 l 1
 157.935546875 671.534179688 l 1
 159.385742188 678.022460938 163.198242188 690.999023438 163.198242188 695.533203125 c 3
 163.198242188 703.684570312 160.651367188 707.4140625 156.1015625 710.518554688 c 0
 151 714 140.708984375 714.899414062 136.731445312 714.899414062 c 0
 127.384765625 714.899414062 l 1
 133.826171875 745.174804688 l 1x7c
EndSplineSet
EndChar

StartChar: e
Encoding: 101 101 29
GlifName: e
Width: 572
VWidth: 0
Flags: W
HStem: -10.4502 61.6504<200.783 410.089> 462.866 49.584<324.928 412.725>
VStem: 26.6162 189.767<105.693 222.367> 423.267 157.35<365.698 454.703>
LayerCount: 2
Fore
SplineSet
580.616210938 417.643554688 m 0
 580.616210938 247.020507812 303.217773438 240.301757812 218.850585938 221.783203125 c 1
 216.53515625 207.758789062 216.3828125 186.096679688 216.3828125 172.983398438 c 4
 216.3828125 127.862304688 255.287109375 51.2001953125 319.990234375 51.2001953125 c 0
 371.364257812 51.2001953125 427.451171875 68.8388671875 484.930664062 107.958007812 c 1
 487.66015625 100.853515625 500.844726562 83.2421875 500.844726562 74.4853515625 c 0
 500.844726562 72.1357421875 500.268554688 70.1923828125 498.813476562 68.958984375 c 0
 435.780273438 15.5322265625 392.147460938 -10.4501953125 268.815429688 -10.4501953125 c 0
 136.471679688 -10.4501953125 26.6162109375 48.7646484375 26.6162109375 175.73046875 c 0
 26.6162109375 386.784179688 174.237304688 512.450195312 370.999023438 512.450195312 c 0
 496.09375 512.450195312 580.616210938 486.993164062 580.616210938 417.643554688 c 0
371.798828125 462.866210938 m 0
 333.678710938 462.866210938 263.08984375 399.4140625 235.106445312 293.537109375 c 1
 312.001953125 309.446289062 423.266601562 346.037109375 423.266601562 408.454101562 c 0
 423.266601562 443.086914062 401.895507812 462.866210938 371.798828125 462.866210938 c 0
EndSplineSet
EndChar

StartChar: c
Encoding: 99 99 30
GlifName: c
Width: 574
VWidth: 0
Flags: W
HStem: -10.4248 62.0996<266.523 401.974> 470.325 41.0996<335.455 419.711>
VStem: 23.6279 192.743<106.714 307.201>
LayerCount: 2
Fore
SplineSet
393.125976562 511.424804688 m 4
 456.291992188 511.424804688 515.956054688 492.00390625 556.177734375 417.225585938 c 4
 557.829794287 414.154151174 559.709960938 410.9765625 559.709960938 406.657226562 c 4
 559.709960938 379.821289062 511.676757812 357.875 493.047851562 357.875 c 4
 422.81640625 357.875 449.072265625 470.325195312 383.639648438 470.325195312 c 4
 314.337890625 470.325195312 216.37109375 329.743164062 216.37109375 195.65625 c 4
 216.37109375 122.196289062 255.448242188 51.6748046875 319.961914062 51.6748046875 c 4
 361.373046875 51.6748046875 422.600585938 67.650390625 470.69140625 105.138671875 c 5
 487.208007812 72.3486328125 l 5
 420.063476562 11.693359375 379.00390625 -10.4248046875 278.379882812 -10.4248046875 c 4
 167.469726562 -10.4248046875 23.6279296875 38.0185546875 23.6279296875 184.26953125 c 4
 23.6279296875 391.377929688 183.362304688 511.424804688 393.125976562 511.424804688 c 4
EndSplineSet
EndChar

StartChar: a
Encoding: 97 97 31
GlifName: a
Width: 655
VWidth: 0
Flags: W
HStem: -10.4248 72.7861<183.221 335.587> -7.27539 21G<420.522 456.372> 460.375 51.0498<324.566 421.472> 483.09 20G<628.714 637.46>
VStem: 34.2217 184.712<95.1865 293.158>
LayerCount: 2
Fore
SplineSet
567.255859375 52.537109375 m 1x18
 567.255859375 21.8349609375 l 1
 542.203125 5.6533203125 470.296875 -7.275390625 442.446289062 -7.275390625 c 0x58
 398.598632812 -7.275390625 368.05078125 11.8076171875 365.30078125 28.58984375 c 1
 326.704101562 3.9091796875 295.325195312 -10.4248046875 245.9453125 -10.4248046875 c 0
 120.49609375 -10.4248046875 34.2216796875 52.966796875 34.2216796875 166.870117188 c 0
 34.2216796875 377.188476562 185.98046875 511.424804688 370.352539062 511.424804688 c 0xa8
 409.702148438 511.424804688 445.243164062 503.09765625 474.61328125 474.8515625 c 1
 476.954101562 485.383789062 l 1
 481.647460938 486.13671875 l 2
 509.358398438 490.581054688 615.346679688 496.211914062 642.081054688 503.08984375 c 1
 539.826171875 60.4814453125 l 0
 536.041992188 44.5205078125 l 1
 546.26171875 47.068359375 556.9296875 49.796875 567.255859375 52.537109375 c 1x18
371.056640625 95.2001953125 m 1
 434.0546875 357.533203125 l 1
 434.405273438 363.630859375 439.262695312 381.412109375 439.262695312 386.903320312 c 0
 439.262695312 430.0234375 411.85546875 460.375 371.947265625 460.375 c 0
 300.778320312 460.375 218.93359375 317.860351562 218.93359375 176.782226562 c 0
 218.93359375 140.592773438 239.426757812 62.361328125 287.732421875 62.361328125 c 0xa8
 329.866210938 62.361328125 364.71484375 82.7021484375 371.056640625 95.2001953125 c 1
EndSplineSet
EndChar

StartChar: i
Encoding: 105 105 32
GlifName: i
Width: 376
VWidth: 0
Flags: W
HStem: -9.22461 57.3496<114.089 247.206> 458.825 54.25<107.712 236.651> 562.271 177.629<205.828 287.772>
VStem: 42 180.671<31.7211 158.933> 130.897 179.977<364.636 487.479> 160.993 172.381<606.802 695.399>
LayerCount: 2
Fore
SplineSet
265.599609375 739.900390625 m 4xe4
 306.10546875 739.900390625 333.374023438 708.2578125 333.374023438 668.791992188 c 4
 333.374023438 608.259765625 278.161132812 562.271484375 228.849609375 562.271484375 c 4
 187.350585938 562.271484375 160.993164062 593.625976562 160.993164062 632.698242188 c 4
 160.993164062 693.381835938 214.380859375 739.900390625 265.599609375 739.900390625 c 4xe4
310.874023438 474.575195312 m 1xe8
 310.874023438 447.422851562 295.903320312 394.032226562 286.709960938 354.940429688 c 2
 235.556640625 137.36328125 l 0
 229.412109375 112.681640625 222.670898438 79.16796875 222.670898438 65.537109375 c 0
 222.670898438 57.3896484375 227.98046875 48.125 236.846679688 48.125 c 0
 253.311523438 48.125 275.903320312 56.228515625 296.724609375 71.845703125 c 1
 306.3125 58.359375 l 1
 284.612304688 19.783203125 209.697265625 -9.224609375 141.001953125 -9.224609375 c 0
 87.17578125 -9.224609375 42 15.310546875 42 48.189453125 c 0xf0
 42 69.650390625 49.8779296875 104.639648438 60.16015625 143.9453125 c 0
 108.484375 350.796875 l 1
 113.776367188 375.711914062 130.663085938 438.875 130.897460938 448.654296875 c 1
 130.897460938 455.403320312 125.799804688 458.825195312 120.141601562 458.825195312 c 0
 101.993164062 458.825195312 88.4931640625 451.455078125 71.2158203125 434.817382812 c 1
 58.294921875 449.497070312 l 1
 81.7685546875 486.53515625 135.239257812 513.075195312 213.041015625 513.075195312 c 0
 260.26171875 513.075195312 310.678710938 502.29296875 310.874023438 474.575195312 c 1xe8
EndSplineSet
EndChar

StartChar: period
Encoding: 46 46 33
GlifName: period
Width: 294
VWidth: 0
Flags: W
HStem: -18 177.629<68.9782 150.923>
VStem: 24.1436 172.381<26.5302 115.128>
LayerCount: 2
Fore
SplineSet
128.75 159.62890625 m 4
 169.255859375 159.62890625 196.524414062 127.986328125 196.524414062 88.5205078125 c 4
 196.524414062 27.98828125 141.311523438 -18 92 -18 c 4
 50.5009765625 -18 24.1435546875 13.3544921875 24.1435546875 52.4267578125 c 4
 24.1435546875 113.110351562 77.53125 159.62890625 128.75 159.62890625 c 4
EndSplineSet
EndChar

StartChar: comma
Encoding: 44 44 34
GlifName: comma
Width: 325
VWidth: 0
Flags: W
HStem: -98.332 34.5938<20.5576 68.4114>
VStem: 96.0049 136.066<-26.9014 122.398>
LayerCount: 2
Fore
SplineSet
166 164 m 4
 206.920898438 164 232.071289062 132.4140625 232.071289062 97.61328125 c 4
 232.071289062 -25.1259765625 132.759765625 -98.33203125 49.3408203125 -98.33203125 c 4
 20.5576171875 -98.33203125 l 5
 6.55859375 -63.73828125 l 5
 21.6357421875 -63.73828125 l 4
 43.26171875 -63.73828125 96.0048828125 -37.62890625 96.0048828125 -16.173828125 c 4
 96.0048828125 11.8525390625 60.146484375 21.4619140625 60.146484375 61.4462890625 c 4
 60.146484375 120.323242188 116.513671875 164 166 164 c 4
EndSplineSet
EndChar

StartChar: D
Encoding: 68 68 35
GlifName: D_
Width: 867
VWidth: 0
Flags: W
HStem: -3 51<324.079 490.502> 0 34<66.9004 114.839> 678 52<464.152 590.079> 696 34<227.9 247.209>
VStem: 688.703 186.287<312.291 571.351>
LayerCount: 2
Fore
SplineSet
216.291015625 696 m 1x58
 215.900390625 696 215.100585938 698.6875 215.100585938 702.434570312 c 0
 215.100585938 705.340820312 214.58203125 710.884765625 216.291992188 714.3046875 c 0
 220.291992188 722.3046875 227.900390625 730 227.900390625 730 c 1
 451.358398438 730 l 0
 501.666992188 730 512.0703125 731 561.546875 731 c 0
 728.759765625 731 874.990234375 641.958007812 874.990234375 467.926757812 c 0
 874.990234375 170.607421875 684.869140625 -3 417.412109375 -3 c 0
 409.182617188 -3 l 0x98
 397.892578125 -3 376.303710938 -2.0537109375 374.9921875 -1.99609375 c 1
 371.638671875 -1.9248046875 281.07421875 0 265.166015625 0 c 0
 52.900390625 0 l 1
 52.900390625 0 52.1005859375 2.6875 52.1005859375 6.4345703125 c 0
 52.1005859375 9.3408203125 52.58203125 14.884765625 54.2919921875 18.3046875 c 0
 58.2919921875 26.3046875 66.900390625 34 66.900390625 34 c 1
 70.9658203125 34 l 0
 79.0859375 34 86.072265625 34.9921875 93.39453125 36.78515625 c 1
 109.79296875 40.1669921875 116.696289062 50.6171875 119.15625 61.056640625 c 1
 148.180664062 176.741210938 167 268 198.897460938 402.796875 c 24
 224 509 237.39453125 570.759765625 258 662 c 1
 258.466796875 663.926757812 259.669921875 671.614257812 259.669921875 673.3125 c 0
 259.669921875 683.58203125 256.868164062 691.674804688 247.49609375 694.223632812 c 0
 241.384765625 695.885742188 235 696 226.513671875 696 c 2
 216.291015625 696 l 1x58
464.125976562 671.872070312 m 1
 461.055664062 656.779296875 l 1
 411.592773438 450.930664062 324.873046875 59.30859375 324.873046875 59.30859375 c 1
 324.16015625 55.693359375 323.751953125 52.42578125 323.751953125 50.5869140625 c 0
 323.751953125 48.8671875 324.071289062 48.12890625 324.071289062 48.126953125 c 1
 324.208007812 48.037109375 326.409179688 47.30859375 329.356445312 47.0029296875 c 1
 375.361328125 48 l 1
 393.923828125 48 l 4
 596.946289062 48 688.703125 260.383789062 688.703125 480.3828125 c 4
 688.703125 626.278320312 591.013671875 678 493.255859375 678 c 4
 471.444335938 678 l 0xa8
 468.2578125 678 464.63671875 674.787109375 464.125976562 671.872070312 c 1
EndSplineSet
EndChar

StartChar: N
Encoding: 78 78 36
GlifName: N_
Width: 844
VWidth: 0
Flags: W
HStem: -9 21G<632.969 642.823> 0 34<7.5 33.0339 180.051 196.9> 696 34<176.5 193.778 709.5 726.788 856.891 883.9>
LayerCount: 2
Fore
SplineSet
696.900390625 696 m 1x60
 696.900390625 696 696.100585938 698.6875 696.100585938 702.434570312 c 0
 696.100585938 705.340820312 696.58203125 710.884765625 698.291992188 714.3046875 c 0
 702.291992188 722.3046875 709.5 730 709.5 730 c 1
 897.400390625 730 l 1
 897.400390625 730 899.239257812 726.947265625 899.239257812 724.005859375 c 0
 899.239257812 720.961914062 898.85546875 715.963867188 897.291992188 712.3046875 c 0
 893.935546875 704.447265625 883.900390625 696 883.900390625 696 c 1
 879.965820312 696 l 0
 872.034179688 696 863.431640625 695.266601562 856.568359375 693.221679688 c 0
 841.708984375 688.794921875 831.9921875 672.876953125 828.723632812 661.663085938 c 1
 804.809570312 569.8515625 782.383789062 490.869140625 758.78515625 398.501953125 c 0
 725.478515625 268.13671875 690.53125 136.99609375 657.563476562 5.68359375 c 0
 655.178710938 -3.814453125 646.52734375 -9 639.118164062 -9 c 0xa0
 626.8203125 -9 622.53515625 3.46484375 622.53515625 3.46484375 c 1
 497.467773438 207.393554688 408.029296875 343.072265625 284.81640625 545.537109375 c 1
 272.966796875 494.833007812 249.516601562 400.055664062 237.782226562 350.41015625 c 1
 196.79296875 170.456054688 l 1
 188.817382812 134.564453125 178.688476562 102.887695312 170.879882812 67.845703125 c 1
 170.787109375 67.001953125 169.547851562 60.357421875 169.547851562 57.662109375 c 0
 169.547851562 50.646484375 170.521484375 39.326171875 179.776367188 36.7626953125 c 0
 185.595703125 35.150390625 193.90625 34 201.965820312 34 c 0
 210.930664062 34 l 1
 210.930664062 34 212.239257812 30.947265625 212.239257812 28.005859375 c 0
 212.239257812 24.9619140625 211.85546875 19.9638671875 210.291992188 16.3046875 c 0
 206.935546875 8.447265625 196.900390625 0 196.900390625 0 c 1
 -5 0 l 1
 -5 0 -5.8994140625 2.6875 -5.8994140625 6.4345703125 c 0
 -5.8994140625 9.3408203125 -5.41796875 14.884765625 -3.7080078125 18.3046875 c 0
 0.2919921875 26.3046875 7.5 34 7.5 34 c 1
 10.9658203125 34 l 0
 19.0859375 34 25.6845703125 34.703125 33.39453125 36.78515625 c 0
 49 41 60.63671875 62.3037109375 64.1513671875 73.974609375 c 1
 64.1513671875 73.974609375 113.826171875 267.271484375 144.140625 399.83203125 c 0
 168.715820312 507.296875 202.08984375 659.870117188 202.08984375 659.870117188 c 1
 202.08984375 659.870117188 204.877929688 671.6328125 204.877929688 673.350585938 c 0
 204.877929688 682.392578125 202.625 685.377929688 194.041992188 691.3046875 c 0
 188.459960938 695.159179688 179.984375 696 171.965820312 696 c 0
 163.900390625 696 l 1
 163.900390625 696 163.100585938 700.6875 163.100585938 704.434570312 c 0
 163.100585938 707.340820312 163.58203125 710.884765625 165.291992188 714.3046875 c 0
 169.291992188 722.3046875 176.5 730 176.5 730 c 1
 366.932617188 730 l 1
 637 299 l 1
 737.090820312 662.33984375 l 1
 737.090820312 662.33984375 738.78515625 669.807617188 738.78515625 671.30859375 c 0
 738.78515625 678.943359375 737.638671875 687.533203125 727.041992188 692.26953125 c 0
 721.6640625 694.672851562 713.984375 696 705.965820312 696 c 0
 696.900390625 696 l 1x60
EndSplineSet
EndChar

StartChar: L
Encoding: 76 76 37
GlifName: L_
Width: 655
VWidth: 0
Flags: W
HStem: 0 39<11.5 36.1149 252.606 498.716> 696 34<177.5 195.981 419.471 448.9>
LayerCount: 2
Fore
SplineSet
-1 0 m 1
 -1 0 -1.8994140625 2.6875 -1.8994140625 6.4345703125 c 0
 -1.8994140625 9.3408203125 -1.41796875 14.884765625 0.2919921875 18.3046875 c 0
 4.2919921875 26.3046875 11.5 34 11.5 34 c 1
 21.9765625 34.966796875 27.0439453125 34.3662109375 36.5576171875 36.232421875 c 0
 52.6494140625 39.5537109375 61.701171875 60.0654296875 64.15625 70.4921875 c 1
 93.171875 186.241210938 119.682617188 287.834960938 146.829101562 403.47265625 c 0
 168.506835938 495.814453125 186.1171875 571.736328125 206.1328125 662.982421875 c 1
 206.586914062 664.912109375 207.78515625 671.602539062 207.78515625 673.299804688 c 0
 207.78515625 680.688476562 206.202148438 687.775390625 196.245117188 692.25 c 0
 190.623046875 694.776367188 184.850585938 696 176.965820312 696 c 0
 164.900390625 696 l 1
 164.900390625 696 164.100585938 698.6875 164.100585938 702.434570312 c 0
 164.100585938 705.340820312 164.58203125 710.884765625 166.291992188 714.3046875 c 0
 170.291992188 722.3046875 177.5 730 177.5 730 c 1
 462.930664062 730 l 5
 462.930664062 730 464.239257812 726.947265625 464.239257812 724.005859375 c 4
 464.239257812 720.961914062 463.85546875 715.963867188 462.291992188 712.3046875 c 4
 458.935546875 704.447265625 448.900390625 696 448.900390625 696 c 5
 445.965820312 696 l 6
 434 696 426.677734375 695.326171875 419.116210938 692.395507812 c 4
 406.098632812 687.350585938 396.126953125 669.909179688 393.775390625 659.931640625 c 5
 368.749023438 567.76171875 352.869140625 490.75 331.783203125 398.756835938 c 4
 305.680664062 284.87890625 281.844726562 184.672851562 256.235351562 70.9912109375 c 5
 255.79296875 69.294921875 252.602539062 58.7763671875 252.602539062 57.2099609375 c 4
 252.602539062 49.517578125 256.955078125 43.1142578125 268.645507812 41.8935546875 c 4
 288.518554688 39.9345703125 297.861328125 39 318.538085938 39 c 4
 381.3671875 39 427.498046875 40.0634765625 472.635742188 49.80078125 c 5
 533.107421875 64.2509765625 561.080078125 100.024414062 586.54296875 158.783203125 c 4
 588.248046875 162.71875 l 5
 619.057617188 164.64453125 l 5
 562.931640625 0 l 5
 -1 0 l 1
EndSplineSet
EndChar

StartChar: M
Encoding: 77 77 38
GlifName: M_
Width: 940
VWidth: 0
Flags: W
HStem: 0 34<3.5 32.3445 165.455 182.9 542.5 568.411 803.38 818.821> 696 34<172.5 201.684 956.18 984.9>
LayerCount: 2
Fore
SplineSet
998.791015625 730 m 1
 998.791015625 730 1000.23925781 726.947265625 1000.23925781 724.005859375 c 0
 1000.23925781 720.961914062 999.85546875 715.963867188 998.291992188 712.3046875 c 0
 994.935546875 704.447265625 984.900390625 696 984.900390625 696 c 5
 980.356445312 696 l 4
 972.379882812 696 964.267578125 694.004882812 955.782226562 692.1796875 c 4
 941 689 932.576171875 674.1015625 929.169921875 660.920898438 c 4
 913.501953125 600.291992188 909 564 892.1796875 492.768554688 c 24
 853 321 829.169921875 218.875976562 793.23828125 73.24609375 c 1
 793.23828125 73.24609375 791.611328125 61.33203125 791.611328125 59.3115234375 c 0
 791.611328125 52.341796875 792.73046875 41.7734375 803.053710938 37.75390625 c 0
 809.981445312 35.056640625 819.336914062 34 827.356445312 34 c 0
 832.930664062 34 l 1
 832.930664062 34 834.239257812 30.947265625 834.239257812 28.005859375 c 0
 834.239257812 24.9619140625 833.85546875 19.9638671875 832.291992188 16.3046875 c 0
 828.935546875 8.447265625 818.821289062 0 818.821289062 0 c 1
 530.390625 0 l 1
 530.390625 0 529.100585938 2.6875 529.100585938 6.4345703125 c 0
 529.100585938 9.3408203125 529.58203125 16.884765625 531.291992188 20.3046875 c 0
 535.291992188 28.3046875 542.5 34 542.5 34 c 1
 545.356445312 34 l 0
 553.4765625 34 560.797851562 34.4765625 568.78515625 36.8232421875 c 0
 583 41 596.083984375 60.9521484375 598.549804688 71.6357421875 c 1
 614.552734375 135.6484375 627.755859375 185.66796875 643.541015625 249.598632812 c 0
 663.547851562 330.627929688 673.026367188 364.9140625 692.665039062 446.93359375 c 1
 700.06640625 477.017578125 705.453125 508.813476562 711.828125 536.376953125 c 1
 430.172851562 149.015625 l 1
 427.021484375 144.463867188 413.374023438 127 400.541015625 127 c 0
 389.709960938 127 374.608398438 141.337890625 373.038085938 149.571289062 c 0
 373.038085938 149.571289062 294.087890625 449.831054688 270 555 c 1
 156.216796875 73.564453125 l 1
 155.733398438 70.5595703125 154.002929688 60.375 153.978515625 60.0947265625 c 1
 154.245117188 50.9267578125 154.715820312 43.51171875 165.166992188 37.7626953125 c 0
 171.266601562 34.4072265625 180.2421875 34 188.356445312 34 c 0
 196.610351562 34 l 1
 196.610351562 34 198.239257812 30.947265625 198.239257812 28.005859375 c 0
 198.239257812 24.9619140625 197.85546875 19.9638671875 196.291992188 16.3046875 c 0
 192.935546875 8.447265625 182.900390625 0 182.900390625 0 c 1
 -8.609375 0 l 1
 -8.609375 0 -9.8994140625 2.6875 -9.8994140625 6.4345703125 c 0
 -9.8994140625 9.3408203125 -9.41796875 16.884765625 -7.7080078125 20.3046875 c 0
 -3.7080078125 28.3046875 3.5 34 3.5 34 c 1
 7.3564453125 34 l 0
 15.4765625 34 23.3603515625 34.4921875 32.78515625 36.78515625 c 0
 46 40 57.1181640625 62.12890625 59.62890625 74.306640625 c 1
 114.54296875 277.736328125 149.583984375 452.649414062 199.573242188 659.288085938 c 5
 200.404296875 662.434570312 202.181640625 672.478515625 202.181640625 673.596679688 c 4
 202.181640625 692.055664062 188 696 168.356445312 696 c 6
 159.900390625 696 l 5
 159.900390625 696 159.100585938 698.6875 159.100585938 702.434570312 c 4
 159.100585938 705.340820312 159.58203125 710.884765625 161.291992188 714.3046875 c 0
 165.291992188 722.3046875 172.5 730 172.5 730 c 1
 403.95703125 730 l 1
 494 384 l 1
 747.692382812 730 l 1
 998.791015625 730 l 1
EndSplineSet
EndChar

StartChar: slash
Encoding: 47 47 39
GlifName: slash
Width: 612
VWidth: 0
Flags: W
LayerCount: 2
Fore
SplineSet
31.16796875 -112.333984375 m 2
 198.046875 180.491210938 327.111328125 428.126953125 459.365234375 697.880859375 c 0
 460.159179688 699.5 l 1
 461.635742188 700.534179688 l 0
 483.220703125 715.643554688 521.046875 722.799804688 535 722.799804688 c 0
 548.04296875 722.799804688 578.552734375 714.983398438 578.552734375 701.264648438 c 0
 578.552734375 698.67578125 578.2109375 696.000976562 577.5703125 693.225585938 c 0
 577.344726562 692.247070312 l 1
 576.852539062 691.37109375 l 0
 430.549804688 430.930664062 171.600585938 -69.10546875 166.6484375 -78.6708984375 c 1
 146.598632812 -133.38671875 73.0029296875 -110.087890625 39.669921875 -122.368164062 c 0
 21.6708984375 -129 l 1
 31.16796875 -112.333984375 l 2
EndSplineSet
Validated: 1
EndChar

StartChar: S
Encoding: 83 83 40
GlifName: S_
Width: 604
VWidth: 0
Flags: W
HStem: -10 54<175.478 304.688> 691 51<370.484 488.569>
VStem: 11.0117 101.85<87.34 169.947> 103.27 204.569<507.311 607.523> 359.903 198.317<145.186 257.054>
LayerCount: 2
Fore
SplineSet
112.861328125 180.626953125 m 0xe8
 112.861328125 138.073242188 158.295898438 44 235.638671875 44 c 0
 324.51953125 44 359.903320312 121.685546875 359.903320312 194.548828125 c 0
 359.903320312 246.198242188 304.8984375 311.314453125 244.63671875 359.1640625 c 0
 181.815429688 409.045898438 103.26953125 443.823242188 103.26953125 535.592773438 c 0
 103.26953125 665.251953125 283.555664062 742 448.1875 742 c 0
 536.705078125 742 615.034179688 715.724609375 615.034179688 688.426757812 c 0
 615.034179688 687.435546875 615.170898438 686.548828125 614.71875 684.508789062 c 1
 611.732421875 670.576171875 581.025390625 589 560.87890625 589 c 0
 528.227539062 589 509.413085938 691 435.212890625 691 c 0
 367.538085938 691 307.838867188 624.690429688 307.838867188 558.649414062 c 0xd8
 307.838867188 507.936523438 360.014648438 479.572265625 414.76953125 435.62890625 c 0
 488.069335938 376.801757812 558.220703125 320.463867188 558.220703125 243.133789062 c 0
 558.220703125 140.840820312 497.83984375 75.7861328125 441.64453125 37.41015625 c 0
 396.69921875 6.53125 331.526367188 -10 244.106445312 -10 c 0
 84.0791015625 -10 11.01171875 61.662109375 11.01171875 109.758789062 c 0
 11.01171875 113.158203125 11.333984375 116.357421875 12.0595703125 119.579101562 c 1
 17.6240234375 142.94921875 77.1435546875 214 99.87890625 214 c 0
 100.141601562 214 114.075195312 210.844726562 114.075195312 201.40234375 c 0
 114.075195312 199.831054688 114.015625 200.181640625 113.65234375 197.564453125 c 1
 113.28125 194.149414062 112.861328125 186.104492188 112.861328125 180.626953125 c 0xe8
EndSplineSet
EndChar

StartChar: T
Encoding: 84 84 41
GlifName: T_
Width: 733
VWidth: 0
Flags: W
HStem: 0 30<125.5 172.321 380.212 397.9> 691 39<172.495 316.478 517.082 692.147>
VStem: 82 31.7549<586 606.558> 696.271 56.9092<629.687 731.919>
LayerCount: 2
Fore
SplineSet
411.930664062 30 m 1
 411.930664062 30 413.239257812 26.947265625 413.239257812 24.005859375 c 0
 413.239257812 20.9619140625 412.85546875 17.9638671875 411.291992188 14.3046875 c 0
 407.935546875 6.447265625 397.900390625 0 397.900390625 0 c 1
 112.900390625 0 l 1
 112.900390625 0 112.100585938 2.6875 112.100585938 6.4345703125 c 0
 112.100585938 9.3408203125 112.58203125 12.884765625 114.291992188 16.3046875 c 0
 118.291992188 24.3046875 125.5 30 125.5 30 c 1
 130.051757812 30 l 2
 138 30 148.681640625 31.466796875 156.900390625 35.6044921875 c 0
 169.672851562 42.0341796875 176.888671875 46.083984375 179.243164062 56.076171875 c 1
 202.25 147.188476562 224.24609375 239.232421875 246.2265625 330.233398438 c 1
 322.3984375 659.880859375 l 1
 323.181640625 663.580078125 326.021484375 675 326.021484375 678.33203125 c 3
 326.021484375 686.067382812 320.772460938 689.365234375 316.708984375 690.131835938 c 1
 311.84765625 690.896484375 302.359375 691 288.965820312 691 c 0
 261.211914062 691 225.614257812 687.993164062 196.30078125 683.112304688 c 0
 155.763671875 675.390625 121 614 113.754882812 586 c 1
 82 586 l 1
 130.619140625 728.787109375 l 2
 132.998046875 733.571289062 137.548828125 736 142.051757812 736 c 0
 149.1875 736 161.857421875 734 168.154296875 734 c 1
 202.384765625 732.993164062 318.600585938 730 435.728515625 730 c 1
 539.462890625 731 619.227539062 731.993164062 703.926757812 735 c 1
 706.973632812 735 729.978515625 737 737.051757812 737 c 0
 739.971679688 737 753.1796875 735.201171875 753.1796875 727.971679688 c 0
 753.1796875 724.999023438 752.224609375 721.821289062 751.829101562 720.25 c 1
 717 586 l 1
 687.752929688 585.504882812 l 1
 689.28515625 593.915039062 696.270507812 618.366210938 696.270507812 641.0078125 c 0
 696.270507812 669.51953125 691.463867188 681.9453125 675.338867188 685.211914062 c 0
 652.165039062 689.90625 648.83203125 691 596.865234375 691 c 0
 580.561523438 691 557.904296875 690 539.984375 690 c 0
 521.446289062 690 514.620117188 667.23046875 511.8515625 655.90625 c 1
 482.767578125 541.204101562 462.922851562 461.9609375 433.3125 327.142578125 c 0
 410 221 399 176 372.883789062 68.9921875 c 0
 372.3671875 66.875 371.232421875 59.376953125 371.232421875 57.6806640625 c 0
 371.232421875 50.162109375 371.874023438 39.80078125 379.974609375 34.6953125 c 0
 384.951171875 31.55859375 395.032226562 30 403.051757812 30 c 0
 411.930664062 30 l 1
EndSplineSet
EndChar

StartChar: Q
Encoding: 81 81 42
GlifName: Q_
Width: 830
VWidth: 0
Flags: W
HStem: -147 49<402.252 524.244> 681 52<410.169 570.704>
VStem: 40.1045 203.056<131.928 400.096> 242.638 137.079<-76.4881 -13.7071> 640.553 181.017<330.337 577.98>
LayerCount: 2
Fore
SplineSet
493.475585938 681 m 0xe8
 286.571289062 681 243.16015625 395.0078125 243.16015625 240.567382812 c 0
 243.16015625 92.1767578125 316.154296875 50 373.188476562 50 c 0
 464.256835938 50 640.552734375 178.624023438 640.552734375 487.700195312 c 0
 640.552734375 591.044921875 604.65234375 681 493.475585938 681 c 0xe8
40.1044921875 236.560546875 m 0
 40.1044921875 583.561523438 277.501953125 733 510.052734375 733 c 0
 692.0625 733 821.569335938 641.9453125 821.569335938 470.434570312 c 0
 821.569335938 172.004882812 574 3 384.575195312 -14.455078125 c 1
 381.068359375 -22.8681640625 379.716796875 -29.6416015625 379.716796875 -36.5087890625 c 0
 379.716796875 -69.5732421875 405.999023438 -98 494.596679688 -98 c 0
 501.146484375 -98 509.471679688 -97 518.295898438 -97 c 0
 525.771484375 -97 l 1
 524.244140625 -142.5 l 1
 517.819335938 -142.979492188 l 0
 491.07421875 -144.975585938 467.216796875 -147 444.107421875 -147 c 0
 328.478515625 -147 242.637695312 -114.555664062 242.637695312 -36.1181640625 c 0xd8
 242.637695312 -27.720703125 243.893554688 -17.8798828125 245.7734375 -9.2919921875 c 1
 161.657226562 9.8544921875 40.1044921875 76.3291015625 40.1044921875 236.560546875 c 0
EndSplineSet
EndChar

StartChar: P
Encoding: 80 80 43
GlifName: P_
Width: 712
VWidth: 0
Flags: W
HStem: 0 34<24.5 49.5261 280.414 295.9> 265 67<356.258 467.407> 686 46<409.772 513.605> 696 34<193.5 212.019>
VStem: 557.987 171.574<438.92 635.726>
LayerCount: 2
Fore
SplineSet
180.900390625 696 m 1xd8
 180.900390625 696 180.100585938 698.6875 180.100585938 702.434570312 c 0
 180.100585938 705.340820312 180.58203125 710.884765625 182.291992188 714.3046875 c 0
 186.291992188 722.3046875 193.5 730 193.5 730 c 1
 219.56640625 730 l 0xd8
 281.74609375 730 423.235351562 732 484.69140625 732 c 0
 608.51171875 732 729.561523438 677.30859375 729.561523438 557.904296875 c 0
 729.561523438 329.966796875 544.546875 265 407.331054688 265 c 0
 395.46484375 265 383.801757812 265.030273438 373.361328125 267.03515625 c 0
 363.362304688 268.955078125 353.825195312 286.434570312 353.825195312 298.67578125 c 4
 353.825195312 313.155273438 364.768554688 332 379.279296875 332 c 0
 483.993164062 332 557.987304688 391.884765625 557.987304688 565.352539062 c 0
 557.987304688 639.185546875 516.009765625 686 451.172851562 686 c 0
 414.376953125 686 l 1xe8
 389.514648438 586.432617188 369.639648438 493.705078125 347.661132812 394.677734375 c 0
 322.41015625 280.905273438 298.634765625 180.669921875 270.640625 66.0146484375 c 1
 270.213867188 64.267578125 269.040039062 58.796875 269.040039062 57.3056640625 c 0
 269.040039062 51.8525390625 269.856445312 41.16015625 280.124023438 36.7255859375 c 0
 286.26953125 34.0712890625 294.737304688 34 303.137695312 34 c 0
 309.930664062 34 l 1
 309.930664062 34 311.239257812 30.947265625 311.239257812 28.005859375 c 0
 311.239257812 24.9619140625 310.85546875 19.9638671875 309.291992188 16.3046875 c 0
 305.935546875 8.447265625 295.900390625 0 295.900390625 0 c 1
 11.900390625 0 l 1
 11.900390625 0 11.1005859375 2.6875 11.1005859375 6.4345703125 c 0
 11.1005859375 9.3408203125 11.58203125 14.884765625 13.2919921875 18.3046875 c 0
 17.2919921875 26.3046875 24.5 34 24.5 34 c 1
 27.4345703125 34 l 0
 35.53125 34 42.6484375 34.0185546875 49.8642578125 35.78515625 c 1
 66.087890625 39.130859375 79.095703125 60.3203125 81.625 71.056640625 c 1
 110.631835938 186.669921875 130.752929688 267.2890625 161.567382812 401.788085938 c 0
 185.086914062 504.4453125 218.845703125 650.220703125 218.845703125 650.220703125 c 1
 219.650390625 653.82421875 223.196289062 669.216796875 223.196289062 673.049804688 c 0
 223.196289062 683.232421875 220.211914062 688.322265625 212.221679688 693.345703125 c 0
 208 696 197.784179688 696 189.514648438 696 c 0
 180.900390625 696 l 1xd8
EndSplineSet
EndChar

StartChar: R
Encoding: 82 82 44
GlifName: R_
Width: 759
VWidth: 0
Flags: W
HStem: 0 34<5.5 36.1204 263.045 270.9 588.585 711.856> 352.555 46.4453<331.084 414.862> 696 34<175.5 205.169 395.457 479.729>
VStem: 455.584 188.901<40.0968 234.04> 467.715 190.51<98.0253 293.967> 525.969 179.635<487.758 656.115>
LayerCount: 2
Fore
SplineSet
162.900390625 696 m 1xe8
 162.900390625 696 162.100585938 698.6875 162.100585938 702.434570312 c 0
 162.100585938 705.340820312 162.58203125 710.884765625 164.291992188 714.3046875 c 0
 168.291992188 722.3046875 175.5 730 175.5 730 c 1
 203.158203125 730 l 0
 265.181640625 730 406.668945312 734 468.286132812 734 c 0
 590.603515625 734 705.603515625 691.567382812 705.603515625 588.39453125 c 0xe4
 705.603515625 459.518554688 623.1484375 392.076171875 509.185546875 366.200195312 c 1
 586.819335938 350.635742188 658.224609375 301.362304688 658.224609375 234.170898438 c 0xe8
 658.224609375 231.372070312 658.133789062 228.547851562 657.952148438 225.698242188 c 0
 654.349609375 169.302734375 647.627929688 152.368164062 644.951171875 111.251953125 c 0
 644.63671875 106.4140625 644.485351562 101.94921875 644.485351562 97.83203125 c 0
 644.485351562 62.8544921875 654.41015625 35.9287109375 677.6875 35.9287109375 c 0
 689.098632812 35.9287109375 705.489257812 39.5888671875 710.834960938 42.2607421875 c 1
 714.264648438 9.388671875 l 0
 690.817382812 1.232421875 625.786132812 -4.916015625 586.97265625 -5 c 1
 523.21875 -5 455.583984375 35.599609375 455.583984375 78.4169921875 c 0xf0
 455.583984375 80.044921875 455.616210938 82.564453125 455.694335938 84.3046875 c 0
 457.78515625 130.469726562 462.6875 198.96484375 466.188476562 233.676757812 c 0
 466.54296875 237.182617188 467.71484375 248.548828125 467.71484375 251.783203125 c 0
 467.71484375 317.846679688 410.625 345.592773438 321.491210938 352.5546875 c 1
 252.188476562 66.4609375 l 0
 251.83203125 64.9384765625 249.661132812 56.5126953125 249.661132812 55.1982421875 c 0
 249.661132812 48.1015625 251.135742188 40.55859375 262.75390625 36.7626953125 c 0
 268.936523438 34.7431640625 276.299804688 34 284.930664062 34 c 1
 284.930664062 34 286.239257812 30.947265625 286.239257812 28.005859375 c 0
 286.239257812 24.9619140625 285.85546875 19.9638671875 284.291992188 16.3046875 c 0
 280.935546875 8.447265625 270.900390625 0 270.900390625 0 c 1
 -7.099609375 0 l 1
 -7.099609375 0 -7.8994140625 2.6875 -7.8994140625 6.4345703125 c 0
 -7.8994140625 9.3408203125 -7.41796875 14.884765625 -5.7080078125 18.3046875 c 0
 -1.7080078125 26.3046875 5.5 34 5.5 34 c 1
 10.9658203125 34 l 0
 19.0859375 34 30.6357421875 35.8037109375 36.39453125 37.78515625 c 0
 49.5556640625 42.3125 60.697265625 60.6220703125 63.154296875 71.05078125 c 1
 93.1806640625 187.720703125 118.393554688 288.891601562 145.196289062 405.701171875 c 0
 164.98046875 491.922851562 181.739257812 562.056640625 200.426757812 648.19140625 c 1
 201.24609375 651.864257812 205.6484375 669.500976562 205.6484375 674.032226562 c 0
 205.6484375 685.7265625 199.973632812 689.561523438 193.305664062 692.212890625 c 0
 187.032226562 694.708007812 180.166015625 696 172.067382812 696 c 0
 162.900390625 696 l 1xe8
337.413085938 426.788085938 m 0
 335.234375 417.102539062 333.110351562 407.942382812 331.083984375 399.081054688 c 1
 340.124023438 399.049804688 347.818359375 399 356.30078125 399 c 0
 450.565429688 399 525.96875 454.325195312 525.96875 591.836914062 c 0
 525.96875 666.391601562 478.223632812 696 418.766601562 696 c 0
 399.017578125 696 l 1
 373.137695312 596.743164062 359.579101562 525.3203125 337.413085938 426.788085938 c 0
EndSplineSet
EndChar

StartChar: U
Encoding: 85 85 45
GlifName: U_
Width: 804
VWidth: 0
Flags: W
HStem: -9.65527 59<303.932 476.389> 696 34<123.5 152.672 373.991 401.9 681.5 711.34 836.912 861.9>
VStem: 52.5527 196.081<107.984 324.317>
LayerCount: 2
Fore
SplineSet
874.931640625 730 m 1
 875.930664062 730 877.239257812 726.947265625 877.239257812 724.005859375 c 0
 877.239257812 720.961914062 876.85546875 715.963867188 875.291992188 712.3046875 c 0
 871.935546875 704.447265625 861.900390625 696 861.900390625 696 c 5
 856.965820312 696 l 6
 849 696 843.810546875 695.99609375 836.57421875 694.221679688 c 4
 819.768554688 690.557617188 808.982421875 674.58984375 805.728515625 661.663085938 c 4
 799.376953125 636.426757812 777.1328125 541.393554688 756.78515625 454.206054688 c 0
 737.784179688 372.787109375 725.814453125 313.470703125 717 279 c 0
 655.87890625 39.9677734375 550.748046875 -9.6552734375 370.362304688 -9.6552734375 c 0
 192.599609375 -9.6552734375 52.552734375 37.7685546875 52.552734375 206.389648438 c 0
 52.552734375 232.952148438 60.0185546875 262.327148438 67.5400390625 294.982421875 c 2
 151.162109375 661.131835938 l 6
 151.748046875 663.705078125 153.08203125 672.897460938 153.08203125 675.020507812 c 4
 153.08203125 683.96484375 148.311523438 689.619140625 141.364257812 692.220703125 c 4
 136.280273438 694.125 128 696 120.965820312 696 c 6
 110.900390625 696 l 5
 110.900390625 696 110.100585938 698.6875 110.100585938 702.434570312 c 4
 110.100585938 705.340820312 110.58203125 710.884765625 112.291992188 714.3046875 c 0
 116.291992188 722.3046875 123.5 730 123.5 730 c 1
 414.931640625 730 l 1
 414.931640625 730 417.239257812 726.947265625 417.239257812 724.005859375 c 0
 417.239257812 720.961914062 416.85546875 715.963867188 415.291992188 712.3046875 c 0
 411.935546875 704.447265625 401.900390625 696 401.900390625 696 c 5
 397.965820312 696 l 6
 390 696 382.58984375 695.069335938 373.569335938 692.223632812 c 4
 357.166992188 687.048828125 348.540039062 672.0859375 344.965820312 658.73046875 c 4
 342.374023438 650.49609375 342.102539062 648.130859375 339.782226562 638.41015625 c 4
 321.774414062 562.967773438 266.216796875 319.125 266.158203125 318.899414062 c 0
 254.131835938 267.598632812 248.633789062 228.087890625 248.633789062 192.962890625 c 0
 248.633789062 99.0966796875 298.290039062 49.3447265625 378.63671875 49.3447265625 c 0
 496.4609375 49.3447265625 580.278320312 119.833984375 627.494140625 308.358398438 c 0
 635.096679688 338.712890625 702.913085938 631.788085938 710.166992188 662.092773438 c 4
 710.772460938 664.622070312 712.0625 673.266601562 712.0625 674.861328125 c 4
 712.0625 681.078125 707.563476562 687.1015625 700.04296875 691.3046875 c 4
 693.079101562 695.197265625 694 696 685.965820312 696 c 6
 668.900390625 696 l 5
 668.900390625 696 668.100585938 698.6875 668.100585938 702.434570312 c 4
 668.100585938 705.340820312 668.58203125 710.884765625 670.291992188 714.3046875 c 0
 674.291992188 722.3046875 681.5 730 681.5 730 c 1
 874.931640625 730 l 1
EndSplineSet
EndChar

StartChar: J
Encoding: 74 74 46
GlifName: J_
Width: 376
VWidth: 0
Flags: W
HStem: 695.891 34<155.396 172.699 399.435 420.797>
LayerCount: 2
Fore
SplineSet
372.66796875 660.779296875 m 1
 357.668945312 600.736328125 338.735351562 520.0546875 316.689453125 422.846679688 c 0
 276.581054688 245.994140625 231.247070312 60.6416015625 225.889648438 37.9873046875 c 1
 190.765625 -99.2529296875 38.7998046875 -175 -172.91015625 -179.99609375 c 0
 -182 -180.288085938 l 1
 -171.029296875 -138.413085938 l 1
 -167.0703125 -137.2734375 l 0
 -34.9912109375 -100.340820312 8.0341796875 -66.12890625 47.2802734375 84.91015625 c 1
 54.7470703125 112.346679688 105.340820312 318.154296875 138.686523438 467.431640625 c 0
 156.9609375 549.239257812 170.032226562 602.821289062 182.032226562 657.905273438 c 0
 182.439453125 659.81640625 183.681640625 666.516601562 183.681640625 668.206054688 c 0
 183.681640625 679.333984375 182.896484375 684.890625 172.938476562 691.1953125 c 0
 167.862304688 694.409179688 160.909179688 695.890625 152.862304688 695.890625 c 0
 142.796875 695.890625 l 1
 142.796875 695.890625 141.997070312 698.578125 141.997070312 702.325195312 c 0
 141.997070312 705.231445312 142.478515625 710.775390625 144.188476562 714.1953125 c 0
 148.188476562 722.1953125 155.396484375 729.890625 155.396484375 729.890625 c 1
 434.827148438 729.890625 l 1
 434.827148438 729.890625 436.135742188 726.837890625 436.135742188 723.896484375 c 0
 436.135742188 720.852539062 435.751953125 715.854492188 434.188476562 712.1953125 c 0
 430.83203125 704.337890625 420.796875 695.890625 420.796875 695.890625 c 1
 414.862304688 695.890625 l 0
 411.192382812 695.890625 406.74609375 695.360351562 399.078125 693.036132812 c 0
 385.329101562 688.869140625 375.236328125 670.840820312 372.66796875 660.779296875 c 1
EndSplineSet
EndChar

StartChar: plus
Encoding: 43 43 47
GlifName: plus
Width: 415
VWidth: 0
Flags: W
HStem: 251.275 95.1992<57.0843 150.649 265.991 360.414>
LayerCount: 2
Fore
SplineSet
219.856445312 133.6015625 m 6
 217.39453125 121.288085938 180.787109375 119.674804688 170.962890625 119.674804688 c 4
 163.908203125 119.674804688 122.896484375 121.776367188 122.896484375 133.415039062 c 4
 122.896484375 136.7890625 124.9375 143.666992188 125.158203125 144.484375 c 4
 135.615234375 183.173828125 141.610351562 212.026367188 150.649414062 251.275390625 c 5
 57.814453125 251.275390625 l 5
 48.8642578125 254.856445312 47.240234375 264.2578125 47.240234375 271.978515625 c 4
 47.240234375 284.599609375 56.642578125 346.474609375 72.662109375 346.474609375 c 4
 164.512695312 346.474609375 l 4
 166.58984375 346.474609375 167.243164062 347.815429688 168.268554688 350.826171875 c 5
 192.284179688 454.477539062 l 5
 195.999023438 455.715820312 l 4
 205.724609375 458.95703125 234.7421875 461.325195312 243.412109375 461.325195312 c 4
 252.122070312 461.325195312 279.720703125 458.79296875 285.913085938 455.078125 c 4
 290.287109375 452.454101562 l 5
 265.9296875 347.287109375 l 4
 265.9296875 347.287109375 350.01953125 346.474609375 359.362304688 346.474609375 c 4
 368.091796875 346.474609375 369.1328125 334.150390625 369.1328125 331.103515625 c 4
 369.1328125 322.881835938 363.255859375 251.275390625 345.862304688 251.275390625 c 4
 249.762695312 251.275390625 l 6
 248.359375 251.275390625 247.419921875 250.338867188 247.206054688 249.451171875 c 6
 219.856445312 133.6015625 l 6
EndSplineSet
EndChar

StartChar: B
Encoding: 66 66 48
GlifName: B_
Width: 676
VWidth: 0
Flags: W
HStem: -2 45<230.378 356.582> 0 34<-6.09961 19.0515> 347 69<311.638 398.463> 690 44<371.657 454.006> 700 30<151.9 172.864>
VStem: 441.461 169.332<133.653 304.269> 483.036 161.642<505.396 662.088>
LayerCount: 2
Fore
SplineSet
138.970703125 700 m 1x6c
 138.970703125 700 138.100585938 702.6875 138.100585938 706.434570312 c 0
 138.100585938 709.340820312 138.58203125 712.884765625 140.291992188 716.3046875 c 0
 144.291992188 724.3046875 151.900390625 730 151.900390625 730 c 1
 183.555664062 730 l 0x6c
 245.834960938 730 386.017578125 734 447.95703125 734 c 0
 578.001953125 734 644.677734375 673.322265625 644.677734375 585.2265625 c 0x32
 644.677734375 483.217773438 552.583007812 418.801757812 465.15234375 390.651367188 c 1
 529.881835938 375.8984375 610.79296875 323.447265625 610.79296875 235.920898438 c 0
 610.79296875 68.1953125 482.671875 -2 343.577148438 -2 c 0xb4
 275.524414062 -2 156.282226562 0 60.9658203125 0 c 0
 -20.099609375 0 l 1
 -20.099609375 0 -20.8994140625 2.6875 -20.8994140625 6.4345703125 c 0
 -20.8994140625 9.3408203125 -20.41796875 14.884765625 -18.7080078125 18.3046875 c 0
 -14.7080078125 26.3046875 -6.099609375 34 -6.099609375 34 c 1
 -3.0341796875 34 l 0
 5.0859375 34 12.072265625 34.9921875 19.39453125 36.78515625 c 1
 35.79296875 40.1669921875 45.6962890625 60.6171875 48.15625 71.056640625 c 1
 78.1728515625 186.709960938 99.1455078125 288.18359375 126.284179688 403.7421875 c 0
 146.559570312 490.078125 180.849609375 653.2421875 180.849609375 653.2421875 c 1
 181.6484375 656.80078125 185 673.499023438 185 677 c 0
 185 689.966796875 180.611328125 696.005859375 173.1328125 698.345703125 c 1
 167.436523438 699.873046875 159.63671875 700 151.329101562 700 c 0
 138.970703125 700 l 1x6c
300.002929688 345.33984375 m 1
 234.171875 70.21875 l 2
 233.654296875 67.5478515625 230.375 53.7490234375 230.375 51.8388671875 c 0
 230.375 44.8115234375 234.380859375 44 240.671875 44 c 0
 256.653320312 44 264.310546875 43 279.642578125 43 c 0xa4
 395.526367188 43 441.4609375 143.081054688 441.4609375 233.940429688 c 0
 441.4609375 306.993164062 386.46875 347 342.533203125 347 c 0
 326.231445312 347 310.219726562 345.848632812 300.002929688 345.33984375 c 1
387.560546875 688.0546875 m 1
 378.288085938 687.03125 375.852539062 685 373.416992188 676.647460938 c 2
 335.873046875 517.655273438 l 1
 311.637695312 416 l 1
 337.314453125 416 l 0
 420.536132812 416 483.036132812 482.696289062 483.036132812 591.899414062 c 0
 483.036132812 653.010742188 451.466796875 690 416.16796875 690 c 0x32
 400.986328125 690 388.73828125 688.09765625 387.560546875 688.0546875 c 1
EndSplineSet
EndChar

StartChar: C
Encoding: 67 67 49
GlifName: C_
Width: 813
VWidth: 0
Flags: W
HStem: -10 60<336.639 523.734> 687 55<456.675 636.374>
VStem: 57.3896 206.309<135.849 402.241>
LayerCount: 2
Fore
SplineSet
566.452148438 742 m 4
 708.432617188 742 758.955078125 659 780.391601562 659 c 4
 797.96875 659 802.809570312 685 819.391601562 685 c 4
 825.2109375 685 832.2265625 679.325195312 832.2265625 670.500976562 c 4
 832.2265625 668.63671875 832.078125 665.924804688 831.631835938 663.588867188 c 5
 786.3125 462.138671875 l 5
 784.764648438 455.264648438 777.134765625 450.732421875 769.786132812 450.732421875 c 4
 764.865234375 450.732421875 756.391601562 456.616210938 756.391601562 466 c 4
 756.391601562 565.634765625 682.8359375 687 543.783203125 687 c 4
 344.002929688 687 263.698242188 432.790039062 263.698242188 237.337890625 c 4
 263.698242188 77.2353515625 355.991210938 50 412.1640625 50 c 4
 580.129882812 50 681.373046875 187.74609375 694 206 c 5
 732.4609375 182.655273438 l 5
 728.634765625 175.823242188 654.5859375 -10 394.951171875 -10 c 4
 250.068359375 -10 57.3896484375 37.263671875 57.3896484375 241.982421875 c 4
 57.3896484375 524.516601562 230.938476562 742 566.452148438 742 c 4
EndSplineSet
EndChar

StartChar: E
Encoding: 69 69 50
GlifName: E_
Width: 688
VWidth: 0
Flags: W
HStem: 0 39<33.9004 84.6478 276.217 470.359> 368 43<358.979 491.165> 695.564 34.4355<196.9 216.322 424.403 571.058>
VStem: 509.291 18.3457<308 330.267> 546.61 21.3408<441.871 470> 630.941 22.3652<567.498 618.457>
LayerCount: 2
Fore
SplineSet
185.173828125 695.564453125 m 1
 185.173828125 695.564453125 184.100585938 698.6875 184.100585938 702.434570312 c 0
 184.100585938 705.340820312 183.58203125 710.884765625 185.291992188 714.3046875 c 0
 189.291992188 722.3046875 196.900390625 730 196.900390625 730 c 1
 675.0625 730 l 1
 653.306640625 565.54296875 l 1
 630.94140625 567.498046875 l 1
 631.165039062 574.232421875 l 0
 631.248046875 576.751953125 631.291015625 579.20703125 631.291015625 581.59765625 c 0
 631.291015625 633.844726562 613.4921875 663.013671875 566.76171875 680.423828125 c 1
 539.770507812 689.819335938 545.069335938 691 499.440429688 691 c 0
 480.017578125 691 462.102539062 690.060546875 442.448242188 688.1171875 c 1
 428.681640625 686.501953125 421.751953125 677.43359375 419.475585938 668.87890625 c 1
 358.979492188 415.26171875 l 1
 387.564453125 413.263671875 406.654296875 411 434.578125 411 c 0
 470.163085938 411 476.928710938 411.374023438 506.782226562 416.909179688 c 0
 522.053710938 419.741210938 530.51171875 426.150390625 536.693359375 438.901367188 c 0
 541.446289062 449.1953125 544 459 546.610351562 470 c 1
 567.951171875 470 l 1
 527.63671875 308 l 1
 509.291015625 308 l 1
 510.896484375 315.703125 511.909179688 323.626953125 511.909179688 330.594726562 c 0
 511.909179688 335.385742188 511.4296875 339.724609375 510.3359375 343.229492188 c 0
 506.84765625 354.404296875 500.875 361.765625 492.43359375 363.090820312 c 0
 465.075195312 367.38671875 457.259765625 368 425.306640625 368 c 0
 395.6796875 368 371.265625 365.240234375 345.482421875 362.690429688 c 1
 276.881835938 63.9423828125 l 1
 276.4296875 62.0908203125 276.209960938 60.2734375 276.209960938 58.40625 c 0
 276.209960938 49.8056640625 286.33984375 43.0048828125 296.375 41.8916015625 c 0
 314.075195312 39.927734375 316.833007812 39 334.194335938 39 c 0
 394.364257812 39 401.7265625 40.0712890625 444.172851562 49.80078125 c 1
 504.216796875 64.2509765625 536.352539062 99.0244140625 562.73828125 157.783203125 c 0
 564.443359375 161.71875 l 1
 592.252929688 164.64453125 l 1
 534.353515625 0 l 1
 20.1953125 0 l 1
 20.1953125 0 19.1005859375 2.6875 19.1005859375 6.4345703125 c 0
 19.1005859375 9.3408203125 19.58203125 14.884765625 21.2919921875 18.3046875 c 0
 25.2919921875 26.3046875 33.900390625 34 33.900390625 34 c 1
 37.1611328125 33.435546875 l 0
 47.166015625 33.435546875 48.6455078125 33.470703125 57.7529296875 35.2578125 c 1
 73.837890625 38.580078125 82.90625 50.1435546875 85.33984375 60.490234375 c 0
 85.4150390625 60.80859375 l 1
 85.51953125 61.1181640625 l 0
 91.1357421875 77.6494140625 134.260742188 250.381835938 170.66015625 411.663085938 c 0
 198.756835938 536.155273438 221.858398438 632.321289062 226.890625 657.079101562 c 0
 230.657226562 675.850585938 l 0
 230.657226562 683.1328125 228.28125 691.857421875 216.67578125 693.78515625 c 0
 209.064453125 695.049804688 205.875 695.564453125 197.487304688 695.564453125 c 2
 185.173828125 695.564453125 l 1
EndSplineSet
EndChar

StartChar: F
Encoding: 70 70 51
GlifName: F_
Width: 683
VWidth: 0
Flags: W
HStem: 0 34<31.9004 61.0501 284.568 300.9> 350 42.9258<354.98 496.674> 696.588 33.4121<194.9 233.06 429.517 591.065>
VStem: 495.029 18.3086<290 317.261> 533.293 21.6436<424.739 452> 653.743 23.4189<567.466 618.739>
LayerCount: 2
Fore
SplineSet
316.880859375 34 m 1
 316.880859375 34 317.239257812 31.947265625 317.239257812 29.005859375 c 0
 317.239257812 25.9619140625 315.85546875 19.9638671875 314.291992188 16.3046875 c 0
 310.935546875 8.447265625 300.900390625 0 300.900390625 0 c 1
 18 0 l 1
 18 0 17.1005859375 2.6875 17.1005859375 6.4345703125 c 0
 17.1005859375 9.3408203125 17.58203125 14.884765625 19.2919921875 18.3046875 c 0
 23.2919921875 26.3046875 31.900390625 34 31.900390625 34 c 1
 36.9658203125 34 l 0
 45.0859375 34 54.072265625 34.9921875 61.39453125 36.787109375 c 1
 78.0478515625 41.224609375 86.751953125 59.88671875 89.2900390625 70.576171875 c 0
 95.0029296875 88.310546875 131.196289062 241.565429688 168.08203125 397.241210938 c 0
 199.252929688 528.798828125 228.33984375 657.5546875 228.3671875 657.67578125 c 1
 228.748046875 659.237304688 233.083984375 678.142578125 233.083984375 678.888671875 c 0
 233.083984375 686.162109375 229.553710938 692.267578125 218.168945312 694.799804688 c 1
 209.952148438 696.526367188 209.118164062 696.587890625 198.748046875 696.587890625 c 0
 183.44921875 696.587890625 l 1
 183.44921875 696.587890625 182.100585938 698.6875 182.100585938 702.434570312 c 0
 182.100585938 705.340820312 181.58203125 710.884765625 183.291992188 714.3046875 c 0
 187.291992188 722.3046875 194.900390625 730 194.900390625 730 c 1
 698.810546875 730 l 1
 677.162109375 565.571289062 l 1
 653.743164062 567.465820312 l 1
 653.969726562 574.234375 l 0
 654.065429688 577.10546875 654.114257812 579.907226562 654.114257812 582.635742188 c 0
 654.114257812 635.009765625 638.532226562 666.828125 591.075195312 680.259765625 c 1
 555.479492188 689.895507812 550.416992188 691 493.438476562 691 c 0
 473.998046875 691 464.16015625 690.064453125 444.415039062 688.106445312 c 0
 428.538085938 686.532226562 418.1015625 664.66796875 415.498046875 654.037109375 c 1
 354.98046875 396.326171875 l 1
 390.663085938 394.096679688 400.8046875 392.92578125 437.926757812 392.92578125 c 0
 483.961914062 392.92578125 503.470703125 394.19921875 519.39453125 418.90234375 c 0
 525.534179688 428.427734375 529 437 533.29296875 452 c 1
 554.936523438 452 l 1
 513.337890625 290 l 1
 495.029296875 290 l 1
 495.96875 300.352539062 497.076171875 312.377929688 497.076171875 327.229492188 c 0
 497.076171875 339.2421875 487.775390625 342.608398438 478.215820312 344.088867188 c 0
 451.212890625 348.26953125 438.091796875 350 406.209960938 350 c 0
 376.471679688 350 366.63671875 347.284179688 340.319335938 344.670898438 c 1
 318.178710938 248.196289062 300.650390625 168.109375 276.165039062 70.9794921875 c 0
 275.658203125 68.9697265625 274.471679688 62.2744140625 274.471679688 60.6201171875 c 0
 274.471679688 53.8525390625 274.892578125 41.5322265625 284.243164062 37.4921875 c 0
 291.184570312 34.4931640625 297 34 307.788085938 34 c 2
 316.880859375 34 l 1
EndSplineSet
EndChar

StartChar: G
Encoding: 71 71 52
GlifName: G_
Width: 805
VWidth: 0
Flags: W
HStem: -10 61<310.372 449.8> 284 25<531.146 564.576 739.114 781.276> 687 55<434.393 611.803>
VStem: 38.0381 203.656<136.929 404.079>
LayerCount: 2
Fore
SplineSet
775.810546875 284 m 2
 746.604492188 284 727.137695312 266.150390625 722.615234375 247.008789062 c 2
 703.607421875 167.037109375 l 1
 697.301757812 141.384765625 688.44921875 134.321289062 669.401367188 113.421875 c 1
 618.631835938 58.298828125 495.814453125 -10 353.389648438 -10 c 0
 232.360351562 -10 38.0380859375 36.73828125 38.0380859375 243.392578125 c 0
 38.0380859375 525.3203125 212.057617188 742 538.856445312 742 c 0
 680.833984375 742 720.374023438 658 741.810546875 658 c 0
 760.369140625 658 761.352539062 685 781.810546875 685 c 0
 790.383789062 685 797.481445312 676.6484375 797.481445312 669.293945312 c 0
 797.481445312 668.157226562 797.421875 667.37109375 797.201171875 665.998046875 c 1
 757 470 l 2
 755.54296875 462.967773438 749.291992188 451 739 451 c 0
 732.397460938 451 720.810546875 459.884765625 720.810546875 468 c 0
 720.810546875 567.634765625 659.254882812 687 520.188476562 687 c 0
 331.603515625 687 241.694335938 435.551757812 241.694335938 241.036132812 c 0
 241.694335938 97.5341796875 319.09765625 51 368.75390625 51 c 0
 453.435546875 51 540 125 550.698242188 172.711914062 c 1
 566.244140625 247.225585938 l 1
 566.716796875 249.159179688 567.91796875 258.815429688 567.91796875 260.501953125 c 0
 567.91796875 276.165039062 552.7421875 284 534.041015625 284 c 2
 525.350585938 284 l 1
 531.146484375 309 l 1
 788.776367188 309 l 1
 781.276367188 284 l 1
 775.810546875 284 l 2
EndSplineSet
EndChar

StartChar: K
Encoding: 75 75 53
GlifName: K_
Width: 729
VWidth: 0
Flags: W
HStem: 0 34<39.5 64.4975 293.602 310.9 457.5 483.486 696.217 723.431> 696 34<207.5 224.781 451.935 479.9 602.5 621.641 755.825 784.9>
LayerCount: 2
Fore
SplineSet
723.430664062 0 m 1
 445.53125 0 l 1
 445.53125 0 444.100585938 2.6875 444.100585938 6.4345703125 c 0
 444.100585938 9.3408203125 444.58203125 14.884765625 446.291992188 18.3046875 c 0
 450.291992188 26.3046875 457.5 34 457.5 34 c 1
 460.965820312 34 l 2
 467 34 476.247070312 34.8076171875 483.84375 36.9111328125 c 0
 495 40 503.90234375 51.125 503.90234375 64.119140625 c 0
 503.90234375 69.220703125 502.208007812 78.1923828125 497.538085938 88.220703125 c 0
 453.5625 182.658203125 423.391601562 235.63671875 376 329 c 1
 362.907226562 318.961914062 363.3203125 321.33984375 352 318 c 1
 287 78 l 2
 285.666992188 72.4306640625 283.09765625 63.4677734375 283.09765625 57.203125 c 0
 283.09765625 49.3056640625 284.9140625 39.87890625 293.227539062 36.890625 c 0
 301.205078125 34.0224609375 309.471679688 34 315.965820312 34 c 0
 324.930664062 34 l 1
 324.930664062 34 326.239257812 30.947265625 326.239257812 28.005859375 c 0
 326.239257812 24.9619140625 325.85546875 19.9638671875 324.291992188 16.3046875 c 0
 320.935546875 8.447265625 310.900390625 0 310.900390625 0 c 1
 26.900390625 0 l 1
 26.900390625 0 26.1005859375 2.6875 26.1005859375 6.4345703125 c 0
 26.1005859375 9.3408203125 26.58203125 14.884765625 28.2919921875 18.3046875 c 0
 32.2919921875 26.3046875 39.5 34 39.5 34 c 1
 42.9658203125 34 l 0
 49.15234375 34 57.4306640625 34.96875 64.845703125 35.875 c 1
 81.7802734375 39.7294921875 91.689453125 59.7900390625 95.142578125 71.0048828125 c 1
 125.1796875 186.73828125 149.131835938 288.125976562 176.137695312 403.732421875 c 0
 197.150390625 494.884765625 216.102539062 570.767578125 235.125 661.96875 c 1
 235.596679688 663.969726562 236.784179688 671.598632812 236.784179688 673.31640625 c 0
 236.784179688 679.102539062 235.2890625 685.874023438 225.041992188 691.3046875 c 0
 219.525390625 694.228515625 210.966796875 696 203.965820312 696 c 0
 194.900390625 696 l 1
 194.900390625 696 194.100585938 698.6875 194.100585938 702.434570312 c 0
 194.100585938 705.340820312 194.58203125 710.884765625 196.291992188 714.3046875 c 0
 200.291992188 722.3046875 207.5 730 207.5 730 c 1
 493.400390625 730 l 1
 493.400390625 730 495.239257812 726.947265625 495.239257812 724.005859375 c 0
 495.239257812 720.961914062 494.85546875 715.963867188 493.291992188 712.3046875 c 0
 489.935546875 704.447265625 479.900390625 696 479.900390625 696 c 1
 476.965820312 696 l 0
 469.885742188 696 460.02734375 694.796875 451.536132812 692.176757812 c 0
 438 688 427.131835938 670.590820312 424.786132812 660.427734375 c 0
 369.784179688 430.430664062 l 1
 386.078125 438.227539062 399.849609375 449.415039062 426.828125 474.754882812 c 1
 602.8671875 639.796875 l 1
 621.883789062 659.869140625 629.508789062 667.014648438 629.508789062 674.725585938 c 0
 629.508789062 679.627929688 628.512695312 684.962890625 621.814453125 690.095703125 c 0
 618.174804688 692.884765625 609.96875 696 601.965820312 696 c 0
 590.166992188 696 l 1
 590.166992188 696 589.100585938 698.6875 589.100585938 702.434570312 c 0
 589.100585938 705.340820312 589.58203125 710.884765625 591.291992188 714.3046875 c 0
 595.291992188 722.3046875 602.5 730 602.5 730 c 1
 798.930664062 730 l 1
 798.930664062 730 800.239257812 726.947265625 800.239257812 724.005859375 c 0
 800.239257812 720.961914062 799.85546875 715.963867188 798.291992188 712.3046875 c 0
 794.935546875 704.447265625 784.900390625 696 784.900390625 696 c 1
 781.965820312 696 l 0
 775.584960938 696 764.202148438 695.122070312 755.411132812 692.208984375 c 1
 743.533203125 688.881835938 729.314453125 668.829101562 714.095703125 652.928710938 c 1
 494 438 l 1
 521.298828125 389.77734375 l 1
 601.26953125 256.620117188 663.349500408 123.256788535 689.405273438 63.361328125 c 0
 696.848632812 46.2509765625 708 34 727.965820312 34 c 2
 736.930664062 34 l 1
 736.930664062 34 738.239257812 30.947265625 738.239257812 28.005859375 c 0
 738.239257812 24.9619140625 737.85546875 19.9638671875 736.291992188 16.3046875 c 0
 732.935546875 8.447265625 723.430664062 0 723.430664062 0 c 1
EndSplineSet
EndChar

StartChar: Y
Encoding: 89 89 55
GlifName: Y_
Width: 713
VWidth: 0
Flags: W
HStem: 0 34<136.866 167.003 379.89 406.742> 696 34<104.774 146.246 349.818 389.9 599.866 628.483 733.166 782.9>
LayerCount: 2
Fore
SplineSet
795.930664062 730 m 1
 796 730 798.239257812 726.947265625 798.239257812 724.005859375 c 0
 798.239257812 720.961914062 797.85546875 713.963867188 796.291992188 710.3046875 c 0
 792.935546875 702.447265625 782.900390625 696 782.900390625 696 c 1
 775.965820312 696 l 0
 744.868164062 696 729.798828125 676.883789062 720.229492188 665.806640625 c 1
 457.284179688 391.950195312 l 1
 444.563476562 346.952148438 436.243164062 302.263671875 425.67578125 256.681640625 c 0
 409.993164062 189.036132812 399.763671875 150.348632812 382.840820312 83.0654296875 c 1
 382.840820312 83.0654296875 378.146484375 66.572265625 378.146484375 60.6005859375 c 0
 378.146484375 45.677734375 388.697265625 34 410.186523438 34 c 0
 419 34 l 1
 419 34 421.239257812 30.947265625 421.239257812 28.005859375 c 0
 421.239257812 24.9619140625 420.85546875 19.9638671875 419.291992188 16.3046875 c 0
 415.935546875 8.447265625 406.7421875 0 406.7421875 0 c 1
 125 0 l 1
 124.900390625 0 124.100585938 2.6875 124.100585938 6.4345703125 c 0
 124.100585938 9.3408203125 124.58203125 14.884765625 126.291992188 18.3046875 c 0
 130.291992188 26.3046875 136.866210938 34 136.866210938 34 c 1
 142.965820312 34 l 0
 151.0859375 34 159.040039062 34.9931640625 167.39453125 37.78515625 c 0
 183 43 192.712890625 60.6875 195.153320312 71.0478515625 c 0
 212.1953125 139.78125 227.16796875 193.262695312 243.147460938 260.763671875 c 0
 252.905273438 301.862304688 263.184570312 345.392578125 271.723632812 384.930664062 c 1
 223.596679688 508.671875 172.438476562 622.96875 147.546875 676.610351562 c 1
 140.5 693.176757812 135.604492188 696 111.965820312 696 c 0
 103.900390625 696 l 1
 103.900390625 696 103.100585938 698.6875 103.100585938 702.434570312 c 0
 103.100585938 705.340820312 103.58203125 710.884765625 105.291992188 714.3046875 c 0
 109.291992188 722.3046875 115.866210938 730 115.5 730 c 1
 402.400390625 730 l 1
 403 730 405.239257812 726.947265625 405.239257812 724.005859375 c 0
 405.239257812 720.961914062 404.85546875 713.963867188 403.291992188 710.3046875 c 0
 399.935546875 702.447265625 389.900390625 696 389.900390625 696 c 1
 383.965820312 696 l 0
 360.171875 696 345.19921875 681.211914062 345.19921875 663.791015625 c 0
 345.19921875 658.625976562 346.97265625 651.391601562 350.521484375 641.455078125 c 1
 430 470 l 1
 598.80078125 637.724609375 l 0
 616.682617188 657.271484375 628.553710938 669.87890625 628.553710938 678.006835938 c 0
 628.553710938 688.407226562 617.7421875 696 596.965820312 696 c 0
 587.900390625 696 l 1
 587.900390625 696 587.100585938 698.6875 587.100585938 702.434570312 c 0
 587.100585938 705.340820312 587.58203125 710.884765625 589.291992188 714.3046875 c 0
 593.291992188 722.3046875 599.866210938 730 599.866210938 730 c 1
 795.930664062 730 l 1
EndSplineSet
EndChar

StartChar: Z
Encoding: 90 90 56
GlifName: Z_
Width: 793
VWidth: 0
Flags: W
HStem: 0 47<246.582 574.466> 686 44<315.035 560.928>
LayerCount: 2
Fore
SplineSet
778.697265625 671.640625 m 2
 245.072265625 53.01953125 l 1
 276.75 49.060546875 342.000976562 47 378.862304688 47 c 0
 421.10546875 47 479.6328125 47.0595703125 528.251953125 53.9296875 c 0
 592.7421875 62.716796875 631.318359375 110.241210938 660.4296875 178.744140625 c 1
 686.758789062 180.592773438 l 1
 615.969726562 0 l 1
 34.3701171875 0 l 0
 26.720703125 0 7.3701171875 3.435546875 7.3701171875 23.525390625 c 0
 7.3701171875 33.232421875 14.9111328125 44.5439453125 18.9541015625 49.498046875 c 1
 560.927734375 682.734375 l 1
 533.469726562 683.907226562 494.186523438 686 453.749023438 686 c 4
 433.041992188 686 405.211914062 685.956054688 350.907226562 675.168945312 c 0
 281.362304688 661.354492188 244.03125 623.669921875 216.004882812 563.294921875 c 1
 194.350585938 561.25 l 1
 265.659179688 726.8828125 l 0
 269.296875 732.171875 276.62109375 734 282.990234375 734 c 0
 294.359375 734 312.356445312 730 317 730 c 0
 794.392578125 730 l 1
 794.392578125 730 795.202148438 720.745117188 795.370117188 716.1171875 c 0
 795.370117188 700.814453125 789.326171875 683.546875 778.697265625 671.640625 c 2
EndSplineSet
EndChar

StartChar: zero
Encoding: 48 48 57
GlifName: zero
Width: 540
VWidth: 0
Flags: W
HStem: -7 56.5<205.978 271.319> 588.82 51.1797<338.001 394.032>
VStem: 29.2607 158.125<100.793 337.033> 408.985 153.661<289.486 538.491>
LayerCount: 2
Fore
SplineSet
408.985351562 426.961914062 m 0
 408.985351562 514.45703125 402.203125 588.8203125 374.6640625 588.8203125 c 0
 319.0625 588.8203125 187.385742188 387.19140625 187.385742188 212.739257812 c 0
 187.385742188 134.0546875 191.645507812 49.5 234.319335938 49.5 c 0
 297.151367188 49.5 408.985351562 242.611328125 408.985351562 426.961914062 c 0
217.30078125 -7 m 0
 99.296875 -7 29.2607421875 87.4091796875 29.2607421875 207.385742188 c 0
 29.2607421875 423.041015625 199.901367188 640 381.568359375 640 c 0
 499.938476562 640 562.646484375 547.379882812 562.646484375 428.46484375 c 0
 562.646484375 212.991210938 403.587890625 -7 217.30078125 -7 c 0
EndSplineSet
EndChar

StartChar: one
Encoding: 49 49 58
GlifName: one
Width: 540
VWidth: 0
Flags: W
HStem: 0 36<113.8 150.496 323.193 346.658>
LayerCount: 2
Fore
SplineSet
323.185546875 47.8515625 m 5
 323.325195312 42.8740234375 324.780273438 36 336.838867188 36 c 6
 352.458007812 36 l 5
 346.658203125 0 l 5
 105 0 l 5
 113.799804688 36 l 5
 123.838867188 36 l 4
 138.875976562 36 148.903320312 46.392578125 151.16796875 56.162109375 c 5
 264.182617188 514.70703125 l 4
 265.775390625 521.27734375 268.497070312 533.205078125 268.497070312 534.403320312 c 4
 268.497070312 536.375 267.935546875 540.137695312 267.440429688 541.633789062 c 5
 256.90234375 541.310546875 237.478515625 538.862304688 237.069335938 538.811523438 c 5
 218.888671875 537.305664062 l 5
 229.79296875 572.990234375 l 5
 235.998046875 575.401367188 l 4
 272.110351562 589.435546875 392.548828125 618.26171875 428.317382812 638.24609375 c 5
 430.595703125 639.57421875 437.765625 645 444.838867188 645 c 4
 449.11328125 645 462.030273438 644.565429688 462.030273438 633.958007812 c 4
 462.030273438 633.892578125 l 5
 324.732421875 54.3466796875 l 5
 324.41796875 52.8837890625 323.39453125 48.822265625 323.185546875 47.8515625 c 5
EndSplineSet
EndChar

StartChar: two
Encoding: 50 50 59
GlifName: two
Width: 540
VWidth: 0
Flags: W
HStem: 0 70<195.043 388.465> 508.594 21G<160.457 196.772> 581 61<256.865 406.077>
VStem: 372.78 158.763<447.105 562.555>
LayerCount: 2
Fore
SplineSet
304.447265625 581 m 4
 253.983398438 581 238.5859375 556.90625 196.772460938 517.81640625 c 6
 186.907226562 508.59375 l 5
 156.245117188 531.778320312 l 5
 163.639648438 540.854492188 l 5
 164.564453125 542.001953125 226.724609375 642 353.3828125 642 c 4
 457.145507812 642 531.54296875 604.682617188 531.54296875 538.043945312 c 4
 531.54296875 451.580078125 466.743164062 360.3046875 395.572265625 277.431640625 c 4
 318.028320312 187.137695312 241.775390625 113.014648438 195.04296875 70 c 5
 329.779296875 70 l 4
 376.137695312 70 401.885742188 86.349609375 417.213867188 114.099609375 c 4
 421.7265625 122.590820312 l 5
 451.821289062 115.38671875 l 5
 388.46484375 0 l 5
 11 0 l 5
 15.091796875 15.662109375 l 4
 18.0322265625 26.919921875 23.025390625 47.9384765625 23.025390625 47.9384765625 c 4
 23.876953125 51.5234375 l 5
 26.60546875 54.1123046875 l 4
 149.041992188 171.584960938 220.430664062 259.112304688 288.129882812 339.528320312 c 4
 338.890625 399.82421875 372.780273438 454.24609375 372.780273438 517.322265625 c 4
 372.780273438 546.537109375 348.1640625 581 304.447265625 581 c 4
EndSplineSet
EndChar

StartChar: hyphen
Encoding: 45 45 60
GlifName: hyphen
Width: 408
VWidth: 0
Flags: W
HStem: 250.9 96.0684<58.6445 361.752>
VStem: 47.5791 321.236<251.628 346.306>
LayerCount: 2
Fore
SplineSet
57.1982421875 251.479492188 m 2
 49.5986328125 254.517578125 47.5791015625 266.03515625 47.5791015625 273.673828125 c 0
 47.5791015625 288.262695312 52.66796875 346.96875 72.337890625 346.96875 c 0
 357.5234375 346.96875 l 0
 368.5390625 346.96875 368.815429688 333.168945312 368.815429688 330.360351562 c 0
 368.815429688 321.004882812 366.7734375 250.900390625 345.387695312 250.900390625 c 0
 58.64453125 250.900390625 l 1
 57.1982421875 251.479492188 l 2
EndSplineSet
EndChar

StartChar: backslash
Encoding: 92 92 61
GlifName: backslash
Width: 458
VWidth: 0
Flags: W
LayerCount: 2
Fore
SplineSet
429.390625 -102.213867188 m 2
 419.543945312 -107.319335938 373.219726562 -110.052734375 357 -110.052734375 c 0
 327.095703125 -110.052734375 273.190429688 -86.74609375 264.39453125 -52.7919921875 c 1
 264.39453125 -52.7919921875 120.431640625 404.579101562 31.40234375 655.66015625 c 0
 31 656.795898438 l 1
 31 658 l 0
 31 675.1640625 68.115234375 703.255859375 94 703.255859375 c 4
 118.606445312 703.255859375 168.180664062 691.747070312 186.465820312 677.525390625 c 0
 188.286132812 676.109375 l 1
 188.908203125 673.888671875 l 0
 260.877929688 416.998046875 331.8125 185.209960938 432.75 -93.6171875 c 0
 434.838867188 -99.388671875 l 1
 429.390625 -102.213867188 l 2
EndSplineSet
EndChar

StartChar: parenleft
Encoding: 40 40 62
GlifName: parenleft
Width: 436
VWidth: 0
Flags: W
VStem: 43.3711 101.877<35.6966 276.497>
LayerCount: 2
Fore
SplineSet
391.310546875 752.134765625 m 2
 355.825195312 711.274414062 251.946289062 647.186523438 175.495117188 315.198242188 c 0
 153.197265625 218.79296875 145.248046875 145.943359375 145.248046875 90.240234375 c 0
 145.248046875 -32.0224609375 182.4609375 -70.427734375 194.108398438 -100.711914062 c 0
 194.90234375 -102.776367188 l 1
 180.181640625 -161.66015625 l 1
 171.370117188 -149.280273438 l 1
 170.396484375 -147.913085938 43.37109375 -25.2578125 43.37109375 168.14453125 c 0
 43.37109375 214.720703125 48.431640625 265.405273438 60.9541015625 319.397460938 c 0
 133.000976562 631.95703125 387.791992188 792.78515625 389.94140625 794.400390625 c 1
 404.56640625 805.384765625 l 1
 392.448242188 753.444335938 l 1
 391.310546875 752.134765625 l 2
EndSplineSet
Validated: 1
EndChar

StartChar: parenright
Encoding: 41 41 63
GlifName: parenright
Width: 432
VWidth: 0
Flags: W
VStem: 291.858 102.242<375.334 621.486>
LayerCount: 2
Fore
SplineSet
243.861328125 756.1875 m 1
 254.827148438 803.1796875 l 1
 263.817382812 792.806640625 l 1
 265.056640625 791.376953125 394.100585938 687.899414062 394.100585938 488.375 c 0
 394.100585938 437.23046875 388.250976562 379.829101562 373.594726562 316.243164062 c 0
 308.928710938 37.4423828125 47.1396484375 -150.234375 46.75390625 -150.5625 c 0
 30.1533203125 -164.647460938 l 1
 46.3291015625 -99.9462890625 l 1
 47.380859375 -98.703125 l 0
 82.921875 -56.7021484375 186.833984375 10.6435546875 258.00390625 318.346679688 c 0
 283.083007812 427.251953125 291.858398438 507.395507812 291.858398438 567.157226562 c 0
 291.858398438 689.751953125 256.088867188 725.2109375 244.6640625 754.154296875 c 0
 243.861328125 756.1875 l 1
EndSplineSet
Validated: 1
EndChar

StartChar: three
Encoding: 51 51 64
GlifName: three
Width: 540
VWidth: 0
Flags: W
HStem: -7 40<131.086 259.741> 575 65<286.826 434.42>
VStem: 355.884 164.818<152.195 260.956> 362.496 187.701<496.265 566.412>
LayerCount: 2
Fore
SplineSet
168.674804688 501.29296875 m 4xd0
 164.24609375 497.18359375 l 5
 139.254882812 524.404296875 l 5
 143.49609375 528.685546875 l 4
 146.154296875 531.369140625 266.623046875 640 386.041015625 640 c 4
 482.799804688 640 550.197265625 609.540039062 550.197265625 555.837890625 c 4xd0
 550.197265625 467.756835938 429.736328125 425.39453125 361.999023438 381.131835938 c 5
 428.736328125 365.216796875 520.702148438 310.454101562 520.702148438 236.157226562 c 4
 520.702148438 73.306640625 327.315429688 -7 152.668945312 -7 c 4
 99.9267578125 -7 17 13.3408203125 17 57.91796875 c 4
 17 66.5625 20.185546875 72.908203125 21.044921875 74.9423828125 c 4
 27.44921875 90.1279296875 48.3876953125 101.638671875 63.88671875 101.638671875 c 4
 79.6513671875 101.638671875 92.99609375 88.80078125 104.2421875 75.484375 c 4
 118.727539062 58.3291015625 154.4375 33 182.586914062 33 c 4
 283.178710938 33 355.883789062 118.452148438 355.883789062 208.98828125 c 4xe0
 355.883789062 239.25 330.094726562 274.00390625 305.96875 286.78125 c 4
 284.508789062 298.146484375 265.220703125 305.010742188 239.611328125 305.010742188 c 4
 204.598632812 305.010742188 173.508789062 282.499023438 154.668945312 282.499023438 c 4
 143.022460938 282.499023438 133.256835938 289.196289062 133.256835938 300.1171875 c 4
 133.256835938 309.517578125 140.096679688 315.70703125 144.6875 318.33984375 c 5
 153.254882812 323.185546875 362.49609375 445.662109375 362.49609375 527.06640625 c 4
 362.49609375 554.967773438 343.754882812 575 310.28515625 575 c 4
 273.528320312 575 220.047851562 543.243164062 168.674804688 501.29296875 c 4xd0
EndSplineSet
EndChar

StartChar: four
Encoding: 52 52 65
GlifName: four
Width: 540
VWidth: 0
Flags: W
HStem: 0 21G<230.883 358.603> 265 63.7324<161.226 268.558> 273.007 62.2666<440.675 489.629>
LayerCount: 2
Fore
SplineSet
161.225585938 328.732421875 m 5xc0
 209.745117188 328.096679688 253.229492188 326.548828125 281.388671875 326.110351562 c 5
 295.625976562 378.5625 317.947265625 447.111328125 320.345703125 461.953125 c 5
 286.619140625 429.46875 270.46484375 422.985351562 234.682617188 390.44140625 c 4
 207.424804688 365.651367188 182.65234375 347.837890625 161.225585938 328.732421875 c 5xc0
31 283.901367188 m 4
 31 294.369140625 37.8779296875 300.997070312 41.04296875 304.055664062 c 4
 152.486328125 411.6328125 297.817382812 511.66015625 403.442382812 618.177734375 c 5
 403.442382812 618.177734375 428.125976562 642 435.196289062 642 c 4
 438.666992188 642 490.814453125 641.599609375 493.645507812 640.79296875 c 4
 501.887695312 638.486328125 511.364257812 632.303710938 511.364257812 624.77734375 c 4
 511.364257812 623.428710938 511.194335938 622.088867188 510.876953125 620.78125 c 4
 440.674804688 335.2734375 l 5
 451.287109375 335.59375 462.150390625 336.021484375 472.643554688 336.634765625 c 4
 487.872070312 337.524414062 482.201171875 338.811523438 492.96875 340.650390625 c 4
 504.5703125 342.6328125 l 5
 499.383789062 332.25390625 l 4
 494.909179688 323.30078125 489.711914062 312.627929688 489.711914062 302.606445312 c 4
 489.711914062 294.025390625 491.034179688 285.853515625 493.067382812 281.231445312 c 4
 496.6875 273.006835938 l 5
 428.584960938 273.006835938 l 5xa0
 368.466796875 12.078125 l 5
 367.19921875 6.1552734375 363.349609375 0 353.856445312 0 c 4
 231.297851562 0 l 4
 230.46875 0 229.635742188 0.009765625 228.801757812 0.0283203125 c 4
 226.63671875 0.0771484375 214.322265625 0.0791015625 212.18359375 0.1669921875 c 4
 208.633789062 0.3125 207.65234375 2.1279296875 207.65234375 4.8408203125 c 4
 207.65234375 6.59765625 208.064453125 8.73046875 208.45703125 11.0302734375 c 4
 209.036132812 14.419921875 210.778320312 19.9384765625 210.974609375 20.7890625 c 4
 229.860351562 101.696289062 249.844726562 184.709960938 268.557617188 265 c 5
 49.1962890625 265 l 4
 36.763671875 265 31 275.991210938 31 283.901367188 c 4
EndSplineSet
EndChar

StartChar: semicolon
Encoding: 59 59 66
GlifName: semicolon
Width: 325
VWidth: 0
Flags: W
HStem: -98.332 34.5938<20.5576 68.4114> 286.271 177.629<168.828 250.772>
VStem: 96.0049 136.066<-26.9014 122.398> 123.993 172.381<330.802 419.399>
LayerCount: 2
Fore
SplineSet
228.599609375 463.900390625 m 0xd0
 269.10546875 463.900390625 296.374023438 432.2578125 296.374023438 392.791992188 c 0
 296.374023438 332.259765625 241.161132812 286.271484375 191.849609375 286.271484375 c 0
 150.350585938 286.271484375 123.993164062 317.625976562 123.993164062 356.698242188 c 0
 123.993164062 417.381835938 177.380859375 463.900390625 228.599609375 463.900390625 c 0xd0
166 164 m 4
 206.920898438 164 232.071289062 132.4140625 232.071289062 97.61328125 c 4
 232.071289062 -25.1259765625 132.759765625 -98.33203125 49.3408203125 -98.33203125 c 4
 20.5576171875 -98.33203125 l 5
 6.55859375 -63.73828125 l 5
 21.6357421875 -63.73828125 l 4
 43.26171875 -63.73828125 96.0048828125 -37.62890625 96.0048828125 -16.173828125 c 4xe0
 96.0048828125 11.8525390625 60.146484375 21.4619140625 60.146484375 61.4462890625 c 4
 60.146484375 120.323242188 116.513671875 164 166 164 c 4
EndSplineSet
EndChar

StartChar: colon
Encoding: 58 58 67
GlifName: colon
Width: 294
VWidth: 0
Flags: W
HStem: -18 177.629<68.9782 150.923> 286.271 177.629<139.828 221.772>
VStem: 24.1436 172.381<26.5302 115.128> 94.9932 172.381<330.802 419.399>
LayerCount: 2
Fore
SplineSet
128.75 159.62890625 m 4xe0
 169.255859375 159.62890625 196.524414062 127.986328125 196.524414062 88.5205078125 c 4
 196.524414062 27.98828125 141.311523438 -18 92 -18 c 4
 50.5009765625 -18 24.1435546875 13.3544921875 24.1435546875 52.4267578125 c 4
 24.1435546875 113.110351562 77.53125 159.62890625 128.75 159.62890625 c 4xe0
199.599609375 463.900390625 m 0
 240.10546875 463.900390625 267.374023438 432.2578125 267.374023438 392.791992188 c 0
 267.374023438 332.259765625 212.161132812 286.271484375 162.849609375 286.271484375 c 0
 121.350585938 286.271484375 94.9931640625 317.625976562 94.9931640625 356.698242188 c 0xd0
 94.9931640625 417.381835938 148.380859375 463.900390625 199.599609375 463.900390625 c 0
EndSplineSet
EndChar

StartChar: five
Encoding: 53 53 68
GlifName: five
Width: 540
VWidth: 0
Flags: W
HStem: -11.9697 73.9961<133.449 275.59> 324.778 106.222<222.928 396.171> 554.653 56.4443<285.308 467.694>
VStem: 343.62 141.93<155.415 294.622>
LayerCount: 2
Fore
SplineSet
226.686523438 611.09765625 m 1
 413.392578125 611.09765625 l 2
 430.422851562 611.09765625 449.241210938 611.975585938 461.540039062 614.682617188 c 0
 464.547851562 615.359375 476.155273438 617 481.392578125 617 c 0
 488.520507812 617 497.545898438 614.552734375 497.545898438 604.151367188 c 0
 497.545898438 592.391601562 479.912109375 573.78515625 471.494140625 560.6015625 c 0
 467.694335938 554.653320312 l 1
 285.307617188 554.653320312 l 1
 221 409 l 1
 265.243164062 425.19140625 286.518554688 431 355.607421875 431 c 0
 436.735351562 431 485.549804688 341.09375 485.549804688 258.247070312 c 0
 485.549804688 101.903320312 354.715820312 -11.9697265625 217.591796875 -11.9697265625 c 0
 144.990234375 -11.9697265625 96.60546875 27.78125 52.13671875 81.3134765625 c 0
 47.3701171875 87.048828125 45.3603515625 94.6220703125 45.3603515625 101.248046875 c 0
 45.3603515625 116.404296875 60.26171875 129.030273438 72.0361328125 129.030273438 c 0
 80.2021484375 129.030273438 84.240234375 123.408203125 86.47265625 120.611328125 c 1
 112.771484375 87.919921875 149.765625 62.0263671875 198.978515625 62.0263671875 c 0
 298.123046875 62.0263671875 343.620117188 144.458984375 343.620117188 214.559570312 c 0
 343.620117188 284.500976562 317.427734375 324.778320312 253.567382812 324.778320312 c 0
 184.639648438 324.778320312 138.873046875 299.797851562 75.755859375 264.974609375 c 1
 226.686523438 611.09765625 l 1
EndSplineSet
EndChar

StartChar: equal
Encoding: 61 61 69
GlifName: equal
Width: 423
VWidth: 0
Flags: W
HStem: 186.4 80.1992<73.7148 333.339> 324.4 80.1992<90.2319 356.247>
VStem: 60.1406 278.942<187.068 265.936> 84.291 278.941<325.068 403.936>
LayerCount: 2
Fore
SplineSet
93.61328125 324.901367188 m 2xd0
 85.3134765625 328.219726562 84.291015625 347.495117188 84.291015625 354.10546875 c 0
 84.291015625 366.727539062 92.693359375 404.599609375 109.712890625 404.599609375 c 0
 350.462890625 404.599609375 l 0
 360.995117188 404.599609375 363.232421875 392.657226562 363.232421875 390.228515625 c 0
 363.232421875 382.133789062 358.466796875 324.400390625 339.962890625 324.400390625 c 0
 97.865234375 324.400390625 l 1
 93.61328125 324.901367188 l 2xd0
72.462890625 186.901367188 m 2
 64.1630859375 190.219726562 60.140625 209.495117188 60.140625 216.104492188 c 0
 60.140625 228.727539062 68.54296875 266.599609375 85.5625 266.599609375 c 0
 326.3125 266.599609375 l 0
 336.84375 266.599609375 339.083007812 244.658203125 339.083007812 242.228515625 c 0xe0
 339.083007812 234.134765625 334.31640625 186.400390625 315.8125 186.400390625 c 0
 73.71484375 186.400390625 l 1
 72.462890625 186.901367188 l 2
EndSplineSet
Validated: 1
EndChar

StartChar: asterisk
Encoding: 42 42 70
GlifName: asterisk
Width: 418
VWidth: 0
Flags: W
VStem: 217.865 67.8524<647.655 698.969>
LayerCount: 2
Fore
SplineSet
217.865325553 673.788371832 m 2
 220.924520065 689.087270455 235.636371323 701.478515625 252.046875 701.478515625 c 2
 255.6953125 701.478515625 l 2
 271.459338167 701.478515625 285.717773438 688.956406634 285.717773438 671.4140625 c 0
 285.717773438 669.554789034 285.58304958 667.865498676 285.208696172 665.619378228 c 2
 266.174538492 568.718783696 l 1
 355.151373215 611.912016348 l 2
 358.211293438 613.441976459 363.80250201 616.356445312 371.21875 616.356445312 c 0
 384.118591199 616.356445312 403.181640625 607.128168382 403.181640625 585.760742188 c 0
 403.181640625 570.40446939 394.99214049 558.483004842 382.986955238 551.639518156 c 2
 286.294478812 492.656588778 l 1
 352.600847576 436.481076881 l 2
 355.423742023 434.088892102 363.8125 426.741664213 363.8125 414.12890625 c 0
 363.8125 401.945927555 357.956904866 392.946418511 352.768734075 387.634298249 c 0
 348.308246452 383.067990286 339.105885218 374.28125 325.008789062 374.28125 c 0
 322.78147514 374.28125 316.110298531 374.329431022 309.335503646 378.649790763 c 2
 235.13128314 425.954373874 l 1
 205.791394444 317.396444616 l 1
 205.42581355 316.043791057 l 1
 205.060232655 314.691137498 l 1
 204.133364759 313.640310708 l 1
 203.368664562 312.773339853 l 2
 202.128234012 311.124358433 187.756157205 290.375 170.573242188 290.375 c 2
 166.924804688 290.375 l 2
 151.16077902 290.375 136.90234375 302.897108992 136.90234375 320.439453125 c 0
 136.90234375 322.299439436 137.04344163 324.025813978 137.399524567 326.163826847 c 2
 155.542448044 422.061238931 l 1
 63.8337932413 377.516537963 l 2
 58.4497877324 374.902576178 53.1320827192 374.28125 48.970703125 374.28125 c 0
 28.8498072281 374.28125 19.4384765625 392.849140344 19.4384765625 405.940429688 c 0
 19.4384765625 409.039036145 19.6900548099 413.630450893 20.9800587619 418.662275931 c 0
 24.5148488971 432.456944212 36.824135734 438.060730221 37.3954105969 438.373605506 c 2
 136.022060755 497.939867302 l 1
 70.0710342539 552.907229496 l 2
 64.9323601876 557.19931828 58.537109375 565.072662325 58.537109375 576.435546875 c 0
 58.537109375 599.089668977 77.1431211394 616.356445312 96.3955078125 616.356445312 c 0
 99.568382957 616.356445312 105.366158427 616.067450142 111.464990686 613.018873378 c 2
 112.350454455 612.576263358 l 1
 112.850755233 612.261261589 l 1
 188.608249623 564.56246571 l 1
 217.865325553 673.788371832 l 2
EndSplineSet
EndChar

StartChar: numbersign
Encoding: 35 35 71
GlifName: numbersign
Width: 741
VWidth: 0
Flags: W
HStem: 227 59<61.8251 156.271 274.038 347.271 464.038 581.517> 486 59<172.103 275.318 392.04 466.271 581.04 690.633>
LayerCount: 2
Fore
SplineSet
398.154296875 737 m 2
 457.154296875 737 l 0
 460.796875 737 472.345703125 736.147460938 472.345703125 725.083007812 c 0
 472.345703125 722.484375 471.762695312 719.8125 470.5234375 717.095703125 c 0
 392.040039062 545 l 1
 487.653320312 545 l 1
 568.46484375 722.201171875 l 1
 572.548828125 732.427734375 579.162109375 737 588.154296875 737 c 0
 646.154296875 737 l 0
 650.30078125 737 661.30859375 735.646484375 661.30859375 724.719726562 c 0
 661.30859375 722.62890625 660.905273438 720.125 659.5234375 717.095703125 c 0
 581.040039062 545 l 1
 684.154296875 545 l 0
 686.62890625 545 698.30859375 544.618164062 698.30859375 534.46875 c 0
 698.30859375 529.1171875 697.620117188 525.20703125 696.375 522.7890625 c 0
 688.395507812 501.829101562 l 1
 684.915039062 494.868164062 677.612304688 486 667.154296875 486 c 0
 560.65625 486 l 1
 464.038085938 286 l 1
 577.154296875 286 l 0
 582.483398438 286 591.30859375 283.40625 591.30859375 274.46875 c 0
 591.30859375 270.162109375 589.497070312 267.970703125 588.37890625 265.798828125 c 0
 578.397460938 240.833984375 l 1
 574.379882812 232.799804688 566.23046875 227 557.154296875 227 c 0
 440.65625 227 l 1
 341.5234375 17.0966796875 l 0
 339.059570312 11.6904296875 334.731445312 3 324.154296875 3 c 0
 264.154296875 3 l 0
 258.34375 3 248.909179688 5.7041015625 248.909179688 15.2451171875 c 0
 248.909179688 17.8857421875 249.525390625 20.140625 250.78515625 22.9033203125 c 0
 347.270507812 227 l 1
 250.676757812 227 l 1
 152.53515625 17.1220703125 l 0
 149.69140625 10.8154296875 144.31640625 3 134.154296875 3 c 0
 73.154296875 3 l 0
 67.0341796875 3 58 6.216796875 58 16 c 0
 58 19.150390625 58.8828125 20.92578125 59.78515625 22.9033203125 c 0
 156.270507812 227 l 1
 68.154296875 227 l 0
 63.2119140625 227 53 229.186523438 53 239.500976562 c 0
 53 244.055664062 54.9287109375 247.259765625 55.931640625 249.206054688 c 0
 64.912109375 272.16796875 l 1
 68.927734375 280.198242188 77.078125 286 86.154296875 286 c 0
 179.631835938 286 l 1
 275.318359375 486 l 1
 177.154296875 486 l 0
 172.770507812 486 161.962890625 487.611328125 161.962890625 498.165039062 c 0
 161.962890625 502.923828125 163.978515625 506.35546875 164.931640625 508.206054688 c 0
 171.912109375 531.16796875 l 1
 175.927734375 539.198242188 184.078125 545 193.154296875 545 c 0
 296.653320312 545 l 1
 377.362304688 721.9765625 l 1
 381.985351562 733.185546875 389.4296875 737 398.154296875 737 c 2
370.65625 486 m 1
 274.038085938 286 l 1
 369.65234375 286 l 1
 466.270507812 486 l 1
 370.65625 486 l 1
EndSplineSet
Validated: 1
EndChar

StartChar: six
Encoding: 54 54 72
GlifName: six
Width: 540
VWidth: 0
Flags: W
HStem: -8 57.8301<220.016 315.006> 344.349 67.96<282.579 413.856>
VStem: 23.2529 157.088<101.971 304.194> 389.488 141.821<155.233 319.148>
LayerCount: 2
Fore
SplineSet
514.955078125 597.1328125 m 0
 321.974609375 543.071289062 180.340820312 401.891601562 180.340820312 180.651367188 c 0
 180.340820312 119.345703125 215.411132812 49.830078125 259.616210938 49.830078125 c 4
 318.584960938 49.830078125 389.48828125 127.124023438 389.48828125 253.337890625 c 0
 389.48828125 311.274414062 352.743164062 344.348632812 323.104492188 344.348632812 c 0
 297.428710938 344.348632812 280.607421875 335.944335938 257.235351562 317.4453125 c 0
 256.806640625 317.10546875 l 1
 256.358398438 316.809570312 l 0
 251.916992188 313.880859375 245.897460938 310.724609375 241.162109375 310.724609375 c 0
 233.338867188 310.724609375 223.053710938 315.227539062 223.053710938 327.606445312 c 0
 223.053710938 335.52734375 230.997070312 343.141601562 234.879882812 348.442382812 c 1
 257.502929688 376.473632812 295.676757812 412.30859375 366.493164062 412.30859375 c 0
 461.219726562 412.30859375 531.309570312 369.396484375 531.309570312 268.430664062 c 0
 531.309570312 118.53125 432.286132812 -8 237.749023438 -8 c 0
 122.930664062 -8 23.2529296875 79.3828125 23.2529296875 185.563476562 c 0
 23.2529296875 455.48828125 318.104492188 598.63671875 518.948242188 636.732421875 c 1
 530.436523438 639.125976562 l 1
 532.067382812 633.947265625 l 2
 533.177734375 630.420898438 533.76953125 626.701171875 533.76953125 623.022460938 c 0
 533.76953125 611.735351562 528.198242188 600.842773438 514.955078125 597.1328125 c 0
EndSplineSet
EndChar

StartChar: nine
Encoding: 57 57 73
GlifName: nine
Width: 540
VWidth: 0
Flags: W
HStem: 239.96 83.5322<167.253 288.53> 596 45<270.23 364.666>
VStem: 50.7148 140.479<336.029 486.486> 404.742 135.269<330.55 545.851>
LayerCount: 2
Fore
SplineSet
54.4462890625 -6.58984375 m 1
 53.916015625 -5.1884765625 52 -0.0068359375 52 6.95703125 c 0
 52 19.19921875 58.7353515625 30.759765625 72.90625 34.642578125 c 1
 266.912109375 100.265625 404.7421875 256.577148438 404.7421875 469.899414062 c 0
 404.7421875 536.791992188 362.443359375 596 324.870117188 596 c 0
 272.372070312 596 191.193359375 528.516601562 191.193359375 405.116210938 c 0
 191.193359375 341.015625 215.418945312 323.4921875 250.640625 323.4921875 c 0
 293.541992188 323.4921875 305.9765625 330.979492188 327.477539062 349.026367188 c 0
 333.12890625 353.767578125 338.834960938 355.423828125 344.419921875 355.423828125 c 0
 352.749023438 355.423828125 361.895507812 345.846679688 361.895507812 336.3515625 c 0
 361.895507812 327.823242188 357.220703125 321.119140625 354.051757812 317.485351562 c 0
 353.729492188 317.116210938 l 1
 353.327148438 316.729492188 l 0
 324.091796875 288.690429688 288.702148438 239.959960938 202.041992188 239.959960938 c 0
 132.463867188 239.959960938 50.71484375 279.288085938 50.71484375 379.70703125 c 0
 50.71484375 549.379882812 190.678710938 641 331.69140625 641 c 0
 450.586914062 641 540.010742188 573.250976562 540.010742188 462.290039062 c 0
 540.010742188 155.118164062 271.2734375 31.8544921875 69.93359375 -14.587890625 c 1
 58.3720703125 -17.6044921875 l 1
 54.4462890625 -6.58984375 l 1
EndSplineSet
EndChar

StartChar: exclam
Encoding: 33 33 74
GlifName: exclam
Width: 344
VWidth: 0
Flags: W
HStem: -18 116<65.4169 136.73>
VStem: 45 112.573<3.13892 77.5818>
LayerCount: 2
Fore
SplineSet
113.313476562 98 m 4
 139.765625 98 157.573242188 77.3359375 157.573242188 51.5625 c 4
 157.573242188 12.0322265625 121.516601562 -18 89.3134765625 -18 c 4
 62.212890625 -18 45 2.4755859375 45 27.9921875 c 4
 45 67.62109375 79.865234375 98 113.313476562 98 c 4
265.013671875 765.375 m 6
 267.11328125 765.375 l 4
 298.286132812 765.375 317.622070312 748.780273438 317.622070312 728.961914062 c 4
 317.622070312 723.006835938 316.759765625 716.900390625 315.140625 710.420898438 c 5
 173.876953125 220.021484375 l 4
 169.370117188 203.122070312 156.172851562 189.625 137.963867188 189.625 c 4
 120.806640625 189.625 110.370117188 199.965820312 110.370117188 213.560546875 c 4
 110.370117188 216.608398438 110.732421875 219.860351562 111.39453125 223.173828125 c 5
 195.919921875 713.654296875 l 5
 195.95703125 713.80859375 l 4
 202.672851562 741.790039062 230.325195312 765.375 265.013671875 765.375 c 6
EndSplineSet
Validated: 1
EndChar

StartChar: percent
Encoding: 37 37 75
GlifName: percent
Width: 828
VWidth: 0
Flags: W
HStem: 3.60547 30.2314<542.532 593.916> 264.167 30.207<167.722 218.956> 351.478 30.335<613.096 665.883> 568.94 31.7471<383.133 565.38> 601.554 34.2939<227.05 293.202>
VStem: 57.9766 95.6182<308.926 483.452> 306.862 83.3779<421.69 579.911> 429.086 97.9756<49.5868 227.077> 679.575 82.6191<160.972 341.6>
LayerCount: 2
Fore
SplineSet
429.0859375 122.696289062 m 0
 429.0859375 272.090820312 552.25390625 381.8125 652.83203125 381.8125 c 0
 717.147460938 381.8125 762.194335938 340.40625 762.194335938 270.212890625 c 0
 762.194335938 121.831054688 651.678710938 3.60546875 549.206054688 3.60546875 c 0
 480.670898438 3.60546875 429.0859375 47.677734375 429.0859375 122.696289062 c 0
643.956054688 351.477539062 m 0
 593.315429688 351.477539062 527.061523438 217.782226562 527.061523438 124.478515625 c 0
 527.061523438 79.7548828125 538.373046875 33.8369140625 562.965820312 33.8369140625 c 0
 614.139648438 33.8369140625 679.575195312 166.53125 679.575195312 261.79296875 c 0
 679.575195312 304.778320312 674.169921875 351.477539062 643.956054688 351.477539062 c 0
277.94921875 635.84765625 m 0
 303.724609375 635.84765625 326.078125 628.948242188 341.421875 618.037109375 c 1
 403.36328125 609.768554688 438.350585938 600.6875 468.6953125 600.6875 c 0
 611.629882812 600.6875 591.947265625 662.998046875 663.545898438 662.998046875 c 0
 669.80078125 662.998046875 676.947265625 662.90625 681.946289062 657.891601562 c 0
 702.6875 647.354492188 l 0
 704.561523438 645.513671875 708.572265625 642.305664062 708.572265625 636.563476562 c 0
 708.572265625 631.077148438 705.575195312 627.306640625 703.782226562 625.147460938 c 0
 165.329101562 -8.607421875 l 0
 162.228515625 -12.4287109375 157.791992188 -13.904296875 154.124023438 -13.904296875 c 0
 147.872070312 -13.904296875 129.739257812 -4.580078125 127.005859375 -2.76171875 c 1
 122.749023438 0.9013671875 l 1
 122.435546875 1.1171875 l 0
 118.55859375 3.7783203125 116.453125 8.001953125 116.453125 12.0380859375 c 0
 116.453125 17.1279296875 118.963867188 21.0849609375 121.358398438 23.966796875 c 0
 608.455078125 604.985351562 l 1
 577.37109375 587.381835938 538.78125 568.940429688 463.793945312 568.940429688 c 0
 431.03125 568.940429688 410.98828125 575.032226562 381.728515625 580.71484375 c 1
 387.220703125 564.478515625 390.240234375 549.689453125 390.240234375 530.774414062 c 0
 390.240234375 382.391601562 276.397460938 264.166992188 173.751953125 264.166992188 c 0
 107.618164062 264.166992188 57.9765625 307.208007812 57.9765625 380.4296875 c 0
 57.9765625 526.157226562 174.751953125 635.84765625 277.94921875 635.84765625 c 0
226.1875 596.514648438 m 1
 186.243164062 567.5546875 153.594726562 460.422851562 153.594726562 384.203125 c 0
 153.594726562 340.038085938 163.76953125 294.374023438 188.020507812 294.374023438 c 0
 239.193359375 294.374023438 306.862304688 417.064453125 306.862304688 522.329101562 c 0
 306.862304688 551.372070312 296.66796875 589.408203125 282.426757812 600.8671875 c 1
 274.06640625 601.374023438 267.754882812 601.553710938 260.376953125 601.553710938 c 0
 243.18359375 601.553710938 244.908203125 599.935546875 226.1875 596.514648438 c 1
EndSplineSet
Validated: 1
EndChar

StartChar: seven
Encoding: 55 55 76
GlifName: seven
Width: 540
VWidth: 0
Flags: W
HStem: 0 21G<31 203.222> 516 21G<122.312 138.475> 542 80<140.264 386.607>
LayerCount: 2
Fore
SplineSet
34.0810546875 7.9521484375 m 4
 95.4345703125 166.287109375 241.8671875 395.01171875 386.607421875 542 c 5
 162.708984375 542 l 4
 146.581054688 542 139.497070312 523.549804688 138.474609375 522.380859375 c 5
 133.580078125 516 l 5
 127.7421875 516 l 4
 116.880859375 516 111.924804688 528.344726562 111.924804688 528.344726562 c 4
 110.396484375 532.185546875 l 5
 112.30078125 537.598632812 l 5
 142.127929688 604.908203125 l 5
 142.595703125 605.688476562 l 4
 146.720703125 612.565429688 153.401367188 622 164.885742188 622 c 4
 566.7421875 622 l 4
 578.861328125 622 587.98828125 611.625976562 587.98828125 601.450195312 c 4
 587.98828125 587.892578125 576.830078125 576.947265625 574.899414062 574.594726562 c 5
 421.25 393.072265625 265.516601562 163.466796875 203.221679688 3.9013671875 c 4
 201.765625 0 l 5
 31 0 l 5
 34.0810546875 7.9521484375 l 4
EndSplineSet
EndChar

StartChar: eight
Encoding: 56 56 77
GlifName: eight
Width: 540
VWidth: 0
Flags: W
HStem: -8 51.0928<195.183 293.631> 591.219 51.7812<317.747 412.507>
VStem: 18 148.434<72.6475 198.052> 137.442 146.734<426.285 541.271> 350.974 143.312<118.203 262.232> 422.3 126.029<475.025 582.699>
LayerCount: 2
Fore
SplineSet
291.87890625 298.297851562 m 5xe8
 203.698242188 238.669921875 166.43359375 208.564453125 166.43359375 138.345703125 c 4
 166.43359375 79.212890625 206.928710938 43.0927734375 237.713867188 43.0927734375 c 4
 299.958007812 43.0927734375 350.973632812 110.298828125 350.973632812 183.352539062 c 4
 350.973632812 233.814453125 339.208984375 261.879882812 291.87890625 298.297851562 c 5xe8
371.78125 591.21875 m 4
 318.267578125 591.21875 284.176757812 544.596679688 284.176757812 490.774414062 c 4
 284.176757812 453.162109375 291.623046875 434.12890625 326.348632812 407.955078125 c 5
 378.524414062 444.776367188 422.299804688 484.005859375 422.299804688 526.178710938 c 4xd4
 422.299804688 571.291992188 402.80859375 591.21875 371.78125 591.21875 c 4
387.57421875 643 m 4
 478.38671875 643 548.329101562 597.553710938 548.329101562 532.452148438 c 4xd4
 548.329101562 448.642578125 437.998046875 399.16796875 383.185546875 363.708007812 c 5
 435.8359375 316.57421875 494.286132812 267.015625 494.286132812 194.616210938 c 4
 494.286132812 87.9462890625 374.294921875 -8 222.444335938 -8 c 4
 129.017578125 -8 18 39.6728515625 18 123.051757812 c 4xe8
 18 227.341796875 122.649414062 282.419921875 216.37890625 341.364257812 c 5
 178.1875 372.05078125 137.442382812 405.290039062 137.442382812 464.971679688 c 4
 137.442382812 550.5703125 213.754882812 643 387.57421875 643 c 4
EndSplineSet
EndChar

StartChar: question
Encoding: 63 63 78
GlifName: question
Width: 598
VWidth: 0
Flags: W
HStem: -18 177.629<148.978 230.923> 736.575 39.7998<304.582 373.124>
VStem: 104.144 172.381<26.5302 115.128> 124.209 141.865<632.761 697.266> 155.062 119.578<204.698 285.152> 398.215 169.921<561.583 692.643>
LayerCount: 2
Fore
SplineSet
208.75 159.62890625 m 0xe4
 249.255859375 159.62890625 276.524414062 127.986328125 276.524414062 88.5205078125 c 0
 276.524414062 27.98828125 221.311523438 -18 172 -18 c 0
 130.500976562 -18 104.143554688 13.3544921875 104.143554688 52.4267578125 c 0
 104.143554688 113.110351562 157.53125 159.62890625 208.75 159.62890625 c 0xe4
165.931640625 333.521484375 m 2
 167 338 l 0
 179.5234375 394.919921875 237.267578125 445.51171875 278.76171875 478.91015625 c 1
 354.168945312 539.017578125 398.21484375 554.012695312 398.21484375 633.541992188 c 0
 398.21484375 695.13671875 367.056640625 736.575195312 342.213867188 736.575195312 c 0
 306.4609375 736.575195312 275.770507812 682.044921875 266.07421875 660.712890625 c 5
 253.612304688 630.256835938 209.612304688 603.575195312 182.313476562 603.575195312 c 4
 156.526367188 603.575195312 124.208984375 633.979492188 124.208984375 656.310546875 c 4xd4
 124.208984375 730.30859375 241.416992188 776.375 337.763671875 776.375 c 0
 444.241210938 776.375 568.135742188 725.971679688 568.135742188 626.958984375 c 0
 568.135742188 516.524414062 485.575195312 491.083984375 419.478515625 444.490234375 c 0
 377.259765625 414.938476562 335.575195312 386.833984375 317.696289062 345.694335938 c 0
 290.478515625 283.06640625 276.697265625 205.399414062 274.640625 197.163085938 c 1
 155.0625 205.166992188 l 1xcc
 159.95703125 250.478515625 165.913085938 332.776367188 165.931640625 333.521484375 c 2
EndSplineSet
EndChar

StartChar: quotesingle
Encoding: 39 39 79
GlifName: quotesingle
Width: 170
VWidth: 0
Flags: W
HStem: 489.85 209.155<65.6397 92.6996>
VStem: 54.6543 92.0869<601.398 687.382>
LayerCount: 2
Fore
SplineSet
106.249023438 699.004882812 m 2
 111.252929688 699.004882812 l 0
 132.047851562 699.004882812 146.741210938 685.459960938 146.741210938 667.125 c 0
 146.741210938 659.618164062 143.405273438 650.893554688 141.20703125 644.52734375 c 0
 91.9296875 507.655273438 l 1
 88.771484375 495.401367188 79.5498046875 489.849609375 68.7197265625 489.849609375 c 0
 52.4580078125 489.849609375 l 0
 41.7822265625 489.849609375 35.0537109375 497.536132812 35.0537109375 506.076171875 c 0
 35.0537109375 507.518554688 35.2314453125 509.205078125 35.4541015625 510.45703125 c 1
 54.654296875 653.577148438 l 1
 58.802734375 679.17578125 84.947265625 699.004882812 106.249023438 699.004882812 c 2
EndSplineSet
Validated: 1
EndChar

StartChar: quotedbl
Encoding: 34 34 80
GlifName: quotedbl
Width: 307
VWidth: 0
Flags: W
HStem: 489.85 209.155<65.6397 92.6996 188.64 215.7>
VStem: 54.6543 92.0869<601.398 687.382> 177.654 92.0869<601.398 687.382>
LayerCount: 2
Fore
SplineSet
229.249023438 699.004882812 m 2
 234.252929688 699.004882812 l 0
 255.047851562 699.004882812 269.741210938 685.459960938 269.741210938 667.125 c 0
 269.741210938 659.618164062 266.405273438 650.893554688 264.20703125 644.52734375 c 0
 214.9296875 507.655273438 l 1
 211.771484375 495.401367188 202.549804688 489.849609375 191.719726562 489.849609375 c 0
 175.458007812 489.849609375 l 0
 164.782226562 489.849609375 158.053710938 497.536132812 158.053710938 506.076171875 c 0
 158.053710938 507.518554688 158.231445312 509.205078125 158.454101562 510.45703125 c 1
 177.654296875 653.577148438 l 1
 181.802734375 679.17578125 207.947265625 699.004882812 229.249023438 699.004882812 c 2
106.249023438 699.004882812 m 2
 111.252929688 699.004882812 l 0
 132.047851562 699.004882812 146.741210938 685.459960938 146.741210938 667.125 c 0
 146.741210938 659.618164062 143.405273438 650.893554688 141.20703125 644.52734375 c 0
 91.9296875 507.655273438 l 1
 88.771484375 495.401367188 79.5498046875 489.849609375 68.7197265625 489.849609375 c 0
 52.4580078125 489.849609375 l 0
 41.7822265625 489.849609375 35.0537109375 497.536132812 35.0537109375 506.076171875 c 0
 35.0537109375 507.518554688 35.2314453125 509.205078125 35.4541015625 510.45703125 c 1
 54.654296875 653.577148438 l 1
 58.802734375 679.17578125 84.947265625 699.004882812 106.249023438 699.004882812 c 2
EndSplineSet
Validated: 1
EndChar

StartChar: underscore
Encoding: 95 95 81
GlifName: underscore
Width: 449
VWidth: 0
Flags: W
HStem: -11 86<66.5869 374.47>
VStem: 60.8154 319.52<-10.7329 74.7301>
LayerCount: 2
Fore
SplineSet
75.271484375 -11 m 6
 64.2060546875 -11 60.8154296875 15.6796875 60.8154296875 20.9853515625 c 4
 60.8154296875 32.927734375 67.271484375 75 84.7216796875 75 c 4
 366.12109375 75 l 4
 377.232421875 75 380.334960938 47.8515625 380.334960938 42.4404296875 c 4
 380.334960938 30.62890625 373.55078125 -11 356.670898438 -11 c 4
 75.271484375 -11 l 6
EndSplineSet
EndChar

StartChar: bracketleft
Encoding: 91 91 82
GlifName: bracketleft
Width: 508
VWidth: 0
Flags: W
HStem: -110.15 50.2002<168.671 287.217> 706.95 43.2002<343.704 473.966>
LayerCount: 2
Fore
SplineSet
343.704101562 706.950195312 m 5
 168.670898438 -59.9501953125 l 5
 275.879882812 -59.9501953125 l 4
 287.458984375 -59.9501953125 288.09375 -73.076171875 288.09375 -78.6455078125 c 4
 288.09375 -92.146484375 283.254882812 -110.150390625 267.379882812 -110.150390625 c 4
 56.73046875 -110.150390625 l 4
 44.3798828125 -110.150390625 35.0771484375 -103.2109375 35.0771484375 -90.3564453125 c 4
 35.0771484375 -87.2900390625 35.482421875 -84.1982421875 36.2470703125 -80.62890625 c 5
 222.096679688 723.671875 l 5
 225.859375 741.227539062 238.010742188 750.150390625 256.23046875 750.150390625 c 4
 462.6796875 750.150390625 l 4
 473.641601562 750.150390625 474.141601562 738.051757812 474.141601562 733.501953125 c 4
 474.141601562 721.158203125 471.78515625 706.950195312 455.1796875 706.950195312 c 4
 343.704101562 706.950195312 l 5
EndSplineSet
EndChar

StartChar: bracketright
Encoding: 93 93 83
GlifName: bracketright
Width: 511
VWidth: 0
Flags: W
HStem: -110.15 50.2002<33.7942 164.921> 705.95 44.2002<221.88 341.984>
LayerCount: 2
Fore
SplineSet
341.984375 705.950195312 m 1
 233.737304688 705.950195312 l 0
 222.232421875 705.950195312 221.815429688 719.202148438 221.815429688 724.381835938 c 0
 221.815429688 736.760742188 223.08203125 750.150390625 240.237304688 750.150390625 c 0
 447.737304688 750.150390625 l 4
 462.114257812 750.150390625 473.459960938 743.776367188 473.459960938 729.399414062 c 4
 473.459960938 726.584960938 473.099609375 723.799804688 472.420898438 720.62890625 c 5
 286.5703125 -83.671875 l 5
 282.880859375 -100.891601562 271.2421875 -110.150390625 255.587890625 -110.150390625 c 4
 44.9375 -110.150390625 l 0
 33.431640625 -110.150390625 33.015625 -96.8974609375 33.015625 -91.716796875 c 0
 33.015625 -79.3369140625 36.283203125 -59.9501953125 53.4375 -59.9501953125 c 0
 164.920898438 -59.9501953125 l 1
 341.984375 705.950195312 l 1
EndSplineSet
EndChar

StartChar: bar
Encoding: 124 124 84
GlifName: bar
Width: 354
VWidth: 0
Flags: W
VStem: 89.2139 175.786
LayerCount: 2
Fore
SplineSet
215.674804688 -65.47265625 m 2
 211.631835938 -79.62890625 170.368164062 -84.0498046875 148.544921875 -84.0498046875 c 0
 129.026367188 -84.0498046875 89.2138671875 -80.4111328125 89.2138671875 -65.1162109375 c 0
 138.58984375 752.75 l 1
 141.014648438 767.299804688 182.927734375 772.049804688 204.89453125 772.049804688 c 4
 224.850585938 772.049804688 264.920898438 767.763671875 265 753 c 2
 215.884765625 -64.7373046875 l 1
 215.674804688 -65.47265625 l 2
EndSplineSet
EndChar

StartChar: asciitilde
Encoding: 126 126 85
GlifName: asciitilde
Width: 560
VWidth: 0
Flags: W
HStem: 212.7 93.2998<304.573 405.339> 284.1 91.2002<147.548 241.765>
LayerCount: 2
Fore
SplineSet
208.1015625 375.299804688 m 0x40
 289.848632812 375.299804688 290.532226562 306 364.551757812 306 c 0
 419.174804688 306 473.920898438 358.5 489.500976562 358.5 c 0
 495.838867188 358.5 505.063476562 347.875 505.063476562 338.427734375 c 4
 505.063476562 337.422851562 504.93359375 333.418945312 504.692382812 332.453125 c 0
 497.357421875 303.11328125 406.7578125 212.700195312 338.301757812 212.700195312 c 0x80
 255.415039062 212.700195312 257.403320312 284.099609375 188.151367188 284.099609375 c 0
 146.077148438 284.099609375 95.345703125 241.049804688 69.5009765625 241.049804688 c 0
 61.9306640625 241.049804688 54.599609375 248.836914062 54.599609375 257.939453125 c 0
 54.599609375 259.782226562 54.8857421875 264.650390625 55.4208984375 266.522460938 c 0
 58.7412109375 278.147460938 143.518554688 375.299804688 208.1015625 375.299804688 c 0x40
EndSplineSet
EndChar

StartChar: dieresis
Encoding: 168 168 86
GlifName: dieresis
Width: 433
VWidth: 0
Flags: W
HStem: 614.7 110.6<147.115 217.257 365.514 435.657>
VStem: 128.581 107.21<633.356 706.643> 346.981 107.21<633.357 706.644>
LayerCount: 2
Fore
SplineSet
412.135742188 725.299804688 m 0
 437.292178731 725.299804688 454.190744594 706.7532163 454.190744594 682.268358678 c 0
 454.190744594 643.488978006 420.540840309 614.700195312 389.036132812 614.700195312 c 0
 363.879107575 614.700195312 346.980543483 633.247561005 346.980543483 657.732987012 c 0
 346.980543483 696.512234684 380.630905613 725.299804688 412.135742188 725.299804688 c 0
193.735351562 725.299804688 m 0
 218.892376799 725.299804688 235.790940892 706.752438995 235.790940892 682.267012989 c 0
 235.790940892 643.487765316 202.140578761 614.700195312 170.635742188 614.700195312 c 0
 145.479305644 614.700195312 128.58073978 633.246783701 128.58073978 657.731641323 c 0
 128.58073978 696.511021994 162.230644066 725.299804688 193.735351562 725.299804688 c 0
EndSplineSet
Validated: 1
EndChar

StartChar: grave
Encoding: 96 96 93
GlifName: grave
Width: 303
VWidth: 0
Flags: W
HStem: 522.891 233.109
VStem: 58 188.824
LayerCount: 2
Fore
SplineSet
211.833007812 526.67578125 m 2
 170.236328125 562.185546875 77.9453125 645.029296875 66.5537109375 662.1171875 c 4
 61.669921875 669.442382812 58 680.024414062 58 689.171875 c 0
 58 722.774414062 96.6923828125 756 125.377929688 756 c 0
 138.010742188 756 154.6171875 751.259765625 162.202148438 739.8828125 c 0
 173.401367188 723.083984375 224.66015625 605.116210938 246.82421875 552.727539062 c 0
 248.874023438 547.883789062 l 1
 216.267578125 522.890625 l 1
 211.833007812 526.67578125 l 2
EndSplineSet
EndChar

StartChar: acute
Encoding: 180 180 94
GlifName: acute
Width: 315
VWidth: 0
Flags: W
HStem: 524.976 225.928
VStem: 30.3779 225.993
LayerCount: 2
Fore
SplineSet
51.8427734375 524.975585938 m 1
 30.3779296875 546.440429688 l 1
 33.720703125 551.247070312 l 0
 69.9345703125 603.314453125 152.252929688 719.54296875 168.491210938 735.780273438 c 0
 178.549804688 745.838867188 191.725585938 750.903320312 204.870117188 750.903320312 c 0
 218.013671875 750.903320312 231.188476562 745.838867188 241.247070312 735.780273438 c 0
 251.306640625 725.721679688 256.37109375 712.546875 256.37109375 699.40234375 c 0
 256.37109375 686.2578125 251.306640625 673.083007812 241.247070312 663.022460938 c 0
 225.046875 646.823242188 109.536132812 563.78125 56.625 528.19140625 c 0
 51.8427734375 524.975585938 l 1
EndSplineSet
Validated: 1
EndChar

StartChar: less
Encoding: 60 60 114
GlifName: less
Width: 533
VWidth: 0
Flags: W
LayerCount: 2
Fore
SplineSet
194.0859375 313.146484375 m 1
 398.823242188 174.96875 l 1
 373.560546875 72.1796875 l 1
 31.2939453125 300.884765625 l 1
 35.7392578125 324.591796875 l 1
 484.34375 553.458984375 l 1
 451.099609375 441.348632812 l 1
 194.0859375 313.146484375 l 1
EndSplineSet
Validated: 1
EndChar

StartChar: greater
Encoding: 62 62 115
GlifName: greater
Width: 529
VWidth: 0
Flags: W
LayerCount: 2
Fore
SplineSet
325.9140625 314.853515625 m 1
 128.18359375 453.026367188 l 1
 155.422851562 551.83203125 l 1
 477.706054688 323.115234375 l 1
 473.260742188 299.408203125 l 1
 44.6396484375 70.5322265625 l 1
 84.9033203125 186.653320312 l 1
 325.9140625 314.853515625 l 1
EndSplineSet
Validated: 1
EndChar

StartChar: asciicircum
Encoding: 94 94 116
GlifName: asciicircum
Width: 498
VWidth: 0
Flags: W
HStem: 542.435 243.851
LayerCount: 2
Fore
SplineSet
461.370117188 586.723632812 m 6
 454.125976562 573.443359375 433.018554688 546.02734375 422.239257812 542.434570312 c 0
 418.311523438 541.125 l 1
 293.26953125 636.7890625 l 1
 115.458984375 541.368164062 l 1
 112.260742188 542.434570312 l 0
 100.072265625 546.497070312 82.775390625 576.926757812 82.775390625 590.075195312 c 4
 82.775390625 593.279296875 l 5
 316.313476562 786.28515625 l 5
 463.44921875 590.53515625 l 5
 461.370117188 586.723632812 l 6
EndSplineSet
EndChar

StartChar: divide
Encoding: 247 247 137
GlifName: divide
Width: 388
VWidth: 0
Flags: W
HStem: 121.551 100.946<134.527 201.551> 257.95 80.2002<65.29 328.622> 373.35 99.7637<184.214 252.014>
VStem: 54.7158 278.942<258.618 338.123> 118.903 97.8047<137.198 207.41> 169.503 97.8037<388.996 458.704>
LayerCount: 2
Fore
SplineSet
169.502929688 412.700195312 m 4xe4
 169.502929688 447.719726562 199.752929688 473.11328125 228.497070312 473.11328125 c 4
 250.620117188 473.11328125 267.306640625 456.758789062 267.306640625 434.342773438 c 4
 267.306640625 399.674804688 235.763671875 373.349609375 208.387695312 373.349609375 c 4
 185.224609375 373.349609375 169.502929688 390.595703125 169.502929688 412.700195312 c 4xe4
118.903320312 160.901367188 m 4xe8
 118.903320312 195.651367188 148.989257812 222.497070312 177.899414062 222.497070312 c 4
 200.338867188 222.497070312 216.708007812 205.046875 216.708007812 182.620117188 c 4
 216.708007812 147.915039062 185.220703125 121.55078125 157.788085938 121.55078125 c 4
 134.625976562 121.55078125 118.903320312 138.796875 118.903320312 160.901367188 c 4xe8
65.2900390625 257.950195312 m 5
 64.0380859375 258.451171875 l 6
 55.73828125 261.770507812 54.7158203125 281.044921875 54.7158203125 287.655273438 c 4
 54.7158203125 300.276367188 60.1181640625 338.150390625 77.1376953125 338.150390625 c 4
 323.887695312 338.150390625 l 4
 333.418945312 338.150390625 333.658203125 326.406799055 333.658203125 323.780273438 c 4xf0
 333.658203125 316 331.890625 257.950195312 313.387695312 257.950195312 c 4
 65.2900390625 257.950195312 l 5
EndSplineSet
Validated: 1
EndChar

StartChar: dollar
Encoding: 36 36 142
GlifName: dollar
Width: 556
VWidth: 0
Flags: W
VStem: 50.6455 75.2988<89.185 169.278> 136.646 110.113<434.637 533.321> 356.489 108.156<124.293 231.423> 377.56 55.1807<613.764 671> 441.196 67.4688<497.148 564.059>
LayerCount: 2
Fore
SplineSet
299 263 m 1xe0
 271.491210938 184.969726562 249.421875 121.497070312 230.486328125 67.431640625 c 1
 307.916992188 73.080078125 356.489257812 118.680664062 356.489257812 175 c 0
 356.489257812 207.486328125 340.8359375 234.060546875 299 263 c 1xe0
431.361328125 645.594726562 m 0
 427.142578125 631.526367188 421.376953125 612.69921875 416.794921875 598.26953125 c 1
 468.967773438 590.54296875 508.665039062 574.578125 508.665039062 530.0859375 c 0
 508.665039062 499.333984375 473.815429688 490.481445312 465.645507812 490.481445312 c 0
 454.717773438 490.481445312 441.196289062 503.5078125 441.196289062 516.647460938 c 0xd8
 441.196289062 525.34375 440.904296875 533.76171875 440.904296875 538.170898438 c 0
 440.904296875 549.079101562 430.155273438 564.013671875 407.833007812 568.508789062 c 1
 386.16015625 505.681640625 363.66796875 445.759765625 339 378.099609375 c 1
 412.774414062 333.984375 464.645507812 274.463867188 464.645507812 202.073242188 c 0xe0
 464.645507812 69.0380859375 322.0625 38.8798828125 216.494140625 37.4013671875 c 1
 203.431640625 0.646484375 193.815429688 -25.7060546875 193.487304688 -26.6083984375 c 0
 193.194335938 -27.4111328125 l 1
 192.698242188 -28.1240234375 l 0
 183.78515625 -40.9404296875 169.9453125 -47 157.645507812 -47 c 0
 148.581054688 -47 139.942382812 -44.5771484375 134.1796875 -37.3740234375 c 0
 131.694335938 -34.2685546875 l 1
 133.090820312 -30.544921875 l 0
 140.9609375 -9.5625 149.484375 22.9453125 156.491210938 44.673828125 c 1
 92.5654296875 58.8134765625 50.6455078125 98.9375 50.6455078125 128.973632812 c 0
 50.6455078125 149.5703125 66.3916015625 188.96484375 101.645507812 188.96484375 c 0
 117.672851562 188.96484375 136.12890625 173.350585938 136.12890625 161.760742188 c 0
 136.12890625 149.67578125 125.944335938 135.685546875 125.944335938 122.743164062 c 0
 125.944335938 104.208984375 136.810546875 86.7587890625 172.208007812 81.4892578125 c 1
 202.1875 162.217773438 227.3671875 229.075195312 253.05859375 301.7265625 c 1
 196.321289062 341.913085938 136.645507812 384.426757812 136.645507812 466.922851562 c 0
 136.645507812 563.612304688 249.572265625 610.55078125 356.704101562 612.844726562 c 1
 363.530273438 632.4375 371.645507812 653.534179688 377.559570312 671 c 0
 377.671875 671 l 1
 377.818359375 671 l 0
 382.868164062 673.549804688 397.482421875 675 408.645507812 675 c 0
 422.2890625 675 432.740234375 665.356445312 432.740234375 653.125 c 0xd0
 432.740234375 650.177734375 431.8984375 647.390625 431.361328125 645.594726562 c 0
293.192382812 412.6484375 m 1
 312.706054688 469.958007812 329.796875 519.549804688 348.709960938 576.67578125 c 1
 299.337890625 571.87890625 246.758789062 539.442382812 246.758789062 491 c 0
 246.758789062 457.400390625 269 427 293.192382812 412.6484375 c 1
EndSplineSet
Validated: 1
EndChar

StartChar: cent
Encoding: 162 162 143
GlifName: cent
Width: 525
VWidth: 0
Flags: W
HStem: 63.6807 55.9697<239.535 329.322> 468.95 120.035<391.258 438.668> 561.96 36.3164<257.705 308.062>
VStem: 39.4102 91.7334<175.561 389.995>
LayerCount: 2
Fore
SplineSet
403.819335938 177.96484375 m 1xd0
 417.325195312 144.196289062 l 1
 413.520507812 140.935546875 l 0
 347.994140625 84.76953125 295.25 64.7333984375 223.072265625 63.6806640625 c 1
 178.961914062 -82.2998046875 l 1
 113.907226562 -82.2998046875 l 1
 160.743164062 70.9814453125 l 1
 88.140625 91.84375 39.41015625 154.125 39.41015625 253.749023438 c 0
 39.41015625 464.059570312 171.228515625 591.619140625 318.649414062 598.276367188 c 1xb0
 349.15234375 700.299804688 l 1
 414.155273438 700.299804688 l 1
 380.975585938 588.985351562 l 1
 425.123046875 576.608398438 488.23828125 552.668945312 488.23828125 509.034179688 c 0
 488.23828125 480.61328125 455.413085938 468.950195312 433.115234375 468.950195312 c 0
 385.99609375 468.950195312 381.5625 516.223632812 365.791992188 539.440429688 c 1
 239.53515625 120.584960938 l 1
 244.953125 119.943359375 248.52734375 119.650390625 253.565429688 119.650390625 c 0
 291.62890625 119.650390625 340.75 134.750976562 396.608398438 173.024414062 c 0
 403.819335938 177.96484375 l 1xd0
308.061523438 561.959960938 m 1
 215.903320312 553.193359375 131.143554688 421.66796875 131.143554688 274.276367188 c 0
 131.143554688 216.552734375 147.14453125 167.88671875 181.372070312 141.671875 c 1
 308.061523438 561.959960938 l 1
EndSplineSet
Validated: 1
EndChar

StartChar: cedilla
Encoding: 184 184 145
GlifName: cedilla
Width: 292
VWidth: 0
Flags: W
HStem: -163.4 40.25<83.02 155.483>
VStem: 160.345 83.6375<-118.819 -60.7832>
LayerCount: 2
Fore
SplineSet
174.422937826 35.400390625 m 1
 253.874023438 35.400390625 l 1
 207.639648438 -25.88671875 l 1
 232.80859375 -32.232421875 243.982421875 -52.8974609375 243.982421875 -73.2744140625 c 0
 243.982421875 -138.048828125 182.46484375 -163.400390625 134.275390625 -163.400390625 c 4
 92.564453125 -163.400390625 63.683293471 -147.469258096 52.9138143506 -125.930299857 c 0
 50.8663876796 -121.835446515 l 1
 75.9151004729 -91.7779230338 l 1
 80.9583102502 -100.351192036 l 0
 89.9670127611 -115.665651159 107.577017779 -123.150390625 121.125 -123.150390625 c 0
 141.303818988 -123.150390625 160.344970845 -106.916369102 160.344970845 -86.2086455881 c 0
 160.344970845 -71.0731619344 149.924968774 -60.5 135.825195312 -60.5 c 0
 129.028375943 -60.5 118.644323975 -61.7299254114 112.235569308 -65.7356764974 c 0
 97 -63 l 1
 174.422937826 35.400390625 l 1
EndSplineSet
Validated: 1
EndChar

StartChar: braceleft
Encoding: 123 123 147
GlifName: braceleft
Width: 459
VWidth: 0
Flags: W
HStem: -124.175 29.75<187.194 218.653> 749.425 29.75<378.55 420.255>
VStem: 38.7217 137.377<-86.4316 53.1982> 119.682 135.322<170.203 294.863>
LayerCount: 2
Fore
SplineSet
414.515625 749.424804688 m 2xd0
 390.176757812 749.424804688 350.447265625 727.267578125 336.293945312 664.583007812 c 0
 321.728515625 600.080078125 307.080078125 474.321289062 296.390625 426.220703125 c 1
 283.772460938 372.141601562 260.427734375 340.694335938 229.553710938 327.151367188 c 1
 247.112304688 315.665039062 255.00390625 296.924804688 255.00390625 270.249023438 c 0xd0
 255.00390625 257.357421875 253.068359375 242.500976562 249.140625 225.669921875 c 1
 238.458984375 177.600585938 194.385742188 51.73046875 179.84375 -12.6669921875 c 0
 177.235351562 -24.216796875 176.098632812 -34.333984375 176.098632812 -43.0986328125 c 0
 176.098632812 -81.44921875 196.89453125 -94.4248046875 216.065429688 -94.4248046875 c 0
 224.604492188 -94.4248046875 l 1
 218.653320312 -124.174804688 l 1
 212.915039062 -124.174804688 l 0
 170.086914062 -124.174804688 38.7216796875 -118.4296875 38.7216796875 -40.13671875 c 0xe0
 38.7216796875 -30.5966796875 39.9736328125 -20.03515625 42.6396484375 -8.5234375 c 0
 63.8701171875 84.888671875 98.529296875 151.090820312 117.19140625 234.034179688 c 0
 118.9375 241.672851562 119.681640625 248.3671875 119.681640625 254.25 c 0
 119.681640625 300.870117188 69.5791015625 298.330078125 69.5791015625 326.27734375 c 0
 69.5791015625 327.393554688 69.673828125 328.318359375 69.9326171875 329.548828125 c 1
 76.7529296875 358.530273438 144.099609375 354.471679688 160.241210938 424.083984375 c 1
 178.922851562 507.11328125 177.890625 573.352539062 199.095703125 666.654296875 c 0
 223.373046875 771.48828125 370.840820312 779.174804688 417.665039062 779.174804688 c 0
 426.203125 779.174804688 l 1
 420.254882812 749.424804688 l 1
 414.515625 749.424804688 l 2xd0
EndSplineSet
EndChar

StartChar: braceright
Encoding: 125 125 148
GlifName: braceright
Width: 442
VWidth: 0
Flags: W
HStem: -124.175 29.75<39.3105 81.0156> 749.425 29.75<240.912 272.372>
VStem: 204.562 135.356<360.952 484.797> 283.467 137.377<601.842 741.298>
LayerCount: 2
Fore
SplineSet
234.9609375 749.424804688 m 1xd0
 240.912109375 779.174804688 l 1
 246.650390625 779.174804688 l 0
 289.478515625 779.174804688 420.84375 773.4296875 420.84375 695.13671875 c 0xd0
 420.84375 685.596679688 419.591796875 675.03515625 416.92578125 663.5234375 c 0
 395.6953125 570.111328125 361.036132812 503.908203125 342.374023438 420.966796875 c 1
 340.645507812 413.510742188 339.91796875 407.030273438 339.91796875 401.254882812 c 0
 339.91796875 354.627929688 391.033203125 356.25 391.033203125 329.572265625 c 0
 391.033203125 328.560546875 390.881835938 327.350585938 390.682617188 326.502929688 c 1
 384.228515625 295.840820312 315.373046875 301.130859375 299.329101562 230.938476562 c 0
 280.635742188 147.856445312 281.678710938 81.662109375 260.469726562 -11.654296875 c 0
 236.192382812 -116.48828125 88.724609375 -124.174804688 41.900390625 -124.174804688 c 0
 33.3623046875 -124.174804688 l 1
 39.310546875 -94.4248046875 l 1
 45.0498046875 -94.4248046875 l 0
 69.388671875 -94.4248046875 109.118164062 -72.267578125 123.271484375 -9.5830078125 c 0
 137.836914062 54.919921875 152.485351562 180.678710938 163.174804688 228.779296875 c 1
 175.798828125 282.879882812 199.225585938 315.112304688 229.9921875 328.813476562 c 1
 212.568359375 339.985351562 204.561523438 358.466796875 204.561523438 384.9296875 c 0xe0
 204.561523438 397.720703125 206.498046875 412.50390625 210.424804688 429.330078125 c 1
 221.106445312 477.399414062 265.1796875 603.26953125 279.721679688 667.666992188 c 0
 282.330078125 679.216796875 283.466796875 689.333984375 283.466796875 698.098632812 c 0
 283.466796875 736.44921875 262.670898438 749.424804688 243.5 749.424804688 c 0
 234.9609375 749.424804688 l 1xd0
EndSplineSet
EndChar

StartChar: ampersand
Encoding: 38 38 149
GlifName: ampersand
Width: 1023
VWidth: 0
Flags: W
HStem: -17.4961 96.0225<332.113 554.543> 323.402 74.8779<783.838 880.006> 351.909 124.576<573.668 669.048> 461.088 57.6025<246.703 339.209>
VStem: 113.594 91.3584<229.267 375.592> 450.812 83.4219<535.479 699.893> 717.502 66.3682<239.654 344.788>
LayerCount: 2
Fore
SplineSet
204.952148438 302.627929688 m 0xde
 204.952148438 282.150390625 213.048828125 238.349609375 219.34375 227.13671875 c 1
 254.776367188 251.033203125 450.811523438 447.439727619 450.811523438 615.608398438 c 0
 450.811523438 666.235736482 465.586747274 710.734375 494.919921875 710.734375 c 0
 521.684885393 710.734375 534.233398438 674.08984375 534.233398438 653.694335938 c 0
 534.233398438 420.688476562 256.067382812 198.828125 251.9453125 173.299804688 c 1
 252.314453125 153.803710938 313.6484375 78.5263671875 440.098632812 78.5263671875 c 0
 589.615234375 78.5263671875 717.501953125 177.98046875 717.501953125 346.213867188 c 0
 717.501953125 376.291992188 702.667760146 399.107457569 645.958884407 425.921375315 c 1
 643.476808132 415.575646242 639.4831643 398.746600309 629.010793916 383.816822638 c 0
 617.981913702 368.095482687 593.023526072 351.909179688 573.66796875 351.909179688 c 0
 566.813587234 351.909179688 555.205078125 354.83652033 555.205078125 367.392578125 c 0
 555.205078125 414.433428144 627.409613489 476.485351562 669.047851562 476.485351562 c 0xae
 743.098091194 476.485351562 769.785801062 398.280273438 853.887695312 398.280273438 c 0
 869.598591796 398.280273438 883.902061548 404.802015807 898.271139727 411.665121992 c 0
 904.182887905 414.488751663 l 1
 915.774813462 393.850772255 l 1
 911.845442973 390.097976056 l 0
 902.433184467 381.108676614 876.8197403 323.40234375 844.833984375 323.40234375 c 0
 814.864795433 323.40234375 795.516601562 340.291992188 783.870117188 344.788085938 c 1
 781.555664062 183.225585938 677.624864777 -17.49609375 449.811523438 -17.49609375 c 4
 215.067375648 -17.49609375 113.59375 115.713867188 113.59375 265.622070312 c 4
 113.59375 390.41796875 194.497759532 518.690429688 325.182617188 518.690429688 c 4
 353.236290344 518.690429688 387.900390625 496.950597291 387.900390625 467.079101562 c 0
 387.900390625 443.140262733 372.669676826 415.047851562 340.662109375 415.047851562 c 0
 320.864899575 415.047851562 313.042669211 430.459463269 307.164861646 444.491660181 c 0
 301.898728593 457.073458015 297.897628868 461.087890625 286.11328125 461.087890625 c 0
 235.269463428 461.087890625 204.952148438 372.461914062 204.952148438 302.627929688 c 0xde
EndSplineSet
Validated: 1
EndChar

StartChar: ae
Encoding: 230 230 150
GlifName: ae
Width: 951
VWidth: 0
Flags: W
HStem: -11.0029 42.25<184.573 310.784 593.787 719.81> 467.247 44.6504<280.711 394.546 646.402 759.096>
VStem: 27 141.219<47.422 153.544> 768.392 144.219<365.227 457.483>
LayerCount: 2
Fore
SplineSet
134.3046875 425.331054688 m 0
 213.05859375 509.393554688 273.596679688 511.897460938 339.250976562 511.897460938 c 0
 414.5390625 511.897460938 479.733398438 474.581054688 511.518554688 425.928710938 c 1
 563.044921875 477.346679688 623.551757812 512.450195312 741.887695312 512.450195312 c 0
 832.15234375 512.450195312 912.610351562 486.767578125 912.610351562 417.643554688 c 0
 912.610351562 240.065429688 631.461914062 240.323242188 548.6953125 221.775390625 c 1
 544.477539062 199.130859375 540.341796875 176.196289062 540.341796875 156.791015625 c 0
 540.341796875 74.74609375 592.215820312 38.2001953125 649.67578125 38.2001953125 c 0
 700.178710938 38.2001953125 766.852539062 67.1162109375 823.924804688 105.958007812 c 1
 836.520507812 73.1748046875 l 1
 772.858398438 18.03515625 710.840820312 -10.4501953125 624.029296875 -10.4501953125 c 3
 542.869140625 -10.4501953125 452.03515625 25.583984375 429.576171875 73.525390625 c 1
 366.298828125 16.88671875 286.501953125 -11.0029296875 212.697265625 -11.0029296875 c 0
 128.522460938 -11.0029296875 27 7.4541015625 27 80.8037109375 c 0
 27 261.540039062 336.497070312 258.188476562 419.11328125 276.657226562 c 1
 422.377929688 298.140625 423.393554688 321.323242188 423.393554688 341.65625 c 0
 423.393554688 422.787109375 400.537109375 467.247070312 337.685546875 467.247070312 c 0
 244.78125 467.247070312 270.15625 365.36328125 172.491210938 365.36328125 c 0
 155.5234375 365.36328125 125.096679688 386.549804688 125.096679688 404.640625 c 0
 125.096679688 411.228515625 127.954101562 418.411132812 134.3046875 425.331054688 c 0
709.973632812 470.200195312 m 0
 655.75 470.200195312 580.147460938 413.302734375 551.546875 274.61328125 c 1
 652.395507812 297.112304688 768.391601562 337.73046875 768.391601562 418.133789062 c 0
 768.391601562 450.702148438 736.987304688 470.200195312 709.973632812 470.200195312 c 0
393.159179688 139.446289062 m 1
 394.51953125 150.203125 401.846679688 200.890625 407.25390625 235.870117188 c 1
 304.0546875 216.3046875 168.21875 194.727539062 168.21875 97.3134765625 c 0
 168.21875 54.46484375 196.104492188 31.2470703125 242.63671875 31.2470703125 c 0
 294.223632812 31.2470703125 340.103515625 61.349609375 393.159179688 139.446289062 c 1
EndSplineSet
Validated: 1
EndChar

StartChar: germandbls
Encoding: 223 223 151
GlifName: germandbls
Width: 557
VWidth: 0
Flags: W
HStem: -190.4 62.2998<-222.376 -92.2974> -9 50<220.584 342.193> 692 43<277.406 371.035>
VStem: 137.829 81.9834<47.4555 125.909> 213.258 127.47<371.977 456.445> 382.637 151.996<95.1457 213.545> 385.647 133.547<573.713 678.798>
LayerCount: 2
Fore
SplineSet
-115.90234375 -120.439453125 m 0xea
 -60.060546875 -93.943359375 -45.6318359375 -58.2890625 -28.1416015625 8.1025390625 c 1
 17.6005859375 226.653320312 l 1
 81.5263671875 504.533203125 l 1
 109.397460938 621.7109375 194.26171875 735 342.642578125 735 c 0
 426.119140625 735 519.194335938 711.041992188 519.194335938 640.889648438 c 0
 519.194335938 505.07421875 340.727539062 515.54296875 340.727539062 441.110351562 c 0xea
 340.727539062 407.404296875 382.72265625 380.607421875 433.059570312 328.7265625 c 1
 474.362304688 286.719726562 534.6328125 234.375976562 534.6328125 180.043945312 c 0
 534.6328125 50.4482421875 421.704101562 -9 263.40234375 -9 c 0
 193.422851562 -9 168.077148438 24.4462890625 156.88671875 38.552734375 c 0
 150.97265625 46.0107421875 137.829101562 65.2236328125 137.829101562 88.1279296875 c 0
 137.829101562 106.94921875 148.463867188 137 175.978515625 137 c 0
 208.859375 137 218.034179688 82.2646484375 219.8125 58.1142578125 c 1
 223.693359375 53.9228515625 243.377929688 41 288.323242188 41 c 0
 333.725585938 41 382.63671875 84.5419921875 382.63671875 153.465820312 c 0xf4
 382.63671875 201.987304688 340.420898438 241.505859375 301.203125 276.055664062 c 1
 260.750976562 312.49609375 213.2578125 347.826171875 213.2578125 396.126953125 c 0
 213.2578125 459.296875 273.47265625 492.0390625 309.71484375 521.326171875 c 0
 347.232421875 552.692382812 385.647460938 584.38671875 385.647460938 626.647460938 c 0
 385.647460938 661.116210938 365.130859375 692 329.55078125 692 c 0
 258.4609375 692 232.904296875 610.630859375 207.755859375 505.693359375 c 0
 99.603515625 44.97265625 l 1
 97.4287109375 31.82421875 92.43359375 20.4150390625 89.001953125 6.505859375 c 0
 75.7646484375 -47.1455078125 63.9384765625 -91.455078125 23.5849609375 -124.2578125 c 1
 -9.7314453125 -152.272460938 -107.923828125 -190.400390625 -211.900390625 -190.400390625 c 0
 -232.8515625 -190.400390625 -253.724609375 -185.985351562 -274.486328125 -177.243164062 c 1
 -282.248046875 -173.91796875 -285.547851562 -167.243164062 -285.547851562 -161.025390625 c 0
 -285.547851562 -126.7890625 -239.885742188 -97.900390625 -215.05078125 -97.900390625 c 0
 -182.154296875 -97.900390625 -166.14453125 -128.100585938 -142.978515625 -128.100585938 c 0
 -136.051757812 -128.100585938 -126.065429688 -125.369140625 -115.90234375 -120.439453125 c 0xea
EndSplineSet
Validated: 1
EndChar

StartChar: uniFB02
Encoding: 64258 64258 152
GlifName: uniF_B_02
Width: 638
VWidth: 0
Flags: W
HStem: -179.2 38.1504<-112.61 -35.58> -9.65039 63.3506<416.206 521.743> 441.158 60.832<105.638 129.223 287.468 344.537> 740.775 28.0498<373.348 441.929> 753.851 20G<642.359 647.506>
VStem: 354.194 137.586<30.6758 153.654>
LayerCount: 2
Fore
SplineSet
-225.166015625 -97.716796875 m 0xf4
 -225.166015625 -95.919921875 -225.021484375 -94.326171875 -224.390625 -92.4326171875 c 0
 -219.24609375 -71.859375 -184.14453125 -51.8212890625 -167.024414062 -51.8212890625 c 0
 -99.095703125 -51.8212890625 -144.37890625 -141.049804688 -77.9599609375 -141.049804688 c 0
 -29.02734375 -141.049804688 11.791015625 -78.9267578125 33.498046875 24.2685546875 c 0
 129.22265625 441.310546875 l 1
 111.598632812 440.08984375 99.333984375 439.198242188 83.677734375 435.415039062 c 1
 105.637695312 498.103515625 l 1
 143.928710938 498.103515625 l 1
 147.709960938 512.788085938 156.490234375 547.015625 159.186523438 557.333007812 c 1
 212 753 336.249023438 768.825195312 422.629882812 768.825195312 c 0xf4
 446.215820312 768.825195312 487.737304688 763.081054688 513.161132812 747.958007812 c 1
 636.8515625 772.62890625 l 0
 638.994140625 773.180664062 640.967773438 773.850585938 643.75 773.850585938 c 0xec
 651.262695312 773.850585938 653.956054688 766.420898438 653.956054688 762.08984375 c 0
 653.956054688 758.025390625 653.026367188 753.43359375 651.623046875 747.435546875 c 0
 505.69921875 134.868164062 l 1
 500.37109375 112.009765625 491.780273438 80.9287109375 491.780273438 70.5107421875 c 0
 491.780273438 62.7470703125 494.611328125 53.7001953125 502.948242188 53.7001953125 c 0
 520.19140625 53.7001953125 539.6640625 62.0537109375 561.484375 78.4208984375 c 1
 577.07421875 58.9345703125 l 1
 557.38671875 20.3955078125 486.193359375 -9.650390625 441.498046875 -9.650390625 c 0
 390.913085938 -9.650390625 354.194335938 13.068359375 354.194335938 48.283203125 c 0
 354.194335938 73.9853515625 363.208007812 106.2421875 372.782226562 145.810546875 c 1
 488 625 l 1
 481.123046875 655.799804688 460.606445312 740.775390625 408.951171875 740.775390625 c 0
 351.223632812 740.775390625 327.407226562 666.107421875 298.7265625 547.616210938 c 0
 287.467773438 501.990234375 l 1
 334.19921875 501.990234375 l 0
 350.604492188 501.990234375 364.418945312 497.936523438 364.418945312 484.899414062 c 0
 364.418945312 477.9140625 353.500976562 450.142578125 350 445 c 0
 344.537109375 437.063476562 l 1
 335.15625 437.063476562 321.631835938 440.787109375 274.791015625 441.158203125 c 1
 172.885742188 16.6806640625 l 0
 140.819335938 -123.776367188 44.2109375 -179.200195312 -74.4501953125 -179.200195312 c 0
 -112.66015625 -179.200195312 -191.087890625 -165.795898438 -221.361328125 -110.296875 c 1
 -221.361328125 -110.296875 -225.166015625 -100.3828125 -225.166015625 -97.716796875 c 0xf4
EndSplineSet
Validated: 1
LCarets2: 1 0
Ligature2: "'liga' fl" f l
EndChar

StartChar: uniFB00
Encoding: 64256 64256 153
GlifName: uniF_B_00
Width: 705
VWidth: 0
Flags: W
HStem: -179 38<137.191 222.999> -141 44<-136.518 -51.1095> -28 20G<-196.5 -157.5> 441 61<65 94 544 636> 453 48<246 392> 732 37<359.311 443.512 638.642 711.644>
LayerCount: 2
Fore
SplineSet
13 63 m 0x64
 94 441 l 1
 77 440 65 437 48 435 c 1
 65 498 l 1
 105 498 l 1
 108 513 115 544 118 554 c 1
 154 695 245 769 423 769 c 0
 455 769 495 761 517 734 c 1
 547 759 638 769 695 769 c 0
 764 769 804 750 828 698 c 1
 831 693 831 692 831 689 c 0
 831 686 831 685 830 681 c 0
 826 661 794 639 779 639 c 0
 718 639 729 733 687 733 c 0
 631 733 583 663 555 545 c 0
 544 502 l 1
 627 502 l 0
 645.645336063 502 654.030211245 494.757321731 654.030211245 484.492033016 c 0
 654.030211245 481.543994369 653.338665984 478.34666496 652 475 c 0
 649 469 644 452 641 447 c 1
 636 437 l 1
 631 437 l 0
 626 437 588 440 545 441 c 1
 543 441 538 441 534 441 c 1
 433 17 l 0
 400 -129 297 -179 188 -179 c 0xb4
 113 -179 47 -146 25 -110 c 1
 -6 -128 -56 -141 -100 -141 c 0
 -139 -141 -211 -122 -244 -67 c 1
 -244 -67 -249 -57 -249 -55 c 0
 -249 -29 -207 -8 -186 -8 c 0
 -129 -8 -157 -97 -108 -97 c 0
 -47 -97 -9 -40 13 63 c 0x64
151 59 m 1
 140 10 121 -31 98 -60 c 1
 113 -112 151 -141 184 -141 c 0
 310 -141 355 330 392 453 c 1
 323 453 267 453 239 453 c 1xac
 151 59 l 1
246 501 m 1
 254 501 305 500 338 500 c 0
 363 500 393 501 403 501 c 1
 407 518 413 540 417 554 c 1
 431 603 443 633 462 664 c 1
 449 696 448 732 412 732 c 0
 353 732 285 663 257 545 c 0
 246 501 l 1
EndSplineSet
Validated: 1
LCarets2: 1 0
Ligature2: "'liga' ff" f f
EndChar

StartChar: uniFB01
Encoding: 64257 64257 154
GlifName: uniF_B_01
Width: 611
VWidth: 0
Flags: W
HStem: -179.2 37.8223<-108.271 -31.8403> -10.2246 64.3496<409.544 515.947> 441.311 55.793<106.317 132.023> 453.277 46.8223<288.63 445.162> 494.642 20G<567.044 579.983> 740.775 28.0498<378.836 475.549>
VStem: 348.008 140.139<30.9409 156.02>
LayerCount: 2
Fore
SplineSet
36.97265625 24.2685546875 m 0xd6
 132.0234375 441.310546875 l 1
 97.2587890625 440.08984375 103.997070312 438.19921875 86.271484375 435.415039062 c 1
 106.317382812 497.103515625 l 1
 145.76953125 497.103515625 l 1xe6
 149.564453125 511.788085938 155.377929688 537.015625 158.083984375 547.333007812 c 1
 205.220703125 708.221679688 280.578125 768.825195312 445.405273438 768.825195312 c 0
 505.692382812 768.825195312 588.831054688 735.876953125 588.831054688 667.4453125 c 0
 588.831054688 638.284179688 569.115234375 603.100585938 523.73046875 603.100585938 c 0
 436.059570312 603.100585938 484.323242188 740.775390625 414.638671875 740.775390625 c 0
 352.829101562 740.775390625 327.396484375 654.778320312 298.930664062 537.616210938 c 0
 288.629882812 500.099609375 l 1xd6
 353.044921875 500.099609375 399.291992188 500.349609375 464.115234375 500.349609375 c 1
 492.428710938 500.729492188 555.891601562 514.641601562 578.197265625 514.641601562 c 0xce
 581.76953125 514.641601562 593.032226562 511.361328125 593.032226562 501.112304688 c 0
 593.032226562 478.655273438 571.508789062 413.362304688 562.538085938 376.672851562 c 0
 500.442382812 133.36328125 l 0
 494.266601562 108.595703125 488.146484375 81.1455078125 488.146484375 67.5302734375 c 0
 488.146484375 59.38671875 492.580078125 54.125 501.702148438 54.125 c 0
 518.145507812 54.125 535.953125 61.5146484375 557.724609375 77.845703125 c 1
 573.3125 58.359375 l 1
 551.618164062 19.79296875 480.1875 -10.224609375 432.392578125 -10.224609375 c 0
 386.6953125 -10.224609375 348.0078125 12.9775390625 348.0078125 48.904296875 c 0
 348.0078125 75.2080078125 357.4609375 108.038085938 367.713867188 148.595703125 c 0
 427.536132812 381.266601562 l 0
 430.44140625 392.604492188 438.958984375 424.119140625 445.162109375 450.325195312 c 1
 380.309570312 451.517578125 312.840820312 453.061523438 280.920898438 453.27734375 c 1
 177.655273438 20.505859375 l 0
 145.465820312 -122.713867188 53.634765625 -179.200195312 -71.4501953125 -179.200195312 c 0
 -109.66015625 -179.200195312 -185.807617188 -167.71875 -217.155273438 -110.25 c 1
 -217.155273438 -110.25 -221.094726562 -99.9833984375 -221.094726562 -97.2236328125 c 0
 -221.094726562 -73.708984375 -179.294921875 -52.0537109375 -163.137695312 -52.0537109375 c 0
 -94.7978515625 -52.0537109375 -142.099609375 -141.377929688 -71.173828125 -141.377929688 c 0
 -36.5302734375 -141.377929688 12 -96 36.97265625 24.2685546875 c 0xd6
EndSplineSet
Validated: 1
LCarets2: 1 0
Ligature2: "'liga' fi" f i
EndChar

